<?xml version="1.0" encoding="utf-8"?>
<!-- Generator: Adobe Illustrator 15.0.0, SVG Export Plug-In . SVG Version: 6.00 Build 0)  -->
<!DOCTYPE svg PUBLIC "-//W3C//DTD SVG 1.1//EN" "http://www.w3.org/Graphics/SVG/1.1/DTD/svg11.dtd">
<svg version="1.1" xmlns="http://www.w3.org/2000/svg" xmlns:xlink="http://www.w3.org/1999/xlink" x="0px" y="0px" width="230px"
	 height="183px" viewBox="0 0 230 183" enable-background="new 0 0 230 183" xml:space="preserve">
<g id="Layer_3">
	<defs>
		<path id="SVGID_1_" d="M0,148c0,5.522,4.477,10,10,10h210c5.523,0,10-4.478,10-10V10c0-5.523-4.477-10-10-10H10
			C4.477,0,0,4.477,0,10V148z"/>
	</defs>
	<clipPath id="SVGID_2_">
		<use xlink:href="#SVGID_1_"  overflow="visible"/>
	</clipPath>
	<path clip-path="url(#SVGID_2_)" fill="#DDDDDF" d="M0,148c0,5.522,4.477,10,10,10h210c5.523,0,10-4.478,10-10V10
		c0-5.523-4.477-10-10-10H10C4.477,0,0,4.477,0,10V148z"/>
	<rect clip-path="url(#SVGID_2_)" fill="#3E3B41" width="230" height="130"/>
	<rect x="9" y="10" clip-path="url(#SVGID_2_)" fill="#7391A8" width="212" height="112"/>
	<g id="Layer_6" clip-path="url(#SVGID_2_)">
		<defs>
			<path id="SVGID_3_" d="M162,17.062c0-1.691-1.371-3.062-3.063-3.062H23.063C21.371,14,20,15.371,20,17.062v165.875
				c0,1.691,1.371,3.063,3.063,3.063h135.875c1.691,0,3.063-1.371,3.063-3.063V17.062z"/>
		</defs>
		<clipPath id="SVGID_4_">
			<use xlink:href="#SVGID_3_"  overflow="visible"/>
		</clipPath>
		<path clip-path="url(#SVGID_4_)" fill="#2B303B" d="M20,117.866c0,1.04,1.371,1.884,3.063,1.884h135.51
			c1.691,0,3.063-0.844,3.063-1.884V15.626c0-1.041-1.371-1.885-3.063-1.885H23.063c-1.691,0-3.063,0.844-3.063,1.885V117.866z"/>
		<rect x="20" y="14" clip-path="url(#SVGID_4_)" fill="#65737F" width="142" height="13"/>
		<circle clip-path="url(#SVGID_4_)" fill="#FF6563" cx="26.907" cy="20.385" r="3.079"/>
		<circle clip-path="url(#SVGID_4_)" fill="#FCCD7C" cx="35.119" cy="20.385" r="3.079"/>
		<circle clip-path="url(#SVGID_4_)" fill="#A3DB8C" cx="43.329" cy="20.385" r="3.079"/>
		<g clip-path="url(#SVGID_4_)">
			<defs>
				<rect id="SVGID_5_" x="30" y="33" width="122" height="87"/>
			</defs>
			<clipPath id="SVGID_6_">
				<use xlink:href="#SVGID_5_"  overflow="visible"/>
			</clipPath>
			<rect x="30" y="33" clip-path="url(#SVGID_6_)" fill="#FFFFFF" width="122" height="87"/>
			<rect x="30" y="33" clip-path="url(#SVGID_6_)" fill="#4E5892" width="122" height="42"/>
		</g>
		<rect x="37" y="49" clip-path="url(#SVGID_4_)" fill="#FFFFFF" width="59" height="3"/>
		<rect x="36.64" y="93" clip-path="url(#SVGID_4_)" fill="#DFDFDF" width="39.2" height="3.36"/>
		<rect x="36.64" y="99.72" clip-path="url(#SVGID_4_)" fill="#DFDFDF" width="59.36" height="3.36"/>
		<circle clip-path="url(#SVGID_4_)" fill="#DFDFDF" cx="127.76" cy="97.16" r="12.32"/>
		<rect x="37" y="56" clip-path="url(#SVGID_4_)" fill="#FFFFFF" width="33" height="3"/>
	</g>
	<g id="Layer_5" clip-path="url(#SVGID_2_)">
		<defs>
			<path id="SVGID_7_" d="M212,32.467c0-0.81-0.656-1.467-1.467-1.467h-65.066c-0.811,0-1.467,0.657-1.467,1.467v80.066
				c0,0.811,0.656,1.467,1.467,1.467h65.066c0.811,0,1.467-0.656,1.467-1.467V32.467z"/>
		</defs>
		<clipPath id="SVGID_8_">
			<use xlink:href="#SVGID_7_"  overflow="visible"/>
		</clipPath>
		<path clip-path="url(#SVGID_8_)" fill="#2B303B" d="M212,32.467c0-0.81-0.656-1.467-1.467-1.467h-65.066
			c-0.811,0-1.467,0.657-1.467,1.467v80.066c0,0.811,0.656,1.467,1.467,1.467h65.066c0.811,0,1.467-0.656,1.467-1.467V32.467z"/>
		<rect x="144" y="31" clip-path="url(#SVGID_8_)" fill="#65737F" width="68" height="8"/>
		<circle clip-path="url(#SVGID_8_)" fill="#FF6563" cx="147.481" cy="34.834" r="1.647"/>
		<circle clip-path="url(#SVGID_8_)" fill="#FCCD7C" cx="151.876" cy="34.834" r="1.647"/>
		<circle clip-path="url(#SVGID_8_)" fill="#A3DB8C" cx="156.271" cy="34.834" r="1.647"/>
		<g clip-path="url(#SVGID_8_)">
			<path fill="#92BFBF" d="M149.716,49.097h-0.382v-0.271h0.415l0.086-0.706h-0.405v-0.276h0.438l0.109-0.873h0.253l-0.109,0.873
				h0.634l0.114-0.873h0.253l-0.114,0.873h0.386v0.276h-0.415l-0.086,0.706h0.405v0.271h-0.438l-0.119,0.973h-0.253l0.115-0.973
				h-0.63l-0.119,0.973h-0.257L149.716,49.097z M150.636,48.825l0.086-0.706h-0.63l-0.086,0.706H150.636z"/>
			<path fill="#92BFBF" d="M151.928,46.675h0.391V47.6l-0.015,0.477c0.111-0.105,0.228-0.195,0.349-0.27
				c0.12-0.074,0.262-0.112,0.424-0.112c0.245,0,0.424,0.076,0.536,0.229c0.113,0.152,0.169,0.378,0.169,0.677v1.468h-0.391v-1.416
				c0-0.219-0.035-0.377-0.104-0.474c-0.07-0.097-0.182-0.146-0.334-0.146c-0.121,0-0.228,0.03-0.319,0.091
				c-0.092,0.06-0.197,0.149-0.314,0.267v1.678h-0.391V46.675z"/>
			<path fill="#92BFBF" d="M154.349,48.916c0-0.19,0.029-0.361,0.089-0.512c0.059-0.151,0.137-0.279,0.233-0.384
				s0.207-0.185,0.331-0.241s0.253-0.083,0.386-0.083c0.146,0,0.277,0.025,0.394,0.076s0.213,0.124,0.291,0.219
				c0.078,0.096,0.138,0.21,0.179,0.343c0.041,0.134,0.063,0.283,0.063,0.448c0,0.086-0.005,0.157-0.015,0.214h-1.563
				c0.016,0.251,0.093,0.45,0.23,0.596c0.139,0.146,0.319,0.219,0.542,0.219c0.11,0,0.213-0.017,0.307-0.05
				c0.094-0.033,0.184-0.077,0.27-0.131l0.139,0.257c-0.102,0.063-0.215,0.119-0.339,0.167c-0.124,0.047-0.266,0.071-0.424,0.071
				c-0.156,0-0.302-0.028-0.437-0.083c-0.135-0.055-0.253-0.135-0.353-0.238c-0.101-0.103-0.179-0.229-0.236-0.379
				C154.378,49.276,154.349,49.106,154.349,48.916z M155.97,48.739c0-0.238-0.05-0.42-0.15-0.546c-0.1-0.125-0.24-0.188-0.422-0.188
				c-0.082,0-0.161,0.017-0.235,0.05c-0.075,0.033-0.143,0.081-0.203,0.143s-0.11,0.138-0.15,0.229
				c-0.039,0.09-0.065,0.194-0.078,0.312H155.97z"/>
			<path fill="#92BFBF" d="M156.704,49.469c0-0.254,0.113-0.449,0.341-0.584s0.589-0.229,1.084-0.284
				c0-0.073-0.007-0.145-0.021-0.214c-0.015-0.07-0.04-0.132-0.077-0.186c-0.036-0.054-0.085-0.098-0.145-0.131
				c-0.061-0.033-0.139-0.05-0.234-0.05c-0.137,0-0.263,0.025-0.379,0.076s-0.22,0.108-0.313,0.172l-0.157-0.272
				c0.108-0.07,0.24-0.137,0.396-0.203c0.155-0.065,0.327-0.098,0.515-0.098c0.282,0,0.487,0.086,0.615,0.26
				c0.127,0.173,0.19,0.404,0.19,0.694v1.42h-0.324l-0.033-0.276h-0.01c-0.111,0.092-0.231,0.171-0.36,0.236
				c-0.128,0.065-0.265,0.098-0.407,0.098c-0.197,0-0.36-0.057-0.488-0.171C156.769,49.84,156.704,49.678,156.704,49.469z
				 M157.09,49.44c0,0.134,0.039,0.229,0.117,0.286s0.174,0.086,0.288,0.086c0.111,0,0.217-0.026,0.317-0.079
				c0.1-0.053,0.206-0.129,0.316-0.231v-0.644c-0.193,0.025-0.357,0.056-0.49,0.091c-0.134,0.035-0.241,0.076-0.322,0.124
				c-0.081,0.048-0.139,0.103-0.174,0.165S157.09,49.367,157.09,49.44z"/>
			<path fill="#92BFBF" d="M159.093,48.916c0-0.188,0.027-0.356,0.083-0.507c0.056-0.151,0.13-0.279,0.222-0.384
				c0.092-0.105,0.198-0.186,0.319-0.243s0.248-0.086,0.382-0.086c0.133,0,0.249,0.024,0.348,0.071
				c0.099,0.048,0.198,0.113,0.301,0.196l-0.02-0.396v-0.891h0.396v3.394h-0.324l-0.033-0.272h-0.015
				c-0.092,0.089-0.197,0.167-0.316,0.231s-0.247,0.098-0.384,0.098c-0.293,0-0.525-0.105-0.698-0.314
				C159.179,49.602,159.093,49.303,159.093,48.916z M159.498,48.911c0,0.279,0.056,0.497,0.166,0.653
				c0.111,0.156,0.269,0.233,0.473,0.233c0.107,0,0.21-0.026,0.305-0.079c0.096-0.052,0.19-0.132,0.286-0.241v-1.21
				c-0.099-0.089-0.193-0.152-0.283-0.188c-0.091-0.037-0.184-0.055-0.279-0.055c-0.092,0-0.179,0.021-0.26,0.064
				c-0.081,0.043-0.151,0.104-0.212,0.181c-0.061,0.078-0.108,0.171-0.144,0.279C159.515,48.657,159.498,48.777,159.498,48.911z"/>
			<path fill="#92BFBF" d="M161.733,48.916c0-0.19,0.029-0.361,0.088-0.512s0.137-0.279,0.233-0.384
				c0.098-0.105,0.208-0.185,0.332-0.241s0.252-0.083,0.386-0.083c0.146,0,0.277,0.025,0.394,0.076
				c0.115,0.051,0.213,0.124,0.29,0.219c0.078,0.096,0.138,0.21,0.18,0.343c0.041,0.134,0.062,0.283,0.062,0.448
				c0,0.086-0.005,0.157-0.015,0.214h-1.563c0.016,0.251,0.093,0.45,0.231,0.596c0.139,0.146,0.318,0.219,0.541,0.219
				c0.111,0,0.214-0.017,0.308-0.05c0.094-0.033,0.184-0.077,0.27-0.131l0.138,0.257c-0.102,0.063-0.214,0.119-0.338,0.167
				c-0.124,0.047-0.266,0.071-0.425,0.071c-0.155,0-0.301-0.028-0.436-0.083c-0.136-0.055-0.253-0.135-0.354-0.238
				c-0.1-0.103-0.179-0.229-0.235-0.379C161.762,49.276,161.733,49.106,161.733,48.916z M163.354,48.739
				c0-0.238-0.051-0.42-0.15-0.546c-0.101-0.125-0.241-0.188-0.422-0.188c-0.083,0-0.161,0.017-0.236,0.05
				c-0.074,0.033-0.143,0.081-0.202,0.143c-0.061,0.062-0.11,0.138-0.15,0.229c-0.04,0.09-0.066,0.194-0.079,0.312H163.354z"/>
			<path fill="#92BFBF" d="M164.27,47.752h0.324l0.033,0.419h0.015c0.079-0.146,0.176-0.262,0.288-0.348
				c0.113-0.086,0.236-0.129,0.369-0.129c0.093,0,0.175,0.016,0.248,0.048l-0.076,0.343c-0.038-0.013-0.073-0.022-0.104-0.029
				c-0.032-0.006-0.071-0.01-0.119-0.01c-0.099,0-0.201,0.04-0.308,0.119c-0.106,0.08-0.199,0.218-0.279,0.415v1.487h-0.391V47.752z
				"/>
			<path fill="#FFFFFF" d="M167.024,50.16c0-0.086,0.003-0.168,0.007-0.246c0.005-0.078,0.01-0.153,0.015-0.227
				s0.01-0.146,0.015-0.219s0.007-0.149,0.007-0.229c0-0.047-0.007-0.093-0.019-0.136c-0.014-0.043-0.034-0.082-0.064-0.117
				c-0.03-0.035-0.072-0.063-0.127-0.086c-0.054-0.022-0.12-0.033-0.2-0.033V48.62c0.08,0,0.146-0.011,0.2-0.033
				c0.055-0.022,0.097-0.05,0.127-0.083c0.03-0.034,0.051-0.072,0.064-0.117c0.012-0.044,0.019-0.089,0.019-0.134
				c0-0.152-0.007-0.303-0.021-0.453s-0.021-0.307-0.021-0.472c0-0.121,0.011-0.222,0.033-0.303s0.057-0.146,0.103-0.195
				s0.104-0.084,0.174-0.105c0.07-0.021,0.151-0.031,0.243-0.031h0.22v0.229h-0.134c-0.127,0-0.212,0.033-0.255,0.098
				c-0.043,0.065-0.064,0.176-0.064,0.332c0,0.14,0.005,0.282,0.015,0.427s0.014,0.29,0.014,0.436c0,0.156-0.021,0.274-0.066,0.355
				c-0.044,0.081-0.117,0.136-0.219,0.165v0.019c0.102,0.029,0.175,0.084,0.219,0.167c0.045,0.083,0.066,0.2,0.066,0.353
				c0,0.162-0.004,0.31-0.014,0.443c-0.01,0.133-0.015,0.273-0.015,0.419c0,0.156,0.021,0.267,0.064,0.333s0.128,0.1,0.255,0.1
				h0.134v0.224h-0.22c-0.092,0-0.173-0.01-0.243-0.031c-0.069-0.021-0.128-0.055-0.174-0.103c-0.046-0.048-0.08-0.112-0.103-0.193
				S167.024,50.284,167.024,50.16z"/>
			<path fill="#92BFBF" d="M153.41,52.542h0.391v0.925l-0.015,0.477c0.111-0.105,0.228-0.195,0.349-0.27
				c0.12-0.074,0.262-0.112,0.424-0.112c0.245,0,0.424,0.076,0.536,0.229c0.113,0.152,0.169,0.378,0.169,0.677v1.468h-0.391v-1.416
				c0-0.219-0.035-0.377-0.104-0.474c-0.07-0.097-0.182-0.146-0.334-0.146c-0.121,0-0.228,0.03-0.319,0.091
				c-0.092,0.06-0.197,0.149-0.314,0.267v1.678h-0.391V52.542z"/>
			<path fill="#92BFBF" d="M155.831,54.783c0-0.19,0.029-0.361,0.089-0.512c0.059-0.151,0.137-0.279,0.233-0.384
				s0.207-0.185,0.331-0.241s0.253-0.083,0.386-0.083c0.146,0,0.277,0.025,0.394,0.076s0.213,0.124,0.291,0.219
				c0.078,0.096,0.138,0.21,0.179,0.343c0.041,0.134,0.063,0.283,0.063,0.448c0,0.086-0.005,0.157-0.015,0.214h-1.563
				c0.016,0.251,0.093,0.45,0.23,0.596c0.139,0.146,0.319,0.219,0.542,0.219c0.11,0,0.213-0.017,0.307-0.05
				c0.094-0.033,0.184-0.077,0.27-0.131l0.139,0.257c-0.102,0.063-0.215,0.119-0.339,0.167c-0.124,0.047-0.266,0.071-0.424,0.071
				c-0.156,0-0.302-0.028-0.437-0.083c-0.135-0.055-0.253-0.135-0.353-0.238c-0.101-0.103-0.179-0.229-0.236-0.379
				C155.86,55.144,155.831,54.974,155.831,54.783z M157.452,54.606c0-0.238-0.05-0.42-0.15-0.546c-0.1-0.125-0.24-0.188-0.422-0.188
				c-0.082,0-0.161,0.017-0.235,0.05c-0.075,0.033-0.143,0.081-0.203,0.143s-0.11,0.138-0.15,0.229
				c-0.039,0.09-0.065,0.194-0.078,0.312H157.452z"/>
			<path fill="#92BFBF" d="M158.568,53.143c-0.077,0-0.141-0.024-0.193-0.072c-0.053-0.047-0.079-0.108-0.079-0.181
				c0-0.076,0.026-0.137,0.079-0.184c0.053-0.046,0.116-0.069,0.193-0.069c0.076,0,0.141,0.023,0.192,0.069
				c0.053,0.046,0.079,0.107,0.079,0.184c0,0.073-0.026,0.134-0.079,0.181C158.709,53.119,158.645,53.143,158.568,53.143z
				 M158.368,53.62h0.391v2.317h-0.391V53.62z"/>
			<path fill="#92BFBF" d="M159.363,56.38c0-0.099,0.03-0.192,0.091-0.281s0.144-0.17,0.248-0.243v-0.019
				c-0.058-0.035-0.105-0.083-0.146-0.146s-0.06-0.139-0.06-0.231c0-0.099,0.027-0.185,0.081-0.258
				c0.054-0.073,0.111-0.13,0.172-0.171v-0.019c-0.076-0.063-0.146-0.148-0.208-0.255c-0.062-0.106-0.093-0.23-0.093-0.37
				c0-0.127,0.023-0.242,0.069-0.343s0.109-0.188,0.188-0.26c0.079-0.072,0.172-0.126,0.278-0.165s0.219-0.057,0.337-0.057
				c0.063,0,0.123,0.005,0.179,0.017s0.105,0.025,0.149,0.041h0.806v0.3h-0.477c0.055,0.054,0.1,0.123,0.136,0.205
				c0.037,0.083,0.056,0.173,0.056,0.271c0,0.124-0.022,0.236-0.067,0.336c-0.044,0.1-0.104,0.184-0.181,0.252
				s-0.166,0.122-0.27,0.16s-0.214,0.057-0.331,0.057c-0.058,0-0.116-0.007-0.177-0.021c-0.061-0.015-0.117-0.034-0.172-0.06
				c-0.041,0.035-0.076,0.074-0.104,0.117s-0.043,0.096-0.043,0.16c0,0.073,0.028,0.133,0.086,0.181
				c0.057,0.047,0.165,0.071,0.324,0.071h0.448c0.27,0,0.473,0.044,0.607,0.131s0.202,0.228,0.202,0.422
				c0,0.108-0.026,0.21-0.08,0.307c-0.055,0.097-0.133,0.182-0.234,0.255c-0.102,0.073-0.225,0.131-0.369,0.174
				s-0.308,0.064-0.488,0.064c-0.144,0-0.273-0.014-0.392-0.041c-0.117-0.027-0.218-0.067-0.303-0.122
				c-0.084-0.054-0.149-0.119-0.195-0.195S159.363,56.481,159.363,56.38z M159.707,56.328c0,0.124,0.06,0.222,0.179,0.295
				s0.283,0.109,0.493,0.109c0.111,0,0.212-0.013,0.303-0.041c0.091-0.027,0.168-0.062,0.231-0.104s0.112-0.093,0.147-0.15
				s0.053-0.116,0.053-0.176c0-0.108-0.04-0.183-0.119-0.224s-0.195-0.062-0.348-0.062h-0.4c-0.045,0-0.094-0.002-0.146-0.007
				c-0.053-0.004-0.104-0.015-0.155-0.031c-0.083,0.061-0.143,0.124-0.182,0.191C159.726,56.194,159.707,56.261,159.707,56.328z
				 M160.322,54.94c0.066,0,0.129-0.012,0.188-0.038c0.06-0.025,0.111-0.062,0.158-0.109c0.046-0.048,0.081-0.105,0.106-0.174
				c0.025-0.068,0.038-0.145,0.038-0.231c0-0.172-0.047-0.304-0.143-0.398s-0.211-0.141-0.348-0.141s-0.253,0.047-0.349,0.141
				c-0.095,0.094-0.143,0.226-0.143,0.398c0,0.086,0.013,0.163,0.038,0.231c0.025,0.069,0.061,0.126,0.107,0.174
				c0.046,0.047,0.099,0.084,0.157,0.109C160.192,54.928,160.255,54.94,160.322,54.94z"/>
			<path fill="#92BFBF" d="M161.943,52.542h0.391v0.925l-0.015,0.477c0.111-0.105,0.228-0.195,0.349-0.27
				c0.12-0.074,0.262-0.112,0.424-0.112c0.245,0,0.424,0.076,0.536,0.229c0.113,0.152,0.169,0.378,0.169,0.677v1.468h-0.391v-1.416
				c0-0.219-0.035-0.377-0.104-0.474c-0.07-0.097-0.182-0.146-0.334-0.146c-0.121,0-0.228,0.03-0.319,0.091
				c-0.092,0.06-0.197,0.149-0.314,0.267v1.678h-0.391V52.542z"/>
			<path fill="#92BFBF" d="M164.603,53.939h-0.343v-0.295l0.362-0.024l0.048-0.648h0.329v0.648h0.624v0.319h-0.624v1.287
				c0,0.143,0.025,0.253,0.078,0.332c0.053,0.078,0.146,0.117,0.279,0.117c0.041,0,0.086-0.006,0.133-0.019
				c0.048-0.013,0.091-0.027,0.129-0.043l0.076,0.295c-0.063,0.022-0.133,0.042-0.207,0.06c-0.075,0.018-0.148,0.026-0.222,0.026
				c-0.124,0-0.229-0.019-0.313-0.057s-0.152-0.091-0.205-0.157c-0.052-0.067-0.09-0.148-0.111-0.243
				c-0.022-0.095-0.034-0.2-0.034-0.314V53.939z"/>
			<path fill="#FFFFFF" d="M166.134,53.977c0-0.092,0.027-0.166,0.083-0.222c0.056-0.055,0.123-0.083,0.202-0.083
				c0.077,0,0.143,0.028,0.198,0.083c0.056,0.056,0.083,0.13,0.083,0.222c0,0.086-0.027,0.157-0.083,0.212s-0.121,0.083-0.198,0.083
				c-0.079,0-0.146-0.028-0.202-0.083S166.134,54.063,166.134,53.977z M166.134,55.698c0-0.092,0.027-0.166,0.083-0.222
				s0.123-0.083,0.202-0.083c0.077,0,0.143,0.028,0.198,0.083s0.083,0.129,0.083,0.222c0,0.086-0.027,0.157-0.083,0.212
				c-0.056,0.056-0.121,0.083-0.198,0.083c-0.079,0-0.146-0.028-0.202-0.083C166.161,55.855,166.134,55.784,166.134,55.698z"/>
			<path fill="#FFE88C" d="M170.209,55.098h-0.414v0.839h-0.372v-0.839h-1.368V54.84l1.301-1.945h0.439v1.888h0.414V55.098z
				 M169.423,54.783v-0.882c0-0.083,0.002-0.18,0.007-0.293s0.011-0.21,0.017-0.293h-0.019c-0.038,0.073-0.078,0.145-0.119,0.215
				c-0.042,0.07-0.085,0.141-0.129,0.214l-0.711,1.039H169.423z"/>
			<path fill="#FFE88C" d="M170.733,53.62h0.324l0.033,0.419h0.015c0.079-0.146,0.176-0.262,0.288-0.348
				c0.113-0.086,0.236-0.129,0.369-0.129c0.093,0,0.175,0.016,0.248,0.048l-0.076,0.343c-0.038-0.013-0.073-0.022-0.104-0.029
				c-0.032-0.006-0.071-0.01-0.119-0.01c-0.099,0-0.201,0.04-0.308,0.119c-0.106,0.08-0.199,0.218-0.279,0.415v1.487h-0.391V53.62z"
				/>
			<path fill="#FFE88C" d="M172.168,54.783c0-0.19,0.029-0.361,0.089-0.512c0.059-0.151,0.137-0.279,0.233-0.384
				s0.207-0.185,0.331-0.241s0.253-0.083,0.386-0.083c0.146,0,0.277,0.025,0.394,0.076s0.213,0.124,0.291,0.219
				c0.078,0.096,0.138,0.21,0.179,0.343c0.041,0.134,0.063,0.283,0.063,0.448c0,0.086-0.005,0.157-0.015,0.214h-1.563
				c0.016,0.251,0.093,0.45,0.23,0.596c0.139,0.146,0.319,0.219,0.542,0.219c0.11,0,0.213-0.017,0.307-0.05
				c0.094-0.033,0.184-0.077,0.27-0.131l0.139,0.257c-0.102,0.063-0.215,0.119-0.339,0.167c-0.124,0.047-0.266,0.071-0.424,0.071
				c-0.156,0-0.302-0.028-0.437-0.083c-0.135-0.055-0.253-0.135-0.353-0.238c-0.101-0.103-0.179-0.229-0.236-0.379
				C172.197,55.144,172.168,54.974,172.168,54.783z M173.789,54.606c0-0.238-0.05-0.42-0.15-0.546
				c-0.1-0.125-0.24-0.188-0.422-0.188c-0.082,0-0.161,0.017-0.235,0.05c-0.075,0.033-0.143,0.081-0.203,0.143
				s-0.11,0.138-0.15,0.229c-0.039,0.09-0.065,0.194-0.078,0.312H173.789z"/>
			<path fill="#FFE88C" d="M174.704,53.62h0.324l0.033,0.334h0.015c0.102-0.111,0.212-0.205,0.331-0.279
				c0.119-0.074,0.249-0.112,0.389-0.112c0.178,0,0.317,0.039,0.417,0.117c0.101,0.078,0.174,0.187,0.222,0.327
				c0.121-0.133,0.242-0.241,0.364-0.322c0.123-0.081,0.256-0.122,0.398-0.122c0.238,0,0.416,0.076,0.531,0.229
				c0.116,0.152,0.175,0.378,0.175,0.677v1.468h-0.392v-1.416c0-0.219-0.035-0.377-0.104-0.474c-0.07-0.097-0.178-0.146-0.324-0.146
				c-0.175,0-0.369,0.119-0.582,0.357v1.678h-0.391v-1.416c0-0.219-0.035-0.377-0.104-0.474c-0.07-0.097-0.18-0.146-0.329-0.146
				c-0.175,0-0.369,0.119-0.582,0.357v1.678h-0.391V53.62z"/>
			<path fill="#FFFFFF" d="M178.489,56.518c0.134-0.061,0.238-0.14,0.314-0.238s0.115-0.213,0.115-0.343
				c-0.01,0.003-0.026,0.005-0.048,0.005c-0.076,0-0.143-0.023-0.198-0.069c-0.056-0.046-0.083-0.113-0.083-0.203
				c0-0.085,0.028-0.153,0.086-0.203c0.057-0.049,0.125-0.074,0.204-0.074c0.103,0,0.183,0.042,0.241,0.124s0.088,0.195,0.088,0.338
				c0,0.207-0.056,0.386-0.167,0.539c-0.111,0.153-0.264,0.27-0.457,0.353L178.489,56.518z M178.575,53.977
				c0-0.092,0.028-0.166,0.083-0.222c0.056-0.055,0.124-0.083,0.203-0.083c0.076,0,0.143,0.028,0.198,0.083
				c0.055,0.056,0.083,0.13,0.083,0.222c0,0.086-0.028,0.157-0.083,0.212c-0.056,0.056-0.122,0.083-0.198,0.083
				c-0.079,0-0.147-0.028-0.203-0.083C178.604,54.134,178.575,54.063,178.575,53.977z"/>
			<path fill="#92BFBF" d="M154.454,58.729c-0.086-0.038-0.174-0.057-0.263-0.057c-0.216,0-0.324,0.149-0.324,0.448v0.367h0.491
				v0.319h-0.491v1.998h-0.391v-1.998h-0.314v-0.295l0.314-0.024V59.12c0-0.238,0.055-0.426,0.164-0.563
				c0.11-0.136,0.28-0.205,0.513-0.205c0.073,0,0.143,0.007,0.207,0.021c0.065,0.015,0.125,0.033,0.179,0.055L154.454,58.729z"/>
			<path fill="#92BFBF" d="M154.802,58.41h0.391v2.956c0,0.063,0.012,0.108,0.034,0.133c0.021,0.025,0.047,0.038,0.076,0.038
				c0.013,0,0.024,0,0.035,0c0.012,0,0.028-0.003,0.05-0.009l0.053,0.295c-0.025,0.013-0.056,0.022-0.091,0.029
				c-0.034,0.006-0.079,0.009-0.133,0.009c-0.149,0-0.256-0.044-0.319-0.133s-0.096-0.219-0.096-0.391V58.41z"/>
			<path fill="#92BFBF" d="M155.846,60.65c0-0.194,0.029-0.366,0.089-0.517c0.059-0.151,0.137-0.279,0.235-0.384
				s0.212-0.184,0.341-0.238s0.265-0.081,0.408-0.081c0.143,0,0.278,0.027,0.407,0.081s0.242,0.133,0.341,0.238
				s0.177,0.233,0.236,0.384c0.059,0.151,0.088,0.323,0.088,0.517c0,0.191-0.029,0.362-0.088,0.513
				c-0.06,0.151-0.138,0.278-0.236,0.381c-0.099,0.103-0.212,0.182-0.341,0.236c-0.129,0.054-0.265,0.081-0.407,0.081
				c-0.144,0-0.279-0.027-0.408-0.081c-0.129-0.054-0.242-0.133-0.341-0.236c-0.099-0.104-0.177-0.23-0.235-0.381
				C155.875,61.012,155.846,60.841,155.846,60.65z M156.251,60.65c0,0.134,0.016,0.254,0.048,0.362
				c0.032,0.108,0.077,0.201,0.136,0.279c0.059,0.078,0.13,0.139,0.212,0.181c0.083,0.043,0.174,0.064,0.272,0.064
				c0.098,0,0.188-0.021,0.271-0.064c0.082-0.042,0.153-0.103,0.212-0.181c0.059-0.078,0.104-0.17,0.136-0.279
				c0.032-0.108,0.048-0.229,0.048-0.362c0-0.133-0.016-0.255-0.048-0.365c-0.031-0.109-0.077-0.204-0.136-0.283
				c-0.059-0.08-0.13-0.141-0.212-0.184c-0.083-0.043-0.174-0.064-0.271-0.064c-0.099,0-0.189,0.021-0.272,0.064
				c-0.082,0.043-0.153,0.104-0.212,0.184c-0.059,0.079-0.104,0.174-0.136,0.283C156.267,60.395,156.251,60.517,156.251,60.65z"/>
			<path fill="#92BFBF" d="M158.42,61.203c0-0.254,0.114-0.449,0.341-0.584c0.228-0.135,0.589-0.229,1.085-0.284
				c0-0.073-0.007-0.145-0.021-0.214s-0.04-0.132-0.076-0.186c-0.037-0.054-0.085-0.098-0.146-0.131
				c-0.061-0.033-0.139-0.05-0.233-0.05c-0.137,0-0.264,0.025-0.379,0.076c-0.116,0.051-0.221,0.108-0.313,0.172l-0.157-0.272
				c0.107-0.07,0.24-0.137,0.396-0.203c0.155-0.065,0.327-0.098,0.515-0.098c0.283,0,0.488,0.086,0.615,0.26s0.19,0.404,0.19,0.694
				v1.42h-0.324l-0.033-0.276h-0.01c-0.111,0.092-0.23,0.171-0.359,0.236s-0.265,0.098-0.408,0.098
				c-0.196,0-0.359-0.057-0.488-0.171C158.484,61.575,158.42,61.413,158.42,61.203z M158.807,61.174
				c0,0.134,0.039,0.229,0.116,0.286c0.078,0.057,0.175,0.086,0.289,0.086c0.111,0,0.217-0.026,0.316-0.079
				c0.101-0.053,0.206-0.129,0.317-0.231v-0.644c-0.194,0.025-0.357,0.056-0.491,0.091c-0.134,0.035-0.24,0.076-0.321,0.124
				c-0.081,0.048-0.14,0.103-0.175,0.165C158.824,61.034,158.807,61.102,158.807,61.174z"/>
			<path fill="#92BFBF" d="M161.042,59.806h-0.344v-0.295l0.362-0.024l0.048-0.648h0.329v0.648h0.625v0.319h-0.625v1.287
				c0,0.143,0.026,0.253,0.079,0.332c0.052,0.078,0.145,0.117,0.278,0.117c0.041,0,0.086-0.006,0.134-0.019s0.091-0.027,0.129-0.043
				l0.076,0.295c-0.063,0.022-0.133,0.042-0.208,0.06c-0.074,0.018-0.148,0.026-0.222,0.026c-0.123,0-0.228-0.019-0.312-0.057
				c-0.085-0.038-0.153-0.091-0.205-0.157c-0.053-0.067-0.09-0.148-0.112-0.243s-0.033-0.2-0.033-0.314V59.806z"/>
			<path fill="#FFFFFF" d="M162.572,59.844c0-0.092,0.028-0.166,0.083-0.222c0.056-0.055,0.124-0.083,0.203-0.083
				c0.076,0,0.143,0.028,0.198,0.083c0.055,0.056,0.083,0.13,0.083,0.222c0,0.086-0.028,0.157-0.083,0.212
				c-0.056,0.056-0.122,0.083-0.198,0.083c-0.079,0-0.147-0.028-0.203-0.083C162.601,60.001,162.572,59.93,162.572,59.844z
				 M162.572,61.565c0-0.092,0.028-0.166,0.083-0.222c0.056-0.056,0.124-0.083,0.203-0.083c0.076,0,0.143,0.028,0.198,0.083
				c0.055,0.056,0.083,0.129,0.083,0.222c0,0.086-0.028,0.157-0.083,0.212c-0.056,0.056-0.122,0.083-0.198,0.083
				c-0.079,0-0.147-0.028-0.203-0.083C162.601,61.722,162.572,61.651,162.572,61.565z"/>
			<path fill="#FFE88C" d="M164.804,58.41h0.391v2.956c0,0.063,0.011,0.108,0.033,0.133s0.048,0.038,0.076,0.038
				c0.013,0,0.024,0,0.036,0c0.011,0,0.027-0.003,0.05-0.009l0.053,0.295c-0.025,0.013-0.056,0.022-0.091,0.029
				s-0.079,0.009-0.134,0.009c-0.149,0-0.256-0.044-0.319-0.133s-0.095-0.219-0.095-0.391V58.41z"/>
			<path fill="#FFE88C" d="M165.847,60.65c0-0.19,0.029-0.361,0.089-0.512c0.059-0.151,0.137-0.279,0.233-0.384
				s0.207-0.185,0.331-0.241s0.253-0.083,0.386-0.083c0.146,0,0.277,0.025,0.394,0.076s0.213,0.124,0.291,0.219
				c0.078,0.096,0.138,0.21,0.179,0.343c0.041,0.134,0.063,0.283,0.063,0.448c0,0.086-0.005,0.157-0.015,0.214h-1.563
				c0.016,0.251,0.093,0.45,0.23,0.596c0.139,0.146,0.319,0.219,0.542,0.219c0.11,0,0.213-0.017,0.307-0.05
				c0.094-0.033,0.184-0.077,0.27-0.131l0.139,0.257c-0.102,0.063-0.215,0.119-0.339,0.167c-0.124,0.047-0.266,0.071-0.424,0.071
				c-0.156,0-0.302-0.028-0.437-0.083c-0.135-0.055-0.253-0.135-0.353-0.238c-0.101-0.103-0.179-0.229-0.236-0.379
				C165.876,61.011,165.847,60.841,165.847,60.65z M167.468,60.474c0-0.238-0.05-0.42-0.15-0.546c-0.1-0.125-0.24-0.188-0.422-0.188
				c-0.082,0-0.161,0.017-0.235,0.05c-0.075,0.033-0.143,0.081-0.203,0.143s-0.11,0.138-0.15,0.229
				c-0.039,0.09-0.065,0.194-0.078,0.312H167.468z"/>
			<path fill="#FFE88C" d="M170.762,61.775c-0.063,0.022-0.132,0.042-0.207,0.06c-0.074,0.018-0.148,0.026-0.222,0.026
				c-0.124,0-0.228-0.019-0.313-0.057c-0.084-0.038-0.152-0.091-0.205-0.157c-0.052-0.067-0.09-0.148-0.111-0.243
				c-0.022-0.095-0.033-0.2-0.033-0.314v-1.283h-0.83v1.998h-0.391v-1.998h-0.314v-0.295l0.314-0.024V59.12
				c0-0.238,0.055-0.426,0.164-0.563c0.11-0.136,0.28-0.205,0.513-0.205c0.073,0,0.143,0.007,0.207,0.021
				c0.065,0.015,0.125,0.033,0.179,0.055l-0.085,0.3c-0.086-0.038-0.174-0.057-0.263-0.057c-0.216,0-0.324,0.149-0.324,0.448v0.367
				h0.849l0.048-0.648h0.324v0.648h0.629v0.319h-0.629v1.287c0,0.143,0.026,0.253,0.081,0.332c0.054,0.078,0.147,0.117,0.281,0.117
				c0.041,0,0.086-0.006,0.134-0.019c0.047-0.013,0.09-0.027,0.128-0.043L170.762,61.775z"/>
			<path fill="#FFE88C" d="M171.115,62.385c0.133-0.061,0.238-0.14,0.314-0.238s0.114-0.213,0.114-0.343
				c-0.01,0.003-0.025,0.005-0.048,0.005c-0.076,0-0.142-0.023-0.197-0.069c-0.056-0.046-0.084-0.113-0.084-0.203
				c0-0.085,0.028-0.153,0.086-0.203s0.126-0.074,0.205-0.074c0.102,0,0.182,0.042,0.24,0.124c0.06,0.083,0.089,0.195,0.089,0.338
				c0,0.207-0.056,0.386-0.167,0.539c-0.111,0.153-0.264,0.27-0.458,0.353L171.115,62.385z M171.201,59.844
				c0-0.092,0.027-0.166,0.083-0.222c0.056-0.055,0.123-0.083,0.202-0.083c0.077,0,0.143,0.028,0.198,0.083
				c0.056,0.056,0.083,0.13,0.083,0.222c0,0.086-0.027,0.157-0.083,0.212s-0.121,0.083-0.198,0.083
				c-0.079,0-0.146-0.028-0.202-0.083S171.201,59.93,171.201,59.844z"/>
			<path fill="#92BFBF" d="M153.238,66.518c0-0.194,0.03-0.366,0.091-0.517c0.06-0.151,0.141-0.279,0.243-0.384
				c0.102-0.105,0.22-0.184,0.354-0.238s0.277-0.081,0.427-0.081c0.152,0,0.284,0.028,0.394,0.083s0.204,0.12,0.283,0.193
				l-0.195,0.253c-0.069-0.061-0.143-0.11-0.217-0.148s-0.158-0.057-0.25-0.057c-0.105,0-0.202,0.021-0.291,0.064
				s-0.165,0.104-0.229,0.184c-0.063,0.079-0.114,0.174-0.15,0.283c-0.037,0.11-0.055,0.231-0.055,0.365
				c0,0.134,0.018,0.254,0.052,0.362c0.035,0.108,0.084,0.201,0.146,0.279c0.063,0.078,0.138,0.139,0.227,0.181
				c0.089,0.043,0.187,0.064,0.291,0.064c0.111,0,0.212-0.023,0.303-0.069c0.091-0.046,0.171-0.101,0.24-0.165l0.177,0.257
				c-0.104,0.092-0.222,0.166-0.351,0.219c-0.129,0.054-0.263,0.081-0.402,0.081c-0.152,0-0.296-0.027-0.43-0.081
				c-0.133-0.054-0.248-0.133-0.345-0.236c-0.098-0.104-0.174-0.23-0.229-0.381S153.238,66.708,153.238,66.518z"/>
			<path fill="#92BFBF" d="M155.312,66.518c0-0.194,0.029-0.366,0.089-0.517c0.059-0.151,0.137-0.279,0.235-0.384
				s0.212-0.184,0.341-0.238s0.265-0.081,0.408-0.081c0.143,0,0.278,0.027,0.407,0.081s0.242,0.133,0.341,0.238
				s0.177,0.233,0.236,0.384c0.059,0.151,0.088,0.323,0.088,0.517c0,0.191-0.029,0.362-0.088,0.513
				c-0.06,0.151-0.138,0.278-0.236,0.381c-0.099,0.103-0.212,0.182-0.341,0.236c-0.129,0.054-0.265,0.081-0.407,0.081
				c-0.144,0-0.279-0.027-0.408-0.081c-0.129-0.054-0.242-0.133-0.341-0.236c-0.099-0.104-0.177-0.23-0.235-0.381
				C155.341,66.879,155.312,66.708,155.312,66.518z M155.717,66.518c0,0.134,0.016,0.254,0.048,0.362
				c0.032,0.108,0.077,0.201,0.136,0.279c0.059,0.078,0.13,0.139,0.212,0.181c0.083,0.043,0.174,0.064,0.272,0.064
				c0.098,0,0.188-0.021,0.271-0.064c0.082-0.042,0.153-0.103,0.212-0.181c0.059-0.078,0.104-0.17,0.136-0.279
				c0.032-0.108,0.048-0.229,0.048-0.362c0-0.133-0.016-0.255-0.048-0.365c-0.031-0.109-0.077-0.204-0.136-0.283
				c-0.059-0.08-0.13-0.141-0.212-0.184c-0.083-0.043-0.174-0.064-0.271-0.064c-0.099,0-0.189,0.021-0.272,0.064
				c-0.082,0.043-0.153,0.104-0.212,0.184c-0.059,0.079-0.104,0.174-0.136,0.283C155.732,66.263,155.717,66.384,155.717,66.518z"/>
			<path fill="#92BFBF" d="M158.067,64.277h0.391v2.956c0,0.063,0.012,0.108,0.034,0.133c0.021,0.025,0.047,0.038,0.076,0.038
				c0.013,0,0.024,0,0.035,0c0.012,0,0.028-0.003,0.05-0.009l0.053,0.295c-0.025,0.013-0.056,0.022-0.091,0.029
				c-0.034,0.006-0.079,0.009-0.133,0.009c-0.149,0-0.256-0.044-0.319-0.133s-0.096-0.219-0.096-0.391V64.277z"/>
			<path fill="#92BFBF" d="M159.111,66.518c0-0.194,0.029-0.366,0.088-0.517s0.138-0.279,0.236-0.384s0.212-0.184,0.341-0.238
				s0.265-0.081,0.407-0.081c0.144,0,0.279,0.027,0.408,0.081c0.128,0.054,0.242,0.133,0.341,0.238
				c0.098,0.105,0.177,0.233,0.235,0.384s0.089,0.323,0.089,0.517c0,0.191-0.03,0.362-0.089,0.513s-0.138,0.278-0.235,0.381
				c-0.099,0.103-0.213,0.182-0.341,0.236c-0.129,0.054-0.265,0.081-0.408,0.081c-0.143,0-0.278-0.027-0.407-0.081
				c-0.129-0.054-0.242-0.133-0.341-0.236c-0.099-0.104-0.178-0.23-0.236-0.381S159.111,66.708,159.111,66.518z M159.517,66.518
				c0,0.134,0.016,0.254,0.048,0.362c0.031,0.108,0.076,0.201,0.136,0.279c0.059,0.078,0.129,0.139,0.212,0.181
				c0.082,0.043,0.173,0.064,0.271,0.064s0.189-0.021,0.271-0.064c0.083-0.042,0.153-0.103,0.213-0.181
				c0.059-0.078,0.104-0.17,0.136-0.279c0.031-0.108,0.048-0.229,0.048-0.362c0-0.133-0.017-0.255-0.048-0.365
				c-0.032-0.109-0.077-0.204-0.136-0.283c-0.06-0.08-0.13-0.141-0.213-0.184c-0.082-0.043-0.173-0.064-0.271-0.064
				s-0.189,0.021-0.271,0.064c-0.083,0.043-0.153,0.104-0.212,0.184c-0.06,0.079-0.104,0.174-0.136,0.283
				C159.532,66.263,159.517,66.384,159.517,66.518z"/>
			<path fill="#92BFBF" d="M161.867,65.354h0.323l0.034,0.419h0.014c0.08-0.146,0.176-0.262,0.289-0.348
				c0.112-0.086,0.235-0.129,0.369-0.129c0.092,0,0.175,0.016,0.248,0.048l-0.076,0.343c-0.038-0.013-0.073-0.022-0.105-0.029
				c-0.031-0.006-0.071-0.01-0.119-0.01c-0.099,0-0.201,0.04-0.308,0.119c-0.106,0.08-0.199,0.218-0.278,0.415v1.487h-0.391V65.354z
				"/>
			<path fill="#FFFFFF" d="M163.44,65.712c0-0.092,0.027-0.166,0.083-0.222c0.056-0.055,0.123-0.083,0.202-0.083
				c0.077,0,0.143,0.028,0.198,0.083c0.056,0.056,0.083,0.13,0.083,0.222c0,0.086-0.027,0.157-0.083,0.212s-0.121,0.083-0.198,0.083
				c-0.079,0-0.146-0.028-0.202-0.083S163.44,65.798,163.44,65.712z M163.44,67.433c0-0.092,0.027-0.166,0.083-0.222
				s0.123-0.083,0.202-0.083c0.077,0,0.143,0.028,0.198,0.083s0.083,0.129,0.083,0.222c0,0.086-0.027,0.157-0.083,0.212
				c-0.056,0.056-0.121,0.083-0.198,0.083c-0.079,0-0.146-0.028-0.202-0.083C163.468,67.59,163.44,67.519,163.44,67.433z"/>
			<path fill="#FFE88C" d="M167.092,65.173c-0.089-0.086-0.176-0.152-0.26-0.2c-0.085-0.048-0.191-0.071-0.322-0.071
				c-0.146,0-0.262,0.041-0.348,0.124c-0.086,0.083-0.129,0.194-0.129,0.334c0,0.114,0.032,0.208,0.098,0.281
				s0.147,0.137,0.246,0.193c0.098,0.056,0.205,0.11,0.321,0.162c0.116,0.053,0.224,0.116,0.322,0.191
				c0.098,0.075,0.18,0.167,0.245,0.276s0.098,0.25,0.098,0.422c0,0.229-0.066,0.417-0.198,0.563
				c-0.132,0.146-0.312,0.235-0.541,0.267v0.481h-0.286v-0.472c-0.152-0.016-0.3-0.058-0.443-0.126
				c-0.143-0.068-0.265-0.149-0.366-0.241l0.181-0.272c0.102,0.089,0.214,0.165,0.336,0.227s0.257,0.093,0.403,0.093
				c0.178,0,0.311-0.044,0.397-0.133c0.088-0.089,0.132-0.208,0.132-0.357c0-0.127-0.033-0.233-0.098-0.317
				c-0.065-0.084-0.147-0.157-0.246-0.219s-0.206-0.12-0.321-0.174c-0.116-0.054-0.224-0.116-0.322-0.186s-0.181-0.155-0.245-0.255
				c-0.065-0.1-0.098-0.228-0.098-0.384c0-0.213,0.063-0.39,0.188-0.532c0.126-0.141,0.294-0.229,0.503-0.265v-0.477h0.286v0.472
				c0.153,0.016,0.282,0.057,0.389,0.124c0.106,0.066,0.203,0.146,0.289,0.238L167.092,65.173z"/>
			<path fill="#FFE88C" d="M168.431,67.867v0.782h-0.391v-3.294h0.324l0.033,0.267h0.015c0.104-0.089,0.22-0.166,0.346-0.229
				c0.125-0.063,0.256-0.095,0.393-0.095c0.149,0,0.281,0.028,0.396,0.083c0.114,0.056,0.209,0.135,0.286,0.238
				c0.076,0.104,0.134,0.227,0.174,0.372c0.039,0.145,0.06,0.308,0.06,0.489c0,0.197-0.027,0.373-0.081,0.527
				c-0.055,0.154-0.127,0.285-0.22,0.393c-0.092,0.108-0.198,0.19-0.319,0.246c-0.121,0.056-0.248,0.083-0.381,0.083
				c-0.108,0-0.216-0.024-0.322-0.071c-0.106-0.048-0.214-0.113-0.321-0.196L168.431,67.867z M168.431,67.157
				c0.105,0.089,0.207,0.151,0.306,0.188s0.186,0.055,0.262,0.055c0.096,0,0.184-0.021,0.265-0.064s0.151-0.104,0.21-0.181
				c0.059-0.078,0.104-0.174,0.139-0.289c0.033-0.114,0.05-0.243,0.05-0.386c0-0.127-0.012-0.243-0.033-0.348
				c-0.022-0.104-0.059-0.194-0.107-0.269c-0.05-0.075-0.113-0.133-0.19-0.174c-0.078-0.042-0.171-0.062-0.279-0.062
				c-0.099,0-0.198,0.027-0.298,0.081c-0.101,0.054-0.208,0.132-0.322,0.233V67.157z"/>
			<path fill="#FFE88C" d="M170.686,65.354h0.324l0.033,0.419h0.015c0.079-0.146,0.176-0.262,0.288-0.348
				c0.113-0.086,0.236-0.129,0.369-0.129c0.093,0,0.175,0.016,0.248,0.048l-0.076,0.343c-0.038-0.013-0.073-0.022-0.104-0.029
				c-0.032-0.006-0.071-0.01-0.119-0.01c-0.099,0-0.201,0.04-0.308,0.119c-0.106,0.08-0.199,0.218-0.279,0.415v1.487h-0.391V65.354z
				"/>
			<path fill="#FFE88C" d="M172.54,64.878c-0.076,0-0.141-0.024-0.193-0.072c-0.052-0.047-0.078-0.108-0.078-0.181
				c0-0.076,0.026-0.137,0.078-0.184c0.053-0.046,0.117-0.069,0.193-0.069s0.141,0.023,0.193,0.069
				c0.052,0.046,0.078,0.107,0.078,0.184c0,0.073-0.026,0.134-0.078,0.181C172.681,64.854,172.616,64.878,172.54,64.878z
				 M172.34,65.354h0.391v2.317h-0.391V65.354z"/>
			<path fill="#FFE88C" d="M173.513,65.354h0.324l0.033,0.334h0.015c0.102-0.111,0.212-0.205,0.331-0.279
				c0.119-0.074,0.249-0.112,0.389-0.112c0.178,0,0.317,0.039,0.417,0.117c0.101,0.078,0.174,0.187,0.222,0.327
				c0.121-0.133,0.242-0.241,0.364-0.322c0.123-0.081,0.256-0.122,0.398-0.122c0.238,0,0.416,0.076,0.531,0.229
				c0.116,0.152,0.175,0.378,0.175,0.677v1.468h-0.392v-1.416c0-0.219-0.035-0.377-0.104-0.474c-0.07-0.097-0.178-0.146-0.324-0.146
				c-0.175,0-0.369,0.119-0.582,0.357v1.678h-0.391v-1.416c0-0.219-0.035-0.377-0.104-0.474c-0.07-0.097-0.18-0.146-0.329-0.146
				c-0.175,0-0.369,0.119-0.582,0.357v1.678h-0.391V65.354z"/>
			<path fill="#FFE88C" d="M177.35,67.071c0-0.254,0.114-0.449,0.341-0.584c0.228-0.135,0.589-0.229,1.085-0.284
				c0-0.073-0.007-0.145-0.021-0.214s-0.04-0.132-0.076-0.186c-0.037-0.054-0.085-0.098-0.146-0.131
				c-0.061-0.033-0.139-0.05-0.233-0.05c-0.137,0-0.264,0.025-0.379,0.076c-0.116,0.051-0.221,0.108-0.313,0.172l-0.157-0.272
				c0.107-0.07,0.24-0.137,0.396-0.203c0.155-0.065,0.327-0.098,0.515-0.098c0.283,0,0.488,0.086,0.615,0.26s0.19,0.404,0.19,0.694
				v1.42h-0.324l-0.033-0.276h-0.01c-0.111,0.092-0.23,0.171-0.359,0.236s-0.265,0.098-0.408,0.098
				c-0.196,0-0.359-0.057-0.488-0.171C177.414,67.442,177.35,67.28,177.35,67.071z M177.736,67.042c0,0.134,0.039,0.229,0.116,0.286
				c0.078,0.057,0.175,0.086,0.289,0.086c0.111,0,0.217-0.026,0.316-0.079c0.101-0.053,0.206-0.129,0.317-0.231V66.46
				c-0.194,0.025-0.357,0.056-0.491,0.091c-0.134,0.035-0.24,0.076-0.321,0.124c-0.081,0.048-0.14,0.103-0.175,0.165
				C177.754,66.901,177.736,66.969,177.736,67.042z"/>
			<path fill="#FFE88C" d="M179.905,65.354h0.324l0.033,0.419h0.015c0.079-0.146,0.176-0.262,0.288-0.348
				c0.113-0.086,0.236-0.129,0.369-0.129c0.093,0,0.175,0.016,0.248,0.048l-0.076,0.343c-0.038-0.013-0.073-0.022-0.104-0.029
				c-0.032-0.006-0.071-0.01-0.119-0.01c-0.099,0-0.201,0.04-0.308,0.119c-0.106,0.08-0.199,0.218-0.279,0.415v1.487h-0.391V65.354z
				"/>
			<path fill="#FFE88C" d="M181.578,68.332c0.032,0.008,0.063,0.012,0.091,0.012c0.134,0,0.242-0.047,0.326-0.141
				c0.085-0.094,0.15-0.212,0.198-0.355l0.053-0.171l-0.93-2.322h0.405l0.472,1.282c0.035,0.102,0.072,0.209,0.112,0.322
				c0.039,0.113,0.077,0.224,0.111,0.332h0.02c0.035-0.105,0.068-0.214,0.101-0.329c0.031-0.114,0.063-0.222,0.095-0.324
				l0.415-1.282h0.381l-0.872,2.508c-0.041,0.114-0.088,0.221-0.139,0.319c-0.051,0.098-0.11,0.184-0.181,0.255
				s-0.149,0.128-0.238,0.169c-0.089,0.041-0.192,0.062-0.31,0.062c-0.055,0-0.104-0.004-0.148-0.012
				c-0.044-0.008-0.086-0.02-0.124-0.036l0.076-0.31C181.518,68.316,181.547,68.324,181.578,68.332z"/>
			<path fill="#FFFFFF" d="M183.709,68.253c0.134-0.061,0.238-0.14,0.314-0.238s0.115-0.213,0.115-0.343
				c-0.01,0.003-0.026,0.005-0.048,0.005c-0.076,0-0.143-0.023-0.198-0.069c-0.056-0.046-0.083-0.113-0.083-0.203
				c0-0.085,0.028-0.153,0.086-0.203c0.057-0.049,0.125-0.074,0.204-0.074c0.103,0,0.183,0.042,0.241,0.124s0.088,0.195,0.088,0.338
				c0,0.207-0.056,0.386-0.167,0.539c-0.111,0.153-0.264,0.27-0.457,0.353L183.709,68.253z M183.795,65.712
				c0-0.092,0.028-0.166,0.083-0.222c0.056-0.055,0.124-0.083,0.203-0.083c0.076,0,0.143,0.028,0.198,0.083
				c0.055,0.056,0.083,0.13,0.083,0.222c0,0.086-0.028,0.157-0.083,0.212c-0.056,0.056-0.122,0.083-0.198,0.083
				c-0.079,0-0.147-0.028-0.203-0.083C183.823,65.869,183.795,65.798,183.795,65.712z"/>
			<path fill="#F48A46" d="M153.262,72.571c0-0.318,0.054-0.607,0.16-0.868c0.106-0.26,0.251-0.483,0.434-0.667
				c0.183-0.184,0.394-0.326,0.634-0.426s0.493-0.15,0.761-0.15c0.241,0,0.458,0.038,0.65,0.114
				c0.192,0.077,0.356,0.184,0.491,0.322s0.239,0.305,0.313,0.499s0.109,0.408,0.109,0.644c0,0.209-0.029,0.393-0.088,0.55
				c-0.06,0.157-0.135,0.29-0.227,0.396c-0.093,0.106-0.195,0.187-0.308,0.241c-0.113,0.054-0.224,0.081-0.331,0.081
				c-0.131,0-0.241-0.03-0.332-0.091c-0.09-0.06-0.144-0.151-0.159-0.271h-0.01c-0.079,0.092-0.17,0.169-0.271,0.231
				s-0.205,0.093-0.31,0.093c-0.162,0-0.299-0.057-0.408-0.171s-0.164-0.281-0.164-0.5c0-0.127,0.021-0.257,0.064-0.389
				s0.104-0.251,0.184-0.357c0.079-0.106,0.175-0.193,0.288-0.26c0.112-0.067,0.239-0.1,0.379-0.1c0.083,0,0.155,0.018,0.22,0.055
				c0.063,0.037,0.117,0.095,0.162,0.174h0.009l0.053-0.19h0.263l-0.187,0.954c-0.096,0.372-0.01,0.558,0.258,0.558
				c0.076,0,0.151-0.022,0.227-0.067c0.074-0.044,0.143-0.109,0.205-0.193c0.062-0.084,0.111-0.188,0.149-0.31
				c0.038-0.122,0.058-0.261,0.058-0.417c0-0.191-0.028-0.368-0.084-0.532c-0.056-0.164-0.139-0.304-0.25-0.422
				c-0.111-0.117-0.249-0.209-0.415-0.276c-0.165-0.067-0.355-0.1-0.571-0.1c-0.213,0-0.42,0.044-0.62,0.131
				c-0.2,0.088-0.378,0.211-0.534,0.37c-0.155,0.159-0.28,0.351-0.374,0.577c-0.094,0.226-0.141,0.479-0.141,0.758
				c0,0.232,0.036,0.438,0.107,0.62s0.171,0.333,0.298,0.458s0.277,0.219,0.45,0.284c0.174,0.065,0.362,0.098,0.565,0.098
				c0.146,0,0.284-0.02,0.415-0.06c0.13-0.04,0.249-0.091,0.357-0.155l0.104,0.233c-0.271,0.162-0.572,0.243-0.905,0.243
				c-0.235,0-0.455-0.037-0.658-0.109c-0.203-0.073-0.381-0.182-0.531-0.327c-0.151-0.145-0.271-0.323-0.358-0.536
				C153.306,73.092,153.262,72.847,153.262,72.571z M154.521,72.571c0,0.152,0.031,0.262,0.096,0.329
				c0.063,0.066,0.143,0.1,0.238,0.1c0.066,0,0.136-0.022,0.207-0.067s0.148-0.116,0.231-0.214l0.138-0.758
				c-0.044-0.073-0.09-0.125-0.138-0.155s-0.104-0.045-0.167-0.045c-0.096,0-0.181,0.026-0.255,0.077
				c-0.075,0.051-0.139,0.116-0.191,0.195c-0.052,0.08-0.092,0.167-0.119,0.262C154.534,72.39,154.521,72.482,154.521,72.571z"/>
			<path fill="#F48A46" d="M157.648,70.745c-0.077,0-0.141-0.024-0.193-0.072c-0.053-0.047-0.079-0.108-0.079-0.181
				c0-0.076,0.026-0.137,0.079-0.184c0.053-0.046,0.116-0.069,0.193-0.069c0.076,0,0.141,0.023,0.192,0.069
				c0.053,0.046,0.079,0.107,0.079,0.184c0,0.073-0.026,0.134-0.079,0.181C157.789,70.721,157.725,70.745,157.648,70.745z
				 M157.448,71.222h0.391v2.317h-0.391V71.222z"/>
			<path fill="#F48A46" d="M158.62,71.222h0.324l0.033,0.334h0.015c0.111-0.111,0.228-0.205,0.351-0.279
				c0.122-0.074,0.265-0.112,0.427-0.112c0.244,0,0.423,0.076,0.536,0.229c0.112,0.152,0.169,0.378,0.169,0.677v1.468h-0.391v-1.416
				c0-0.219-0.035-0.377-0.105-0.474c-0.069-0.097-0.181-0.146-0.333-0.146c-0.121,0-0.228,0.03-0.319,0.091
				c-0.093,0.06-0.197,0.149-0.315,0.267v1.678h-0.391V71.222z"/>
			<path fill="#F48A46" d="M161.057,72.385c0-0.194,0.03-0.366,0.091-0.517c0.06-0.151,0.141-0.279,0.243-0.384
				c0.102-0.105,0.22-0.184,0.354-0.238s0.277-0.081,0.427-0.081c0.152,0,0.284,0.028,0.394,0.083s0.204,0.12,0.283,0.193
				l-0.195,0.253c-0.069-0.061-0.143-0.11-0.217-0.148s-0.158-0.057-0.25-0.057c-0.105,0-0.202,0.021-0.291,0.064
				s-0.165,0.104-0.229,0.184c-0.063,0.079-0.114,0.174-0.15,0.283c-0.037,0.11-0.055,0.231-0.055,0.365
				c0,0.134,0.018,0.254,0.052,0.362c0.035,0.108,0.084,0.201,0.146,0.279c0.063,0.078,0.138,0.139,0.227,0.181
				c0.089,0.043,0.187,0.064,0.291,0.064c0.111,0,0.212-0.023,0.303-0.069c0.091-0.046,0.171-0.101,0.24-0.165l0.177,0.257
				c-0.104,0.092-0.222,0.166-0.351,0.219c-0.129,0.054-0.263,0.081-0.402,0.081c-0.152,0-0.296-0.027-0.43-0.081
				c-0.133-0.054-0.248-0.133-0.345-0.236c-0.098-0.104-0.174-0.23-0.229-0.381S161.057,72.576,161.057,72.385z"/>
			<path fill="#F48A46" d="M163.402,70.145h0.391V73.1c0,0.063,0.011,0.108,0.033,0.133s0.048,0.038,0.076,0.038
				c0.013,0,0.024,0,0.036,0c0.011,0,0.027-0.003,0.05-0.009l0.053,0.295c-0.025,0.013-0.056,0.022-0.091,0.029
				s-0.079,0.009-0.134,0.009c-0.149,0-0.256-0.044-0.319-0.133s-0.095-0.219-0.095-0.391V70.145z"/>
			<path fill="#F48A46" d="M164.584,71.222h0.396v1.416c0,0.219,0.034,0.377,0.103,0.474c0.068,0.097,0.179,0.146,0.331,0.146
				c0.121,0,0.228-0.031,0.319-0.093c0.093-0.062,0.194-0.162,0.306-0.298v-1.645h0.391v2.317h-0.324l-0.033-0.362h-0.015
				c-0.107,0.127-0.222,0.229-0.341,0.305s-0.26,0.114-0.422,0.114c-0.248,0-0.428-0.076-0.541-0.229
				c-0.112-0.153-0.169-0.378-0.169-0.677V71.222z"/>
			<path fill="#F48A46" d="M167.044,72.385c0-0.188,0.027-0.356,0.083-0.507c0.056-0.151,0.13-0.279,0.222-0.384
				c0.092-0.105,0.198-0.186,0.319-0.243s0.248-0.086,0.382-0.086c0.133,0,0.249,0.024,0.348,0.071
				c0.099,0.048,0.198,0.113,0.301,0.196l-0.02-0.396v-0.891h0.396v3.394h-0.324l-0.033-0.272h-0.015
				c-0.092,0.089-0.197,0.167-0.316,0.231s-0.247,0.098-0.384,0.098c-0.293,0-0.525-0.105-0.698-0.314
				C167.13,73.071,167.044,72.772,167.044,72.385z M167.449,72.38c0,0.279,0.056,0.497,0.166,0.653
				c0.111,0.156,0.269,0.233,0.473,0.233c0.107,0,0.21-0.026,0.305-0.079c0.096-0.052,0.19-0.132,0.286-0.241v-1.21
				c-0.099-0.089-0.193-0.152-0.283-0.188c-0.091-0.037-0.184-0.055-0.279-0.055c-0.092,0-0.179,0.021-0.26,0.064
				c-0.081,0.043-0.151,0.104-0.212,0.181c-0.061,0.078-0.108,0.171-0.144,0.279C167.466,72.126,167.449,72.247,167.449,72.38z"/>
			<path fill="#F48A46" d="M169.685,72.385c0-0.19,0.029-0.361,0.089-0.512c0.059-0.151,0.137-0.279,0.233-0.384
				s0.207-0.185,0.331-0.241s0.253-0.083,0.386-0.083c0.146,0,0.277,0.025,0.394,0.076s0.213,0.124,0.291,0.219
				c0.078,0.096,0.138,0.21,0.179,0.343c0.041,0.134,0.063,0.283,0.063,0.448c0,0.086-0.005,0.157-0.015,0.214h-1.563
				c0.016,0.251,0.093,0.45,0.23,0.596c0.139,0.146,0.319,0.219,0.542,0.219c0.11,0,0.213-0.017,0.307-0.05
				c0.094-0.033,0.184-0.077,0.27-0.131l0.139,0.257c-0.102,0.063-0.215,0.119-0.339,0.167c-0.124,0.047-0.266,0.071-0.424,0.071
				c-0.156,0-0.302-0.028-0.437-0.083c-0.135-0.055-0.253-0.135-0.353-0.238c-0.101-0.103-0.179-0.229-0.236-0.379
				C169.714,72.746,169.685,72.576,169.685,72.385z M171.306,72.208c0-0.238-0.05-0.42-0.15-0.546
				c-0.1-0.125-0.24-0.188-0.422-0.188c-0.082,0-0.161,0.017-0.235,0.05c-0.075,0.033-0.143,0.081-0.203,0.143
				s-0.11,0.138-0.15,0.229c-0.039,0.09-0.065,0.194-0.078,0.312H171.306z"/>
			<path fill="#F48A46" d="M173.574,73.734v0.782h-0.391v-3.294h0.324l0.033,0.267h0.015c0.104-0.089,0.22-0.166,0.346-0.229
				c0.125-0.063,0.256-0.095,0.393-0.095c0.149,0,0.281,0.028,0.396,0.083c0.114,0.056,0.209,0.135,0.286,0.238
				c0.076,0.104,0.134,0.227,0.174,0.372c0.039,0.145,0.06,0.308,0.06,0.489c0,0.197-0.027,0.373-0.081,0.527
				c-0.055,0.154-0.127,0.285-0.22,0.393c-0.092,0.108-0.198,0.19-0.319,0.246c-0.121,0.056-0.248,0.083-0.381,0.083
				c-0.108,0-0.216-0.024-0.322-0.071c-0.106-0.048-0.214-0.113-0.321-0.196L173.574,73.734z M173.574,73.024
				c0.105,0.089,0.207,0.151,0.306,0.188s0.186,0.055,0.262,0.055c0.096,0,0.184-0.021,0.265-0.064s0.151-0.104,0.21-0.181
				c0.059-0.078,0.104-0.174,0.139-0.289c0.033-0.114,0.05-0.243,0.05-0.386c0-0.127-0.012-0.243-0.033-0.348
				c-0.022-0.104-0.059-0.194-0.107-0.269c-0.05-0.075-0.113-0.133-0.19-0.174c-0.078-0.042-0.171-0.062-0.279-0.062
				c-0.099,0-0.198,0.027-0.298,0.081c-0.101,0.054-0.208,0.132-0.322,0.233V73.024z"/>
			<path fill="#F48A46" d="M175.648,72.938c0-0.254,0.113-0.449,0.341-0.584s0.589-0.229,1.084-0.284
				c0-0.073-0.007-0.145-0.021-0.214c-0.015-0.07-0.04-0.132-0.077-0.186c-0.036-0.054-0.085-0.098-0.145-0.131
				c-0.061-0.033-0.139-0.05-0.234-0.05c-0.137,0-0.263,0.025-0.379,0.076s-0.22,0.108-0.313,0.172l-0.157-0.272
				c0.108-0.07,0.24-0.137,0.396-0.203c0.155-0.065,0.327-0.098,0.515-0.098c0.282,0,0.487,0.086,0.615,0.26
				c0.127,0.173,0.19,0.404,0.19,0.694v1.42h-0.324l-0.033-0.276h-0.01c-0.111,0.092-0.231,0.171-0.36,0.236
				c-0.128,0.065-0.265,0.098-0.407,0.098c-0.197,0-0.36-0.057-0.488-0.171C175.713,73.31,175.648,73.147,175.648,72.938z
				 M176.034,72.909c0,0.134,0.039,0.229,0.117,0.286s0.174,0.086,0.288,0.086c0.111,0,0.217-0.026,0.317-0.079
				c0.1-0.053,0.206-0.129,0.316-0.231v-0.644c-0.193,0.025-0.357,0.056-0.49,0.091c-0.134,0.035-0.241,0.076-0.322,0.124
				c-0.081,0.048-0.139,0.103-0.174,0.165S176.034,72.836,176.034,72.909z"/>
			<path fill="#F48A46" d="M178.037,72.385c0-0.188,0.027-0.356,0.083-0.507c0.056-0.151,0.13-0.279,0.222-0.384
				c0.092-0.105,0.198-0.186,0.319-0.243s0.248-0.086,0.382-0.086c0.133,0,0.249,0.024,0.348,0.071
				c0.099,0.048,0.198,0.113,0.301,0.196l-0.02-0.396v-0.891h0.396v3.394h-0.324l-0.033-0.272h-0.015
				c-0.092,0.089-0.197,0.167-0.316,0.231s-0.247,0.098-0.384,0.098c-0.293,0-0.525-0.105-0.698-0.314
				C178.123,73.071,178.037,72.772,178.037,72.385z M178.442,72.38c0,0.279,0.056,0.497,0.166,0.653
				c0.111,0.156,0.269,0.233,0.473,0.233c0.107,0,0.21-0.026,0.305-0.079c0.096-0.052,0.19-0.132,0.286-0.241v-1.21
				c-0.099-0.089-0.193-0.152-0.283-0.188c-0.091-0.037-0.184-0.055-0.279-0.055c-0.092,0-0.179,0.021-0.26,0.064
				c-0.081,0.043-0.151,0.104-0.212,0.181c-0.061,0.078-0.108,0.171-0.144,0.279C178.459,72.126,178.442,72.247,178.442,72.38z"/>
			<path fill="#F48A46" d="M180.683,72.385c0-0.188,0.027-0.356,0.083-0.507c0.056-0.151,0.13-0.279,0.222-0.384
				c0.092-0.105,0.198-0.186,0.319-0.243s0.248-0.086,0.382-0.086c0.133,0,0.249,0.024,0.348,0.071
				c0.099,0.048,0.198,0.113,0.301,0.196l-0.02-0.396v-0.891h0.396v3.394h-0.324l-0.033-0.272h-0.015
				c-0.092,0.089-0.197,0.167-0.316,0.231s-0.247,0.098-0.384,0.098c-0.293,0-0.525-0.105-0.698-0.314
				C180.769,73.071,180.683,72.772,180.683,72.385z M181.088,72.38c0,0.279,0.056,0.497,0.166,0.653
				c0.111,0.156,0.269,0.233,0.473,0.233c0.107,0,0.21-0.026,0.305-0.079c0.096-0.052,0.19-0.132,0.286-0.241v-1.21
				c-0.099-0.089-0.193-0.152-0.283-0.188c-0.091-0.037-0.184-0.055-0.279-0.055c-0.092,0-0.179,0.021-0.26,0.064
				c-0.081,0.043-0.151,0.104-0.212,0.181c-0.061,0.078-0.108,0.171-0.144,0.279C181.104,72.126,181.088,72.247,181.088,72.38z"/>
			<path fill="#F48A46" d="M183.695,70.745c-0.076,0-0.141-0.024-0.193-0.072c-0.052-0.047-0.078-0.108-0.078-0.181
				c0-0.076,0.026-0.137,0.078-0.184c0.053-0.046,0.117-0.069,0.193-0.069s0.141,0.023,0.193,0.069
				c0.052,0.046,0.078,0.107,0.078,0.184c0,0.073-0.026,0.134-0.078,0.181C183.836,70.721,183.771,70.745,183.695,70.745z
				 M183.495,71.222h0.391v2.317h-0.391V71.222z"/>
			<path fill="#F48A46" d="M184.668,71.222h0.323l0.034,0.334h0.014c0.111-0.111,0.229-0.205,0.351-0.279
				c0.122-0.074,0.265-0.112,0.427-0.112c0.245,0,0.424,0.076,0.536,0.229c0.113,0.152,0.169,0.378,0.169,0.677v1.468h-0.391v-1.416
				c0-0.219-0.035-0.377-0.104-0.474c-0.07-0.097-0.182-0.146-0.334-0.146c-0.121,0-0.228,0.03-0.319,0.091
				c-0.092,0.06-0.197,0.149-0.314,0.267v1.678h-0.391V71.222z"/>
			<path fill="#F48A46" d="M187.099,73.982c0-0.099,0.03-0.192,0.091-0.281s0.144-0.17,0.248-0.243v-0.019
				c-0.058-0.035-0.105-0.083-0.146-0.146s-0.06-0.139-0.06-0.231c0-0.099,0.027-0.185,0.081-0.258
				c0.054-0.073,0.111-0.13,0.172-0.171v-0.019c-0.076-0.063-0.146-0.148-0.208-0.255c-0.062-0.106-0.093-0.23-0.093-0.37
				c0-0.127,0.023-0.242,0.069-0.343s0.109-0.188,0.188-0.26c0.079-0.072,0.172-0.126,0.278-0.165s0.219-0.057,0.337-0.057
				c0.063,0,0.123,0.005,0.179,0.017s0.105,0.025,0.149,0.041h0.806v0.3h-0.477c0.055,0.054,0.1,0.123,0.136,0.205
				c0.037,0.083,0.056,0.173,0.056,0.271c0,0.124-0.022,0.236-0.067,0.336c-0.044,0.1-0.104,0.184-0.181,0.252
				s-0.166,0.122-0.27,0.16s-0.214,0.057-0.331,0.057c-0.058,0-0.116-0.007-0.177-0.021c-0.061-0.015-0.117-0.034-0.172-0.06
				c-0.041,0.035-0.076,0.074-0.104,0.117s-0.043,0.096-0.043,0.16c0,0.073,0.028,0.133,0.086,0.181
				c0.057,0.047,0.165,0.071,0.324,0.071h0.448c0.27,0,0.473,0.044,0.607,0.131s0.202,0.228,0.202,0.422
				c0,0.108-0.026,0.21-0.08,0.307c-0.055,0.097-0.133,0.182-0.234,0.255c-0.102,0.073-0.225,0.131-0.369,0.174
				s-0.308,0.064-0.488,0.064c-0.144,0-0.273-0.014-0.392-0.041c-0.117-0.027-0.218-0.067-0.303-0.122
				c-0.084-0.054-0.149-0.119-0.195-0.195S187.099,74.083,187.099,73.982z M187.442,73.93c0,0.124,0.06,0.222,0.179,0.295
				s0.283,0.109,0.493,0.109c0.111,0,0.212-0.013,0.303-0.041c0.091-0.027,0.168-0.062,0.231-0.104s0.112-0.093,0.147-0.15
				s0.053-0.116,0.053-0.176c0-0.108-0.04-0.183-0.119-0.224s-0.195-0.062-0.348-0.062h-0.4c-0.045,0-0.094-0.002-0.146-0.007
				c-0.053-0.004-0.104-0.015-0.155-0.031c-0.083,0.061-0.143,0.124-0.182,0.191C187.461,73.796,187.442,73.863,187.442,73.93z
				 M188.058,72.542c0.066,0,0.129-0.012,0.188-0.038c0.06-0.025,0.111-0.062,0.158-0.109c0.046-0.048,0.081-0.105,0.106-0.174
				c0.025-0.068,0.038-0.145,0.038-0.231c0-0.172-0.047-0.304-0.143-0.398s-0.211-0.141-0.348-0.141s-0.253,0.047-0.349,0.141
				c-0.095,0.094-0.143,0.226-0.143,0.398c0,0.086,0.013,0.163,0.038,0.231c0.025,0.069,0.061,0.126,0.107,0.174
				c0.046,0.047,0.099,0.084,0.157,0.109C187.928,72.53,187.99,72.542,188.058,72.542z"/>
			<path fill="#FFFFFF" d="M189.845,73.372c-0.111-0.353-0.167-0.739-0.167-1.158s0.056-0.805,0.167-1.156
				c0.111-0.351,0.266-0.687,0.462-1.008l0.243,0.115c-0.184,0.305-0.321,0.631-0.412,0.979s-0.136,0.705-0.136,1.07
				c0,0.365,0.045,0.722,0.136,1.07c0.091,0.348,0.229,0.674,0.412,0.979l-0.243,0.114C190.11,74.06,189.956,73.725,189.845,73.372z
				"/>
			<path fill="#FFE88C" d="M190.922,73.305c0.229-0.229,0.433-0.436,0.61-0.62c0.178-0.184,0.327-0.355,0.448-0.512
				c0.12-0.157,0.213-0.302,0.276-0.434c0.063-0.132,0.095-0.26,0.095-0.384c0-0.174-0.047-0.317-0.143-0.429
				s-0.24-0.167-0.434-0.167c-0.127,0-0.245,0.036-0.353,0.107c-0.108,0.071-0.207,0.158-0.296,0.26l-0.225-0.224
				c0.128-0.14,0.263-0.252,0.405-0.336c0.144-0.084,0.315-0.126,0.516-0.126c0.282,0,0.505,0.082,0.667,0.246
				s0.243,0.38,0.243,0.65c0,0.143-0.031,0.287-0.093,0.432c-0.063,0.145-0.148,0.294-0.258,0.448
				c-0.109,0.154-0.24,0.314-0.391,0.481c-0.151,0.167-0.317,0.344-0.498,0.531c0.082-0.006,0.168-0.013,0.257-0.019
				s0.174-0.009,0.253-0.009h0.882v0.338h-1.964V73.305z"/>
			<path fill="#FFFFFF" d="M193.694,73.284c0.091-0.348,0.136-0.705,0.136-1.07c0-0.366-0.045-0.722-0.136-1.07
				s-0.229-0.674-0.412-0.979l0.243-0.115c0.196,0.321,0.351,0.657,0.462,1.008c0.111,0.352,0.167,0.737,0.167,1.156
				s-0.056,0.806-0.167,1.158c-0.111,0.353-0.266,0.688-0.462,1.006l-0.243-0.114C193.466,73.958,193.604,73.631,193.694,73.284z"/>
			<path fill="#FFFFFF" d="M194.77,74.12c0.133-0.061,0.238-0.14,0.314-0.238s0.114-0.213,0.114-0.343
				c-0.01,0.003-0.025,0.005-0.048,0.005c-0.076,0-0.142-0.023-0.197-0.069c-0.056-0.046-0.084-0.113-0.084-0.203
				c0-0.085,0.028-0.153,0.086-0.203s0.126-0.074,0.205-0.074c0.102,0,0.182,0.042,0.24,0.124c0.06,0.083,0.089,0.195,0.089,0.338
				c0,0.207-0.056,0.386-0.167,0.539c-0.111,0.153-0.264,0.27-0.458,0.353L194.77,74.12z M194.855,71.579
				c0-0.092,0.027-0.166,0.083-0.222c0.056-0.055,0.123-0.083,0.202-0.083c0.077,0,0.143,0.028,0.198,0.083
				c0.056,0.056,0.083,0.13,0.083,0.222c0,0.086-0.027,0.157-0.083,0.212s-0.121,0.083-0.198,0.083
				c-0.079,0-0.146-0.028-0.202-0.083S194.855,71.665,194.855,71.579z"/>
			<path fill="#FFFFFF" d="M149.439,79.906c0.13,0,0.217-0.033,0.26-0.1c0.042-0.067,0.063-0.178,0.063-0.333
				c0-0.146-0.004-0.286-0.012-0.419c-0.008-0.134-0.012-0.282-0.012-0.443c0-0.153,0.021-0.271,0.064-0.353
				s0.115-0.138,0.217-0.167v-0.019c-0.102-0.028-0.174-0.083-0.217-0.165c-0.043-0.081-0.064-0.199-0.064-0.355
				c0-0.146,0.004-0.292,0.012-0.436s0.012-0.287,0.012-0.427c0-0.156-0.021-0.266-0.063-0.332c-0.043-0.065-0.13-0.098-0.26-0.098
				h-0.124v-0.229h0.209c0.191,0,0.332,0.045,0.422,0.136c0.091,0.09,0.137,0.257,0.137,0.498c0,0.166-0.008,0.323-0.021,0.472
				c-0.015,0.149-0.021,0.3-0.021,0.453c0,0.092,0.028,0.176,0.085,0.25c0.058,0.075,0.166,0.114,0.324,0.117v0.248
				c-0.079,0-0.145,0.011-0.197,0.033c-0.053,0.022-0.095,0.051-0.127,0.086c-0.031,0.035-0.054,0.074-0.066,0.117
				s-0.019,0.088-0.019,0.136c0,0.08,0.002,0.156,0.007,0.229s0.01,0.146,0.015,0.219c0.004,0.073,0.009,0.148,0.014,0.227
				c0.005,0.078,0.008,0.16,0.008,0.246c0,0.124-0.012,0.226-0.034,0.307c-0.021,0.081-0.056,0.146-0.103,0.193
				c-0.046,0.047-0.104,0.082-0.174,0.103c-0.069,0.021-0.152,0.031-0.248,0.031h-0.209v-0.224H149.439z"/>
			<path fill="#92BFBF" d="M149.478,90.902c0-0.092,0.027-0.166,0.083-0.222s0.123-0.083,0.202-0.083
				c0.077,0,0.143,0.028,0.198,0.083s0.083,0.129,0.083,0.222c0,0.086-0.027,0.157-0.083,0.212
				c-0.056,0.056-0.121,0.083-0.198,0.083c-0.079,0-0.146-0.028-0.202-0.083C149.505,91.059,149.478,90.988,149.478,90.902z"/>
			<path fill="#92BFBF" d="M150.684,90.616c0.102,0.083,0.205,0.149,0.312,0.2s0.229,0.076,0.37,0.076
				c0.152,0,0.267-0.035,0.343-0.104c0.076-0.07,0.114-0.156,0.114-0.258c0-0.06-0.016-0.113-0.048-0.157
				c-0.031-0.044-0.072-0.083-0.121-0.117c-0.05-0.033-0.105-0.063-0.169-0.088s-0.128-0.051-0.191-0.076
				c-0.082-0.028-0.165-0.061-0.247-0.098c-0.083-0.037-0.157-0.081-0.222-0.133c-0.065-0.053-0.119-0.114-0.16-0.184
				s-0.062-0.154-0.062-0.253c0-0.092,0.018-0.179,0.055-0.26c0.036-0.081,0.089-0.151,0.157-0.209
				c0.068-0.059,0.151-0.105,0.25-0.139c0.099-0.033,0.21-0.05,0.334-0.05c0.146,0,0.28,0.025,0.402,0.076
				c0.123,0.051,0.229,0.113,0.317,0.186l-0.186,0.248c-0.08-0.061-0.162-0.11-0.248-0.148s-0.18-0.057-0.281-0.057
				c-0.146,0-0.254,0.033-0.322,0.1c-0.068,0.066-0.103,0.145-0.103,0.233c0,0.054,0.015,0.1,0.043,0.138s0.067,0.073,0.114,0.105
				c0.048,0.032,0.103,0.06,0.165,0.083c0.062,0.024,0.126,0.048,0.192,0.074c0.083,0.032,0.166,0.065,0.251,0.1
				c0.084,0.035,0.159,0.079,0.227,0.131c0.066,0.052,0.121,0.117,0.164,0.193s0.064,0.168,0.064,0.276
				c0,0.096-0.019,0.185-0.055,0.267c-0.037,0.083-0.091,0.156-0.162,0.219c-0.071,0.064-0.161,0.114-0.268,0.15
				s-0.228,0.055-0.364,0.055c-0.165,0-0.322-0.03-0.472-0.09c-0.149-0.061-0.28-0.137-0.392-0.229L150.684,90.616z"/>
			<path fill="#92BFBF" d="M152.943,88.347c-0.077,0-0.141-0.024-0.193-0.072c-0.053-0.047-0.079-0.108-0.079-0.181
				c0-0.076,0.026-0.137,0.079-0.184c0.053-0.046,0.116-0.069,0.193-0.069c0.076,0,0.141,0.023,0.192,0.069
				c0.053,0.046,0.079,0.107,0.079,0.184c0,0.073-0.026,0.134-0.079,0.181C153.084,88.323,153.02,88.347,152.943,88.347z
				 M152.743,88.823h0.391v2.317h-0.391V88.823z"/>
			<path fill="#92BFBF" d="M153.748,89.986c0-0.188,0.028-0.356,0.084-0.507c0.056-0.151,0.129-0.279,0.222-0.384
				c0.092-0.105,0.198-0.186,0.319-0.243c0.12-0.057,0.248-0.086,0.381-0.086c0.134,0,0.25,0.024,0.349,0.071
				c0.098,0.048,0.198,0.113,0.3,0.196l-0.019-0.396v-0.891h0.396v3.394h-0.324l-0.033-0.272h-0.015
				c-0.092,0.089-0.198,0.167-0.317,0.231s-0.247,0.098-0.384,0.098c-0.292,0-0.524-0.105-0.698-0.314
				C153.835,90.673,153.748,90.374,153.748,89.986z M154.153,89.982c0,0.279,0.056,0.497,0.167,0.653s0.269,0.233,0.472,0.233
				c0.108,0,0.21-0.026,0.306-0.079c0.095-0.052,0.19-0.132,0.286-0.241v-1.21c-0.099-0.089-0.193-0.152-0.284-0.188
				s-0.184-0.055-0.278-0.055c-0.093,0-0.18,0.021-0.261,0.064c-0.08,0.043-0.151,0.104-0.212,0.181
				c-0.061,0.078-0.107,0.171-0.143,0.279C154.171,89.728,154.153,89.848,154.153,89.982z"/>
			<path fill="#92BFBF" d="M156.39,89.986c0-0.19,0.029-0.361,0.088-0.512s0.137-0.279,0.233-0.384
				c0.098-0.105,0.208-0.185,0.332-0.241s0.252-0.083,0.386-0.083c0.146,0,0.277,0.025,0.394,0.076
				c0.115,0.051,0.213,0.124,0.29,0.219c0.078,0.096,0.138,0.21,0.18,0.343c0.041,0.134,0.062,0.283,0.062,0.448
				c0,0.086-0.005,0.157-0.015,0.214h-1.563c0.016,0.251,0.093,0.45,0.231,0.596c0.139,0.146,0.318,0.219,0.541,0.219
				c0.111,0,0.214-0.017,0.308-0.05c0.094-0.033,0.184-0.077,0.27-0.131l0.138,0.257c-0.102,0.063-0.214,0.119-0.338,0.167
				c-0.124,0.047-0.266,0.071-0.425,0.071c-0.155,0-0.301-0.028-0.436-0.083c-0.136-0.055-0.253-0.135-0.354-0.238
				c-0.1-0.103-0.179-0.229-0.235-0.379C156.418,90.347,156.39,90.177,156.39,89.986z M158.011,89.81c0-0.238-0.051-0.42-0.15-0.546
				c-0.101-0.125-0.241-0.188-0.422-0.188c-0.083,0-0.161,0.017-0.236,0.05c-0.074,0.033-0.143,0.081-0.202,0.143
				c-0.061,0.062-0.11,0.138-0.15,0.229c-0.04,0.09-0.066,0.194-0.079,0.312H158.011z"/>
			<path fill="#92BFBF" d="M160.86,91.479v0.262h-2.269v-0.262H160.86z"/>
			<path fill="#92BFBF" d="M161.7,91.335v0.782h-0.391v-3.294h0.323l0.034,0.267h0.014c0.105-0.089,0.221-0.166,0.346-0.229
				c0.126-0.063,0.257-0.095,0.394-0.095c0.149,0,0.281,0.028,0.396,0.083s0.21,0.135,0.286,0.238
				c0.076,0.104,0.134,0.227,0.174,0.372c0.04,0.145,0.06,0.308,0.06,0.489c0,0.197-0.026,0.373-0.081,0.527
				c-0.054,0.154-0.127,0.285-0.219,0.393c-0.093,0.108-0.199,0.19-0.319,0.246c-0.121,0.056-0.248,0.083-0.382,0.083
				c-0.108,0-0.215-0.024-0.321-0.071c-0.106-0.048-0.214-0.113-0.322-0.196L161.7,91.335z M161.7,90.625
				c0.104,0.089,0.206,0.151,0.305,0.188s0.187,0.055,0.263,0.055c0.095,0,0.184-0.021,0.265-0.064s0.15-0.104,0.209-0.181
				c0.06-0.078,0.105-0.174,0.139-0.289s0.05-0.243,0.05-0.386c0-0.127-0.011-0.243-0.033-0.348
				c-0.022-0.104-0.058-0.194-0.107-0.269c-0.049-0.075-0.112-0.133-0.19-0.174c-0.078-0.042-0.171-0.062-0.279-0.062
				c-0.098,0-0.197,0.027-0.298,0.081c-0.1,0.054-0.207,0.132-0.321,0.233V90.625z"/>
			<path fill="#92BFBF" d="M163.773,90.54c0-0.254,0.114-0.449,0.341-0.584c0.228-0.135,0.589-0.229,1.085-0.284
				c0-0.073-0.007-0.145-0.021-0.214s-0.04-0.132-0.076-0.186c-0.037-0.054-0.085-0.098-0.146-0.131
				c-0.061-0.033-0.139-0.05-0.233-0.05c-0.137,0-0.264,0.025-0.379,0.076c-0.116,0.051-0.221,0.108-0.313,0.172l-0.157-0.272
				c0.107-0.07,0.24-0.137,0.396-0.203c0.155-0.065,0.327-0.098,0.515-0.098c0.283,0,0.488,0.086,0.615,0.26s0.19,0.404,0.19,0.694
				v1.42h-0.324l-0.033-0.276h-0.01c-0.111,0.092-0.23,0.171-0.359,0.236s-0.265,0.098-0.408,0.098
				c-0.196,0-0.359-0.057-0.488-0.171C163.838,90.911,163.773,90.749,163.773,90.54z M164.16,90.511
				c0,0.134,0.039,0.229,0.116,0.286c0.078,0.057,0.175,0.086,0.289,0.086c0.111,0,0.217-0.026,0.316-0.079
				c0.101-0.053,0.206-0.129,0.317-0.231v-0.644c-0.194,0.025-0.357,0.056-0.491,0.091c-0.134,0.035-0.24,0.076-0.321,0.124
				c-0.081,0.048-0.14,0.103-0.175,0.165C164.178,90.37,164.16,90.438,164.16,90.511z"/>
			<path fill="#92BFBF" d="M166.329,88.823h0.323l0.034,0.334h0.014c0.111-0.111,0.229-0.205,0.351-0.279
				c0.122-0.074,0.265-0.112,0.427-0.112c0.245,0,0.424,0.076,0.536,0.229c0.113,0.152,0.169,0.378,0.169,0.677v1.468h-0.391v-1.416
				c0-0.219-0.035-0.377-0.104-0.474c-0.07-0.097-0.182-0.146-0.334-0.146c-0.121,0-0.228,0.03-0.319,0.091
				c-0.092,0.06-0.197,0.149-0.314,0.267v1.678h-0.391V88.823z"/>
			<path fill="#92BFBF" d="M168.765,89.986c0-0.19,0.029-0.361,0.089-0.512c0.059-0.151,0.137-0.279,0.233-0.384
				s0.207-0.185,0.331-0.241s0.253-0.083,0.386-0.083c0.146,0,0.277,0.025,0.394,0.076s0.213,0.124,0.291,0.219
				c0.078,0.096,0.138,0.21,0.179,0.343c0.041,0.134,0.063,0.283,0.063,0.448c0,0.086-0.005,0.157-0.015,0.214h-1.563
				c0.016,0.251,0.093,0.45,0.23,0.596c0.139,0.146,0.319,0.219,0.542,0.219c0.11,0,0.213-0.017,0.307-0.05
				c0.094-0.033,0.184-0.077,0.27-0.131l0.139,0.257c-0.102,0.063-0.215,0.119-0.339,0.167c-0.124,0.047-0.266,0.071-0.424,0.071
				c-0.156,0-0.302-0.028-0.437-0.083c-0.135-0.055-0.253-0.135-0.353-0.238c-0.101-0.103-0.179-0.229-0.236-0.379
				C168.794,90.347,168.765,90.177,168.765,89.986z M170.386,89.81c0-0.238-0.05-0.42-0.15-0.546c-0.1-0.125-0.24-0.188-0.422-0.188
				c-0.082,0-0.161,0.017-0.235,0.05c-0.075,0.033-0.143,0.081-0.203,0.143s-0.11,0.138-0.15,0.229
				c-0.039,0.09-0.065,0.194-0.078,0.312H170.386z"/>
			<path fill="#92BFBF" d="M171.301,87.746h0.391v2.956c0,0.063,0.012,0.108,0.034,0.133c0.021,0.025,0.047,0.038,0.076,0.038
				c0.013,0,0.024,0,0.035,0c0.012,0,0.028-0.003,0.05-0.009l0.053,0.295c-0.025,0.013-0.056,0.022-0.091,0.029
				c-0.034,0.006-0.079,0.009-0.133,0.009c-0.149,0-0.256-0.044-0.319-0.133s-0.096-0.219-0.096-0.391V87.746z"/>
			<path fill="#FFFFFF" d="M172.655,91.231c0-0.086,0.002-0.168,0.007-0.246c0.005-0.078,0.01-0.153,0.015-0.227
				c0.004-0.073,0.009-0.146,0.014-0.219s0.008-0.149,0.008-0.229c0-0.047-0.007-0.093-0.02-0.136s-0.034-0.082-0.064-0.117
				c-0.03-0.035-0.072-0.063-0.126-0.086c-0.055-0.022-0.121-0.033-0.2-0.033v-0.248c0.079,0,0.146-0.011,0.2-0.033
				c0.054-0.022,0.096-0.05,0.126-0.083c0.03-0.034,0.052-0.072,0.064-0.117s0.02-0.089,0.02-0.134c0-0.152-0.008-0.303-0.021-0.453
				c-0.015-0.149-0.021-0.307-0.021-0.472c0-0.121,0.011-0.222,0.033-0.303s0.057-0.146,0.103-0.195s0.104-0.084,0.174-0.105
				c0.069-0.021,0.15-0.031,0.243-0.031h0.219v0.229h-0.133c-0.127,0-0.212,0.033-0.255,0.098c-0.043,0.065-0.064,0.176-0.064,0.332
				c0,0.14,0.005,0.282,0.014,0.427c0.01,0.145,0.015,0.29,0.015,0.436c0,0.156-0.022,0.274-0.066,0.355
				c-0.045,0.081-0.118,0.136-0.22,0.165v0.019c0.102,0.029,0.175,0.084,0.22,0.167c0.044,0.083,0.066,0.2,0.066,0.353
				c0,0.162-0.005,0.31-0.015,0.443c-0.009,0.133-0.014,0.273-0.014,0.419c0,0.156,0.021,0.267,0.064,0.333s0.128,0.1,0.255,0.1
				h0.133v0.224h-0.219c-0.093,0-0.174-0.01-0.243-0.031c-0.07-0.021-0.128-0.055-0.174-0.103c-0.046-0.048-0.08-0.112-0.103-0.193
				S172.655,91.354,172.655,91.231z"/>
			<path fill="#F48A46" d="M153.262,96.04c0-0.318,0.054-0.607,0.16-0.868c0.106-0.26,0.251-0.483,0.434-0.667
				c0.183-0.184,0.394-0.326,0.634-0.426s0.493-0.15,0.761-0.15c0.241,0,0.458,0.038,0.65,0.114
				c0.192,0.077,0.356,0.184,0.491,0.322s0.239,0.305,0.313,0.499s0.109,0.408,0.109,0.644c0,0.209-0.029,0.393-0.088,0.55
				c-0.06,0.157-0.135,0.29-0.227,0.396c-0.093,0.106-0.195,0.187-0.308,0.241c-0.113,0.054-0.224,0.081-0.331,0.081
				c-0.131,0-0.241-0.03-0.332-0.091c-0.09-0.06-0.144-0.151-0.159-0.271h-0.01c-0.079,0.092-0.17,0.169-0.271,0.231
				s-0.205,0.093-0.31,0.093c-0.162,0-0.299-0.057-0.408-0.171s-0.164-0.281-0.164-0.5c0-0.127,0.021-0.257,0.064-0.389
				s0.104-0.251,0.184-0.357c0.079-0.106,0.175-0.193,0.288-0.26c0.112-0.067,0.239-0.1,0.379-0.1c0.083,0,0.155,0.018,0.22,0.055
				c0.063,0.037,0.117,0.095,0.162,0.174h0.009l0.053-0.19h0.263l-0.187,0.954c-0.096,0.372-0.01,0.558,0.258,0.558
				c0.076,0,0.151-0.022,0.227-0.067c0.074-0.044,0.143-0.109,0.205-0.193c0.062-0.084,0.111-0.188,0.149-0.31
				c0.038-0.122,0.058-0.261,0.058-0.417c0-0.191-0.028-0.368-0.084-0.532c-0.056-0.164-0.139-0.304-0.25-0.422
				c-0.111-0.117-0.249-0.209-0.415-0.276c-0.165-0.067-0.355-0.1-0.571-0.1c-0.213,0-0.42,0.044-0.62,0.131
				c-0.2,0.088-0.378,0.211-0.534,0.37c-0.155,0.159-0.28,0.351-0.374,0.577c-0.094,0.226-0.141,0.479-0.141,0.758
				c0,0.232,0.036,0.438,0.107,0.62s0.171,0.333,0.298,0.458s0.277,0.219,0.45,0.284c0.174,0.065,0.362,0.098,0.565,0.098
				c0.146,0,0.284-0.02,0.415-0.06c0.13-0.04,0.249-0.091,0.357-0.155l0.104,0.233c-0.271,0.162-0.572,0.243-0.905,0.243
				c-0.235,0-0.455-0.037-0.658-0.109c-0.203-0.073-0.381-0.182-0.531-0.327c-0.151-0.145-0.271-0.323-0.358-0.536
				C153.306,96.562,153.262,96.316,153.262,96.04z M154.521,96.04c0,0.152,0.031,0.262,0.096,0.329c0.063,0.066,0.143,0.1,0.238,0.1
				c0.066,0,0.136-0.022,0.207-0.067s0.148-0.116,0.231-0.214l0.138-0.758c-0.044-0.073-0.09-0.125-0.138-0.155
				s-0.104-0.045-0.167-0.045c-0.096,0-0.181,0.026-0.255,0.077c-0.075,0.051-0.139,0.116-0.191,0.195
				c-0.052,0.08-0.092,0.167-0.119,0.262C154.534,95.859,154.521,95.951,154.521,96.04z"/>
			<path fill="#F48A46" d="M157.276,95.854c0-0.19,0.029-0.361,0.088-0.512s0.137-0.279,0.233-0.384
				c0.098-0.105,0.208-0.185,0.332-0.241s0.252-0.083,0.386-0.083c0.146,0,0.277,0.025,0.394,0.076
				c0.115,0.051,0.213,0.124,0.29,0.219c0.078,0.096,0.138,0.21,0.18,0.343c0.041,0.134,0.062,0.283,0.062,0.448
				c0,0.086-0.005,0.157-0.015,0.214h-1.563c0.016,0.251,0.093,0.45,0.231,0.596c0.139,0.146,0.318,0.219,0.541,0.219
				c0.111,0,0.214-0.017,0.308-0.05c0.094-0.033,0.184-0.077,0.27-0.131l0.138,0.257c-0.102,0.063-0.214,0.119-0.338,0.167
				c-0.124,0.047-0.266,0.071-0.425,0.071c-0.155,0-0.301-0.028-0.436-0.083c-0.136-0.055-0.253-0.135-0.354-0.238
				c-0.1-0.103-0.179-0.229-0.235-0.379C157.305,96.215,157.276,96.045,157.276,95.854z M158.897,95.678
				c0-0.238-0.051-0.42-0.15-0.546c-0.101-0.125-0.241-0.188-0.422-0.188c-0.083,0-0.161,0.017-0.236,0.05
				c-0.074,0.033-0.143,0.081-0.202,0.143c-0.061,0.062-0.11,0.138-0.15,0.229c-0.04,0.09-0.066,0.194-0.079,0.312H158.897z"/>
			<path fill="#F48A46" d="M160.213,95.797l-0.701-1.106h0.425l0.31,0.51c0.035,0.063,0.071,0.128,0.109,0.193
				c0.038,0.065,0.078,0.129,0.119,0.193h0.02c0.035-0.064,0.069-0.128,0.104-0.193c0.035-0.065,0.07-0.129,0.105-0.193l0.281-0.51
				h0.409l-0.7,1.149l0.753,1.168h-0.424l-0.339-0.539c-0.041-0.07-0.083-0.14-0.124-0.21s-0.084-0.138-0.129-0.205h-0.019
				c-0.042,0.067-0.081,0.134-0.119,0.203s-0.076,0.139-0.114,0.212l-0.315,0.539h-0.409L160.213,95.797z"/>
			<path fill="#F48A46" d="M161.972,95.01h-0.344v-0.295l0.362-0.024l0.048-0.648h0.329v0.648h0.625v0.319h-0.625v1.287
				c0,0.143,0.026,0.253,0.079,0.332c0.052,0.078,0.145,0.117,0.278,0.117c0.041,0,0.086-0.006,0.134-0.019s0.091-0.027,0.129-0.043
				l0.076,0.295c-0.063,0.022-0.133,0.042-0.208,0.06c-0.074,0.018-0.148,0.026-0.222,0.026c-0.123,0-0.228-0.019-0.312-0.057
				c-0.085-0.038-0.153-0.091-0.205-0.157c-0.053-0.067-0.09-0.148-0.112-0.243s-0.033-0.2-0.033-0.314V95.01z"/>
			<path fill="#F48A46" d="M163.297,95.854c0-0.19,0.029-0.361,0.088-0.512s0.137-0.279,0.233-0.384
				c0.098-0.105,0.208-0.185,0.332-0.241s0.252-0.083,0.386-0.083c0.146,0,0.277,0.025,0.394,0.076
				c0.115,0.051,0.213,0.124,0.29,0.219c0.078,0.096,0.138,0.21,0.18,0.343c0.041,0.134,0.062,0.283,0.062,0.448
				c0,0.086-0.005,0.157-0.015,0.214h-1.563c0.016,0.251,0.093,0.45,0.231,0.596c0.139,0.146,0.318,0.219,0.541,0.219
				c0.111,0,0.214-0.017,0.308-0.05c0.094-0.033,0.184-0.077,0.27-0.131l0.138,0.257c-0.102,0.063-0.214,0.119-0.338,0.167
				c-0.124,0.047-0.266,0.071-0.425,0.071c-0.155,0-0.301-0.028-0.436-0.083c-0.136-0.055-0.253-0.135-0.354-0.238
				c-0.1-0.103-0.179-0.229-0.235-0.379C163.325,96.215,163.297,96.045,163.297,95.854z M164.918,95.678
				c0-0.238-0.051-0.42-0.15-0.546c-0.101-0.125-0.241-0.188-0.422-0.188c-0.083,0-0.161,0.017-0.236,0.05
				c-0.074,0.033-0.143,0.081-0.202,0.143c-0.061,0.062-0.11,0.138-0.15,0.229c-0.04,0.09-0.066,0.194-0.079,0.312H164.918z"/>
			<path fill="#F48A46" d="M165.833,94.691h0.324l0.033,0.334h0.015c0.111-0.111,0.228-0.205,0.351-0.279
				c0.122-0.074,0.265-0.112,0.427-0.112c0.244,0,0.423,0.076,0.536,0.229c0.112,0.152,0.169,0.378,0.169,0.677v1.468h-0.391v-1.416
				c0-0.219-0.035-0.377-0.105-0.474c-0.069-0.097-0.181-0.146-0.333-0.146c-0.121,0-0.228,0.03-0.319,0.091
				c-0.093,0.06-0.197,0.149-0.315,0.267v1.678h-0.391V94.691z"/>
			<path fill="#F48A46" d="M168.273,95.854c0-0.188,0.028-0.356,0.084-0.507c0.056-0.151,0.129-0.279,0.222-0.384
				c0.092-0.105,0.198-0.186,0.319-0.243c0.12-0.057,0.248-0.086,0.381-0.086c0.134,0,0.25,0.024,0.349,0.071
				c0.098,0.048,0.198,0.113,0.3,0.196l-0.019-0.396v-0.891h0.396v3.394h-0.324l-0.033-0.272h-0.015
				c-0.092,0.089-0.198,0.167-0.317,0.231s-0.247,0.098-0.384,0.098c-0.292,0-0.524-0.105-0.698-0.314
				C168.36,96.541,168.273,96.242,168.273,95.854z M168.679,95.85c0,0.279,0.056,0.497,0.167,0.653s0.269,0.233,0.472,0.233
				c0.108,0,0.21-0.026,0.306-0.079c0.095-0.052,0.19-0.132,0.286-0.241v-1.21c-0.099-0.089-0.193-0.152-0.284-0.188
				s-0.184-0.055-0.278-0.055c-0.093,0-0.18,0.021-0.261,0.064c-0.08,0.043-0.151,0.104-0.212,0.181
				c-0.061,0.078-0.107,0.171-0.143,0.279C168.696,95.595,168.679,95.716,168.679,95.85z"/>
			<path fill="#F48A46" d="M171.969,96.77c0-0.092,0.027-0.166,0.083-0.222s0.123-0.083,0.202-0.083
				c0.077,0,0.143,0.028,0.198,0.083s0.083,0.129,0.083,0.222c0,0.086-0.027,0.157-0.083,0.212
				c-0.056,0.056-0.121,0.083-0.198,0.083c-0.079,0-0.146-0.028-0.202-0.083C171.996,96.926,171.969,96.855,171.969,96.77z"/>
			<path fill="#F48A46" d="M173.236,93.614h0.391v0.925l-0.009,0.419c0.104-0.092,0.219-0.169,0.343-0.231s0.251-0.093,0.382-0.093
				c0.148,0,0.281,0.028,0.396,0.083s0.21,0.135,0.288,0.238c0.078,0.104,0.137,0.227,0.177,0.372
				c0.039,0.145,0.06,0.306,0.06,0.484c0,0.197-0.027,0.374-0.081,0.529c-0.055,0.156-0.127,0.288-0.22,0.396
				c-0.092,0.108-0.198,0.19-0.319,0.246c-0.121,0.056-0.248,0.083-0.381,0.083c-0.108,0-0.221-0.024-0.337-0.074
				c-0.115-0.049-0.225-0.12-0.326-0.212h-0.015l-0.033,0.229h-0.314V93.614z M173.627,96.493c0.102,0.089,0.203,0.151,0.303,0.188
				c0.101,0.037,0.188,0.055,0.265,0.055c0.096,0,0.184-0.021,0.265-0.064s0.151-0.104,0.21-0.181
				c0.059-0.078,0.104-0.174,0.139-0.289c0.033-0.114,0.05-0.243,0.05-0.386c0-0.127-0.012-0.243-0.033-0.348
				c-0.022-0.104-0.059-0.194-0.107-0.269c-0.05-0.075-0.113-0.133-0.19-0.174c-0.078-0.042-0.171-0.062-0.279-0.062
				c-0.188,0-0.395,0.104-0.62,0.314V96.493z"/>
			<path fill="#F48A46" d="M175.71,95.854c0-0.194,0.029-0.366,0.089-0.517c0.059-0.151,0.137-0.279,0.235-0.384
				s0.212-0.184,0.341-0.238s0.265-0.081,0.408-0.081c0.143,0,0.278,0.027,0.407,0.081s0.242,0.133,0.341,0.238
				s0.177,0.233,0.236,0.384c0.059,0.151,0.088,0.323,0.088,0.517c0,0.191-0.029,0.362-0.088,0.513
				c-0.06,0.151-0.138,0.278-0.236,0.381c-0.099,0.103-0.212,0.182-0.341,0.236c-0.129,0.054-0.265,0.081-0.407,0.081
				c-0.144,0-0.279-0.027-0.408-0.081c-0.129-0.054-0.242-0.133-0.341-0.236c-0.099-0.104-0.177-0.23-0.235-0.381
				C175.739,96.216,175.71,96.045,175.71,95.854z M176.115,95.854c0,0.134,0.016,0.254,0.048,0.362
				c0.032,0.108,0.077,0.201,0.136,0.279c0.059,0.078,0.13,0.139,0.212,0.181c0.083,0.043,0.174,0.064,0.272,0.064
				c0.098,0,0.188-0.021,0.271-0.064c0.082-0.042,0.153-0.103,0.212-0.181c0.059-0.078,0.104-0.17,0.136-0.279
				c0.032-0.108,0.048-0.229,0.048-0.362c0-0.133-0.016-0.255-0.048-0.365c-0.031-0.109-0.077-0.204-0.136-0.283
				c-0.059-0.08-0.13-0.141-0.212-0.184c-0.083-0.043-0.174-0.064-0.271-0.064c-0.099,0-0.189,0.021-0.272,0.064
				c-0.082,0.043-0.153,0.104-0.212,0.184c-0.059,0.079-0.104,0.174-0.136,0.283C176.131,95.599,176.115,95.721,176.115,95.854z"/>
			<path fill="#F48A46" d="M178.818,95.797l-0.7-1.106h0.424l0.31,0.51c0.035,0.063,0.072,0.128,0.11,0.193
				c0.038,0.065,0.077,0.129,0.119,0.193h0.019c0.035-0.064,0.07-0.128,0.105-0.193c0.034-0.065,0.069-0.129,0.104-0.193l0.281-0.51
				h0.41L179.3,95.84l0.754,1.168h-0.425l-0.338-0.539c-0.042-0.07-0.083-0.14-0.124-0.21c-0.042-0.07-0.085-0.138-0.129-0.205
				h-0.02c-0.041,0.067-0.081,0.134-0.119,0.203s-0.076,0.139-0.114,0.212l-0.314,0.539h-0.41L178.818,95.797z"/>
			<path fill="#F48A46" d="M180.249,95.664h1.097v0.3h-1.097V95.664z"/>
			<path fill="#F48A46" d="M181.865,96.483c0.102,0.083,0.205,0.149,0.312,0.2s0.229,0.076,0.37,0.076
				c0.152,0,0.267-0.035,0.343-0.104c0.076-0.07,0.114-0.156,0.114-0.258c0-0.06-0.016-0.113-0.048-0.157
				c-0.031-0.044-0.072-0.083-0.121-0.117c-0.05-0.033-0.105-0.063-0.169-0.088s-0.128-0.051-0.191-0.076
				c-0.082-0.028-0.165-0.061-0.247-0.098c-0.083-0.037-0.157-0.081-0.222-0.133c-0.065-0.053-0.119-0.114-0.16-0.184
				s-0.062-0.154-0.062-0.253c0-0.092,0.018-0.179,0.055-0.26c0.036-0.081,0.089-0.151,0.157-0.209
				c0.068-0.059,0.151-0.105,0.25-0.139c0.099-0.033,0.21-0.05,0.334-0.05c0.146,0,0.28,0.025,0.402,0.076
				c0.123,0.051,0.229,0.113,0.317,0.186l-0.186,0.248c-0.08-0.061-0.162-0.11-0.248-0.148s-0.18-0.057-0.281-0.057
				c-0.146,0-0.254,0.033-0.322,0.1c-0.068,0.066-0.103,0.145-0.103,0.233c0,0.054,0.015,0.1,0.043,0.138s0.067,0.073,0.114,0.105
				c0.048,0.032,0.103,0.06,0.165,0.083c0.062,0.024,0.126,0.048,0.192,0.074c0.083,0.032,0.166,0.065,0.251,0.1
				c0.084,0.035,0.159,0.079,0.227,0.131c0.066,0.052,0.121,0.117,0.164,0.193s0.064,0.168,0.064,0.276
				c0,0.096-0.019,0.185-0.055,0.267c-0.037,0.083-0.091,0.156-0.162,0.219c-0.071,0.064-0.161,0.114-0.268,0.15
				s-0.228,0.055-0.364,0.055c-0.165,0-0.322-0.03-0.472-0.09c-0.149-0.061-0.28-0.137-0.392-0.229L181.865,96.483z"/>
			<path fill="#F48A46" d="M183.924,93.614h0.391v0.925l-0.014,0.477c0.111-0.105,0.227-0.195,0.348-0.27
				c0.121-0.074,0.263-0.112,0.425-0.112c0.244,0,0.423,0.076,0.536,0.229c0.112,0.152,0.169,0.378,0.169,0.677v1.468h-0.391v-1.416
				c0-0.219-0.035-0.377-0.105-0.474c-0.069-0.097-0.181-0.146-0.333-0.146c-0.121,0-0.228,0.03-0.319,0.091
				c-0.093,0.06-0.197,0.149-0.315,0.267v1.678h-0.391V93.614z"/>
			<path fill="#F48A46" d="M186.402,96.407c0-0.254,0.114-0.449,0.341-0.584c0.228-0.135,0.589-0.229,1.085-0.284
				c0-0.073-0.007-0.145-0.021-0.214s-0.04-0.132-0.076-0.186c-0.037-0.054-0.085-0.098-0.146-0.131
				c-0.061-0.033-0.139-0.05-0.233-0.05c-0.137,0-0.264,0.025-0.379,0.076c-0.116,0.051-0.221,0.108-0.313,0.172l-0.157-0.272
				c0.107-0.07,0.24-0.137,0.396-0.203c0.155-0.065,0.327-0.098,0.515-0.098c0.283,0,0.488,0.086,0.615,0.26s0.19,0.404,0.19,0.694
				v1.42h-0.324l-0.033-0.276h-0.01c-0.111,0.092-0.23,0.171-0.359,0.236s-0.265,0.098-0.408,0.098
				c-0.196,0-0.359-0.057-0.488-0.171C186.467,96.779,186.402,96.617,186.402,96.407z M186.789,96.378
				c0,0.134,0.039,0.229,0.116,0.286c0.078,0.057,0.175,0.086,0.289,0.086c0.111,0,0.217-0.026,0.316-0.079
				c0.101-0.053,0.206-0.129,0.317-0.231v-0.644c-0.194,0.025-0.357,0.056-0.491,0.091c-0.134,0.035-0.24,0.076-0.321,0.124
				c-0.081,0.048-0.14,0.103-0.175,0.165C186.807,96.238,186.789,96.306,186.789,96.378z"/>
			<path fill="#F48A46" d="M188.791,95.854c0-0.188,0.028-0.356,0.084-0.507c0.056-0.151,0.129-0.279,0.222-0.384
				c0.092-0.105,0.198-0.186,0.319-0.243c0.12-0.057,0.248-0.086,0.381-0.086c0.134,0,0.25,0.024,0.349,0.071
				c0.098,0.048,0.198,0.113,0.3,0.196l-0.019-0.396v-0.891h0.396v3.394h-0.324l-0.033-0.272h-0.015
				c-0.092,0.089-0.198,0.167-0.317,0.231s-0.247,0.098-0.384,0.098c-0.292,0-0.524-0.105-0.698-0.314
				C188.878,96.541,188.791,96.242,188.791,95.854z M189.196,95.85c0,0.279,0.056,0.497,0.167,0.653s0.269,0.233,0.472,0.233
				c0.108,0,0.21-0.026,0.306-0.079c0.095-0.052,0.19-0.132,0.286-0.241v-1.21c-0.099-0.089-0.193-0.152-0.284-0.188
				s-0.184-0.055-0.278-0.055c-0.093,0-0.18,0.021-0.261,0.064c-0.08,0.043-0.151,0.104-0.212,0.181
				c-0.061,0.078-0.107,0.171-0.143,0.279C189.214,95.595,189.196,95.716,189.196,95.85z"/>
			<path fill="#F48A46" d="M191.433,95.854c0-0.194,0.029-0.366,0.088-0.517s0.138-0.279,0.236-0.384s0.212-0.184,0.341-0.238
				s0.265-0.081,0.407-0.081c0.144,0,0.279,0.027,0.408,0.081c0.128,0.054,0.242,0.133,0.341,0.238
				c0.098,0.105,0.177,0.233,0.235,0.384s0.089,0.323,0.089,0.517c0,0.191-0.03,0.362-0.089,0.513s-0.138,0.278-0.235,0.381
				c-0.099,0.103-0.213,0.182-0.341,0.236c-0.129,0.054-0.265,0.081-0.408,0.081c-0.143,0-0.278-0.027-0.407-0.081
				c-0.129-0.054-0.242-0.133-0.341-0.236c-0.099-0.104-0.178-0.23-0.236-0.381S191.433,96.045,191.433,95.854z M191.838,95.854
				c0,0.134,0.016,0.254,0.048,0.362c0.031,0.108,0.076,0.201,0.136,0.279c0.059,0.078,0.129,0.139,0.212,0.181
				c0.082,0.043,0.173,0.064,0.271,0.064s0.189-0.021,0.271-0.064c0.083-0.042,0.153-0.103,0.213-0.181
				c0.059-0.078,0.104-0.17,0.136-0.279c0.031-0.108,0.048-0.229,0.048-0.362c0-0.133-0.017-0.255-0.048-0.365
				c-0.032-0.109-0.077-0.204-0.136-0.283c-0.06-0.08-0.13-0.141-0.213-0.184c-0.082-0.043-0.173-0.064-0.271-0.064
				s-0.189,0.021-0.271,0.064c-0.083,0.043-0.153,0.104-0.212,0.184c-0.06,0.079-0.104,0.174-0.136,0.283
				C191.854,95.599,191.838,95.721,191.838,95.854z"/>
			<path fill="#F48A46" d="M193.892,94.691h0.4l0.344,1.34c0.025,0.111,0.049,0.219,0.071,0.324c0.022,0.105,0.045,0.211,0.067,0.32
				h0.019c0.025-0.108,0.051-0.215,0.076-0.322s0.053-0.214,0.081-0.322l0.357-1.34h0.382l0.362,1.34
				c0.028,0.111,0.057,0.219,0.083,0.324c0.027,0.105,0.054,0.211,0.079,0.32h0.019c0.025-0.108,0.05-0.215,0.071-0.32
				c0.022-0.104,0.047-0.213,0.072-0.324l0.338-1.34h0.372l-0.62,2.317h-0.477l-0.333-1.244c-0.029-0.111-0.056-0.221-0.079-0.329
				c-0.023-0.108-0.05-0.221-0.078-0.338h-0.02c-0.025,0.118-0.051,0.231-0.076,0.341s-0.055,0.22-0.086,0.332l-0.324,1.239h-0.458
				L193.892,94.691z"/>
			<path fill="#FFFFFF" d="M197.425,97.589c0.133-0.061,0.238-0.14,0.314-0.238s0.114-0.213,0.114-0.343
				c-0.01,0.003-0.025,0.005-0.048,0.005c-0.076,0-0.142-0.023-0.197-0.069c-0.056-0.046-0.084-0.113-0.084-0.203
				c0-0.085,0.028-0.153,0.086-0.203s0.126-0.074,0.205-0.074c0.102,0,0.182,0.042,0.24,0.124c0.06,0.083,0.089,0.195,0.089,0.338
				c0,0.207-0.056,0.386-0.167,0.539c-0.111,0.153-0.264,0.27-0.458,0.353L197.425,97.589z M197.511,95.048
				c0-0.092,0.027-0.166,0.083-0.222c0.056-0.055,0.123-0.083,0.202-0.083c0.077,0,0.143,0.028,0.198,0.083
				c0.056,0.056,0.083,0.13,0.083,0.222c0,0.086-0.027,0.157-0.083,0.212s-0.121,0.083-0.198,0.083
				c-0.079,0-0.146-0.028-0.202-0.083S197.511,95.134,197.511,95.048z"/>
			<path fill="#FFFFFF" d="M149.439,103.375c0.13,0,0.217-0.033,0.26-0.1c0.042-0.067,0.063-0.178,0.063-0.333
				c0-0.146-0.004-0.286-0.012-0.419c-0.008-0.134-0.012-0.282-0.012-0.443c0-0.153,0.021-0.271,0.064-0.353
				s0.115-0.138,0.217-0.167v-0.019c-0.102-0.028-0.174-0.083-0.217-0.165c-0.043-0.081-0.064-0.199-0.064-0.355
				c0-0.146,0.004-0.292,0.012-0.436s0.012-0.287,0.012-0.427c0-0.156-0.021-0.266-0.063-0.332c-0.043-0.065-0.13-0.098-0.26-0.098
				h-0.124V99.5h0.209c0.191,0,0.332,0.045,0.422,0.136c0.091,0.09,0.137,0.257,0.137,0.498c0,0.166-0.008,0.323-0.021,0.472
				c-0.015,0.149-0.021,0.3-0.021,0.453c0,0.092,0.028,0.176,0.085,0.25c0.058,0.075,0.166,0.114,0.324,0.117v0.248
				c-0.079,0-0.145,0.011-0.197,0.033c-0.053,0.022-0.095,0.051-0.127,0.086c-0.031,0.035-0.054,0.074-0.066,0.117
				s-0.019,0.088-0.019,0.136c0,0.08,0.002,0.156,0.007,0.229s0.01,0.146,0.015,0.219c0.004,0.073,0.009,0.148,0.014,0.227
				c0.005,0.078,0.008,0.16,0.008,0.246c0,0.124-0.012,0.226-0.034,0.307c-0.021,0.081-0.056,0.146-0.103,0.193
				c-0.046,0.047-0.104,0.082-0.174,0.103c-0.069,0.021-0.152,0.031-0.248,0.031h-0.209v-0.224H149.439z"/>
		</g>
	</g>
</g>
<g id="Layer_7">
	<rect x="88" y="158" fill="#E2E2E2" width="55" height="18"/>
	<rect x="74" y="174" fill="#CECECE" width="83" height="9"/>
</g>
</svg>
