<?xml version="1.0" encoding="utf-8"?>
<!-- Generator: Adobe Illustrator 15.0.0, SVG Export Plug-In . SVG Version: 6.00 Build 0)  -->
<!DOCTYPE svg PUBLIC "-//W3C//DTD SVG 1.1//EN" "http://www.w3.org/Graphics/SVG/1.1/DTD/svg11.dtd">
<svg version="1.1" xmlns="http://www.w3.org/2000/svg" xmlns:xlink="http://www.w3.org/1999/xlink" x="0px" y="0px" width="208px"
	 height="205px" viewBox="0 0 208 205" enable-background="new 0 0 208 205" xml:space="preserve">
<g id="Layer_6">
	<defs>
		<path id="SVGID_1_" d="M208,3.644C208,1.631,205.996,0,203.523,0H4.477C2.004,0,0,1.631,0,3.644v197.713
			C0,203.369,2.004,205,4.477,205h199.047c2.472,0,4.477-1.631,4.477-3.644V3.644z"/>
	</defs>
	<use xlink:href="#SVGID_1_"  overflow="visible" fill="#2B303B"/>
	<clipPath id="SVGID_2_">
		<use xlink:href="#SVGID_1_"  overflow="visible"/>
	</clipPath>
	<rect clip-path="url(#SVGID_2_)" fill="#65737F" width="208" height="21"/>
	<circle clip-path="url(#SVGID_2_)" fill="#FF6563" cx="12.494" cy="10.455" r="4.494"/>
	<circle clip-path="url(#SVGID_2_)" fill="#FCCD7C" cx="24.477" cy="10.455" r="4.494"/>
	<circle clip-path="url(#SVGID_2_)" fill="#A3DB8C" cx="36.461" cy="10.455" r="4.494"/>
	<g clip-path="url(#SVGID_2_)">
		<path fill="#92BFBF" d="M45.481,48.382h-1.04v-0.74h1.131l0.233-1.924h-1.104v-0.754h1.196l0.299-2.38h0.689l-0.299,2.38h1.729
			l0.313-2.38h0.688l-0.312,2.38h1.053v0.754h-1.131l-0.234,1.924h1.105v0.74h-1.196l-0.325,2.652h-0.689l0.313-2.652h-1.717
			l-0.324,2.652h-0.702L45.481,48.382z M47.99,47.642l0.233-1.924h-1.715l-0.234,1.924H47.99z"/>
		<path fill="#92BFBF" d="M51.513,41.778h1.066V44.3l-0.039,1.301c0.304-0.287,0.619-0.531,0.949-0.734
			c0.329-0.204,0.715-0.307,1.157-0.307c0.667,0,1.155,0.209,1.462,0.625c0.309,0.416,0.462,1.031,0.462,1.846v4.004h-1.065v-3.861
			c0-0.598-0.096-1.029-0.287-1.293c-0.19-0.265-0.494-0.396-0.91-0.396c-0.328,0-0.619,0.082-0.87,0.246
			c-0.251,0.166-0.538,0.408-0.858,0.729v4.576h-1.066V41.778z"/>
		<path fill="#92BFBF" d="M58.117,47.888c0-0.52,0.08-0.985,0.24-1.396c0.16-0.412,0.372-0.762,0.638-1.047
			c0.264-0.286,0.564-0.505,0.902-0.656c0.338-0.152,0.689-0.229,1.054-0.229c0.398,0,0.756,0.07,1.072,0.209
			s0.581,0.338,0.793,0.598s0.375,0.572,0.487,0.936c0.113,0.364,0.17,0.771,0.17,1.223c0,0.234-0.014,0.429-0.039,0.585H59.17
			c0.044,0.685,0.253,1.226,0.631,1.625c0.377,0.398,0.868,0.598,1.476,0.598c0.303,0,0.582-0.046,0.838-0.136
			c0.256-0.092,0.501-0.211,0.734-0.357l0.377,0.701c-0.277,0.174-0.584,0.325-0.922,0.455c-0.339,0.13-0.725,0.195-1.158,0.195
			c-0.424,0-0.82-0.076-1.189-0.228c-0.368-0.151-0.688-0.368-0.961-0.65c-0.273-0.281-0.488-0.626-0.645-1.033
			S58.117,48.408,58.117,47.888z M62.537,47.407c0-0.65-0.137-1.146-0.409-1.488c-0.273-0.343-0.656-0.514-1.15-0.514
			c-0.227,0-0.44,0.045-0.645,0.137c-0.203,0.091-0.387,0.221-0.552,0.39s-0.302,0.377-0.409,0.624
			c-0.109,0.247-0.181,0.531-0.215,0.852H62.537z"/>
		<path fill="#92BFBF" d="M64.539,49.396c0-0.692,0.31-1.223,0.93-1.592c0.62-0.368,1.605-0.626,2.958-0.773
			c0-0.199-0.02-0.395-0.059-0.585s-0.109-0.36-0.209-0.507c-0.1-0.147-0.231-0.267-0.396-0.357
			c-0.164-0.092-0.377-0.137-0.637-0.137c-0.373,0-0.717,0.069-1.033,0.208s-0.601,0.294-0.852,0.468l-0.43-0.74
			c0.295-0.191,0.654-0.375,1.08-0.553c0.424-0.178,0.893-0.268,1.403-0.268c0.771,0,1.331,0.236,1.677,0.709
			c0.348,0.473,0.521,1.104,0.521,1.892v3.874h-0.884l-0.092-0.754h-0.025c-0.304,0.252-0.631,0.466-0.981,0.644
			c-0.351,0.177-0.722,0.267-1.112,0.267c-0.537,0-0.98-0.156-1.332-0.469C64.715,50.41,64.539,49.968,64.539,49.396z
			 M65.593,49.318c0,0.364,0.105,0.624,0.318,0.78c0.212,0.156,0.475,0.233,0.786,0.233c0.304,0,0.591-0.071,0.864-0.214
			c0.273-0.144,0.561-0.354,0.865-0.631v-1.755c-0.529,0.069-0.976,0.151-1.34,0.247c-0.363,0.096-0.656,0.207-0.877,0.338
			c-0.221,0.13-0.379,0.279-0.475,0.448S65.593,49.119,65.593,49.318z"/>
		<path fill="#92BFBF" d="M71.052,47.888c0-0.511,0.076-0.973,0.228-1.384s0.353-0.761,0.604-1.047s0.541-0.507,0.871-0.663
			c0.329-0.156,0.676-0.234,1.04-0.234s0.681,0.065,0.949,0.195c0.269,0.131,0.542,0.309,0.819,0.533l-0.053-1.079v-2.431h1.079
			v9.256h-0.884l-0.092-0.741h-0.039c-0.251,0.243-0.539,0.453-0.863,0.631c-0.326,0.177-0.674,0.267-1.047,0.267
			c-0.797,0-1.432-0.286-1.904-0.858C71.288,49.761,71.052,48.946,71.052,47.888z M72.157,47.875c0,0.763,0.151,1.356,0.455,1.781
			c0.303,0.425,0.732,0.637,1.287,0.637c0.294,0,0.571-0.071,0.832-0.214c0.26-0.144,0.52-0.362,0.779-0.656V46.12
			c-0.269-0.242-0.526-0.414-0.773-0.514s-0.5-0.149-0.76-0.149c-0.252,0-0.488,0.059-0.709,0.176
			c-0.221,0.116-0.414,0.282-0.578,0.493c-0.165,0.213-0.295,0.467-0.391,0.762S72.157,47.511,72.157,47.875z"/>
		<path fill="#92BFBF" d="M78.254,47.888c0-0.52,0.08-0.985,0.24-1.396c0.16-0.412,0.372-0.762,0.638-1.047
			c0.264-0.286,0.564-0.505,0.902-0.656c0.338-0.152,0.689-0.229,1.054-0.229c0.398,0,0.756,0.07,1.072,0.209
			s0.581,0.338,0.793,0.598s0.375,0.572,0.487,0.936c0.113,0.364,0.17,0.771,0.17,1.223c0,0.234-0.014,0.429-0.039,0.585h-4.265
			c0.044,0.685,0.253,1.226,0.631,1.625c0.377,0.398,0.868,0.598,1.476,0.598c0.303,0,0.582-0.046,0.838-0.136
			c0.256-0.092,0.501-0.211,0.734-0.357l0.377,0.701c-0.277,0.174-0.584,0.325-0.922,0.455c-0.339,0.13-0.725,0.195-1.158,0.195
			c-0.424,0-0.82-0.076-1.189-0.228c-0.368-0.151-0.688-0.368-0.961-0.65c-0.273-0.281-0.488-0.626-0.645-1.033
			S78.254,48.408,78.254,47.888z M82.674,47.407c0-0.65-0.137-1.146-0.409-1.488c-0.273-0.343-0.656-0.514-1.15-0.514
			c-0.227,0-0.44,0.045-0.645,0.137c-0.203,0.091-0.387,0.221-0.552,0.39s-0.302,0.377-0.409,0.624
			c-0.109,0.247-0.181,0.531-0.215,0.852H82.674z"/>
		<path fill="#92BFBF" d="M85.169,44.716h0.885l0.091,1.145h0.039c0.216-0.398,0.479-0.715,0.786-0.949s0.644-0.352,1.008-0.352
			c0.252,0,0.477,0.044,0.676,0.131l-0.208,0.936c-0.104-0.034-0.199-0.061-0.286-0.078c-0.086-0.018-0.195-0.025-0.324-0.025
			c-0.27,0-0.549,0.108-0.839,0.324c-0.29,0.217-0.544,0.594-0.761,1.131v4.057h-1.066V44.716z"/>
		<path fill="#FFFFFF" d="M92.683,51.281c0-0.233,0.008-0.457,0.02-0.669c0.014-0.213,0.026-0.418,0.039-0.618
			c0.014-0.199,0.026-0.398,0.039-0.599c0.014-0.199,0.02-0.406,0.02-0.623c0-0.131-0.018-0.254-0.052-0.371
			s-0.093-0.223-0.175-0.318c-0.083-0.096-0.197-0.173-0.346-0.234c-0.146-0.061-0.328-0.09-0.545-0.09v-0.677
			c0.217,0,0.398-0.03,0.545-0.091c0.148-0.061,0.263-0.137,0.346-0.228c0.082-0.091,0.141-0.197,0.175-0.318
			c0.034-0.122,0.052-0.243,0.052-0.364c0-0.416-0.02-0.828-0.059-1.234c-0.039-0.408-0.059-0.837-0.059-1.287
			c0-0.33,0.031-0.605,0.092-0.826s0.154-0.398,0.279-0.533c0.125-0.134,0.283-0.229,0.475-0.285
			c0.19-0.057,0.412-0.085,0.663-0.085h0.598v0.624h-0.364c-0.346,0-0.578,0.089-0.695,0.267s-0.176,0.479-0.176,0.903
			c0,0.382,0.014,0.77,0.039,1.164c0.026,0.395,0.039,0.791,0.039,1.189c0,0.424-0.061,0.747-0.182,0.969
			c-0.121,0.221-0.32,0.37-0.598,0.447v0.053c0.277,0.078,0.477,0.229,0.598,0.455c0.121,0.225,0.182,0.546,0.182,0.962
			c0,0.442-0.013,0.845-0.039,1.209c-0.025,0.364-0.039,0.745-0.039,1.144c0,0.425,0.059,0.729,0.176,0.91s0.35,0.273,0.695,0.273
			h0.364v0.611h-0.598c-0.251,0-0.473-0.029-0.663-0.085c-0.191-0.057-0.35-0.149-0.475-0.28c-0.125-0.129-0.219-0.305-0.279-0.525
			C92.714,51.898,92.683,51.619,92.683,51.281z"/>
		<path fill="#92BFBF" d="M58.403,59.065c-0.234-0.104-0.473-0.156-0.715-0.156c-0.59,0-0.885,0.408-0.885,1.223v1h1.34v0.871h-1.34
			v5.447h-1.065v-5.447H54.88v-0.806l0.858-0.065v-1c0-0.65,0.149-1.162,0.448-1.535c0.299-0.372,0.766-0.559,1.398-0.559
			c0.199,0,0.387,0.02,0.564,0.059s0.34,0.089,0.488,0.149L58.403,59.065z"/>
		<path fill="#92BFBF" d="M59.353,58.194h1.065v8.061c0,0.173,0.03,0.294,0.091,0.363s0.131,0.104,0.209,0.104
			c0.033,0,0.066,0,0.097,0s0.076-0.008,0.137-0.025l0.144,0.806c-0.07,0.034-0.152,0.061-0.248,0.078s-0.217,0.026-0.363,0.026
			c-0.408,0-0.698-0.121-0.871-0.364c-0.174-0.243-0.26-0.599-0.26-1.065V58.194z"/>
		<path fill="#92BFBF" d="M62.199,64.304c0-0.527,0.08-0.998,0.24-1.41s0.375-0.76,0.644-1.047c0.269-0.285,0.578-0.502,0.93-0.649
			s0.721-0.222,1.111-0.222s0.761,0.074,1.111,0.222c0.352,0.147,0.661,0.364,0.93,0.649c0.269,0.287,0.482,0.635,0.644,1.047
			c0.16,0.412,0.241,0.883,0.241,1.41c0,0.521-0.081,0.986-0.241,1.398c-0.161,0.411-0.375,0.758-0.644,1.039
			c-0.269,0.282-0.578,0.496-0.93,0.645c-0.351,0.146-0.721,0.221-1.111,0.221s-0.76-0.074-1.111-0.221
			c-0.352-0.148-0.661-0.362-0.93-0.645c-0.269-0.281-0.483-0.628-0.644-1.039C62.279,65.29,62.199,64.824,62.199,64.304z
			 M63.304,64.304c0,0.364,0.043,0.693,0.131,0.988c0.086,0.295,0.209,0.549,0.37,0.761c0.16,0.212,0.353,0.377,0.579,0.494
			c0.225,0.116,0.472,0.175,0.74,0.175s0.516-0.059,0.741-0.175c0.226-0.117,0.418-0.282,0.578-0.494
			c0.161-0.212,0.284-0.466,0.37-0.761c0.087-0.295,0.131-0.624,0.131-0.988c0-0.363-0.044-0.695-0.131-0.994
			c-0.086-0.299-0.209-0.557-0.37-0.773c-0.16-0.217-0.353-0.383-0.578-0.5s-0.473-0.176-0.741-0.176s-0.516,0.059-0.74,0.176
			c-0.227,0.117-0.419,0.283-0.579,0.5c-0.161,0.217-0.284,0.475-0.37,0.773C63.347,63.608,63.304,63.94,63.304,64.304z"/>
		<path fill="#92BFBF" d="M69.219,65.812c0-0.692,0.31-1.223,0.93-1.592c0.62-0.368,1.605-0.626,2.958-0.773
			c0-0.199-0.02-0.395-0.059-0.585s-0.109-0.36-0.209-0.507c-0.1-0.147-0.231-0.267-0.396-0.357
			c-0.164-0.092-0.377-0.137-0.637-0.137c-0.373,0-0.717,0.069-1.033,0.208s-0.601,0.294-0.852,0.468l-0.43-0.74
			c0.295-0.191,0.654-0.375,1.08-0.553c0.424-0.178,0.893-0.268,1.403-0.268c0.771,0,1.331,0.236,1.677,0.709
			c0.348,0.473,0.521,1.104,0.521,1.892v3.874h-0.884l-0.092-0.754h-0.025c-0.304,0.252-0.631,0.466-0.981,0.644
			c-0.351,0.177-0.722,0.267-1.112,0.267c-0.537,0-0.98-0.156-1.332-0.469C69.395,66.826,69.219,66.384,69.219,65.812z
			 M70.272,65.734c0,0.364,0.105,0.624,0.318,0.78c0.212,0.156,0.475,0.233,0.786,0.233c0.304,0,0.591-0.071,0.864-0.214
			c0.273-0.144,0.561-0.354,0.865-0.631v-1.755c-0.529,0.069-0.976,0.151-1.34,0.247c-0.363,0.096-0.656,0.207-0.877,0.338
			c-0.221,0.13-0.379,0.279-0.475,0.448S70.272,65.535,70.272,65.734z"/>
		<path fill="#92BFBF" d="M76.368,62.003h-0.936v-0.806l0.988-0.065l0.13-1.768h0.897v1.768h1.702v0.871h-1.702v3.51
			c0,0.391,0.07,0.691,0.214,0.904s0.396,0.318,0.761,0.318c0.112,0,0.234-0.018,0.363-0.053c0.131-0.034,0.248-0.072,0.352-0.116
			l0.208,0.806c-0.173,0.061-0.362,0.115-0.565,0.162c-0.204,0.048-0.405,0.072-0.604,0.072c-0.339,0-0.622-0.053-0.852-0.156
			s-0.416-0.247-0.56-0.43c-0.143-0.182-0.244-0.402-0.305-0.662s-0.092-0.547-0.092-0.858V62.003z"/>
		<path fill="#FFFFFF" d="M80.542,62.107c0-0.251,0.076-0.453,0.227-0.604c0.152-0.152,0.336-0.228,0.553-0.228
			c0.209,0,0.389,0.075,0.54,0.228c0.151,0.151,0.228,0.354,0.228,0.604c0,0.233-0.076,0.427-0.228,0.578s-0.331,0.228-0.54,0.228
			c-0.217,0-0.4-0.076-0.553-0.228C80.618,62.534,80.542,62.341,80.542,62.107z M80.542,66.8c0-0.251,0.076-0.452,0.227-0.604
			c0.152-0.152,0.336-0.229,0.553-0.229c0.209,0,0.389,0.076,0.54,0.229c0.151,0.151,0.228,0.353,0.228,0.604
			c0,0.234-0.076,0.428-0.228,0.579s-0.331,0.228-0.54,0.228c-0.217,0-0.4-0.076-0.553-0.228
			C80.618,67.228,80.542,67.034,80.542,66.8z"/>
		<path fill="#FFE88C" d="M86.626,58.194h1.065v8.061c0,0.173,0.03,0.294,0.091,0.363s0.131,0.104,0.209,0.104
			c0.033,0,0.066,0,0.097,0s0.076-0.008,0.137-0.025l0.144,0.806c-0.07,0.034-0.152,0.061-0.248,0.078s-0.217,0.026-0.363,0.026
			c-0.408,0-0.698-0.121-0.871-0.364c-0.174-0.243-0.26-0.599-0.26-1.065V58.194z"/>
		<path fill="#FFE88C" d="M89.473,64.304c0-0.52,0.08-0.985,0.24-1.396c0.16-0.412,0.372-0.762,0.638-1.047
			c0.264-0.286,0.564-0.505,0.902-0.656c0.338-0.152,0.689-0.229,1.054-0.229c0.398,0,0.756,0.07,1.072,0.209
			s0.581,0.338,0.793,0.598s0.375,0.572,0.487,0.936c0.113,0.364,0.17,0.771,0.17,1.223c0,0.234-0.014,0.429-0.039,0.585h-4.265
			c0.044,0.685,0.253,1.226,0.631,1.625c0.377,0.398,0.868,0.598,1.476,0.598c0.303,0,0.582-0.046,0.838-0.136
			c0.256-0.092,0.501-0.211,0.734-0.357l0.377,0.701c-0.277,0.174-0.584,0.325-0.922,0.455c-0.339,0.13-0.725,0.195-1.158,0.195
			c-0.424,0-0.82-0.076-1.189-0.228c-0.368-0.151-0.688-0.368-0.961-0.65c-0.273-0.281-0.488-0.626-0.645-1.033
			S89.473,64.824,89.473,64.304z M93.893,63.823c0-0.65-0.137-1.146-0.409-1.488c-0.273-0.343-0.656-0.514-1.15-0.514
			c-0.227,0-0.44,0.045-0.645,0.137c-0.203,0.091-0.387,0.221-0.552,0.39s-0.302,0.377-0.409,0.624
			c-0.109,0.247-0.181,0.531-0.215,0.852H93.893z"/>
		<path fill="#FFE88C" d="M102.876,67.372c-0.174,0.061-0.363,0.115-0.566,0.162c-0.203,0.048-0.405,0.072-0.604,0.072
			c-0.338,0-0.622-0.053-0.851-0.156c-0.23-0.104-0.416-0.247-0.56-0.43c-0.144-0.182-0.245-0.402-0.306-0.662
			s-0.091-0.547-0.091-0.858v-3.497h-2.263v5.447H96.57v-5.447h-0.858v-0.806l0.858-0.065v-1c0-0.65,0.149-1.162,0.448-1.535
			c0.299-0.372,0.766-0.559,1.398-0.559c0.199,0,0.387,0.02,0.564,0.059s0.34,0.089,0.488,0.149l-0.234,0.819
			c-0.234-0.104-0.473-0.156-0.715-0.156c-0.59,0-0.885,0.408-0.885,1.223v1h2.314l0.13-1.768h0.884v1.768h1.717v0.871h-1.717v3.51
			c0,0.391,0.074,0.691,0.221,0.904c0.148,0.213,0.404,0.318,0.768,0.318c0.113,0,0.234-0.018,0.364-0.053
			c0.13-0.034,0.247-0.072,0.351-0.116L102.876,67.372z"/>
		<path fill="#FFE88C" d="M103.837,69.036c0.364-0.164,0.65-0.381,0.858-0.65c0.208-0.268,0.312-0.58,0.312-0.936
			c-0.025,0.008-0.069,0.014-0.13,0.014c-0.208,0-0.388-0.063-0.54-0.189c-0.15-0.125-0.227-0.31-0.227-0.553
			c0-0.233,0.078-0.418,0.234-0.552c0.155-0.134,0.342-0.202,0.559-0.202c0.277,0,0.496,0.113,0.656,0.338
			c0.16,0.227,0.24,0.533,0.24,0.924c0,0.563-0.151,1.053-0.455,1.469c-0.303,0.416-0.719,0.736-1.248,0.962L103.837,69.036z
			 M104.071,62.107c0-0.251,0.076-0.453,0.227-0.604c0.152-0.152,0.336-0.228,0.553-0.228c0.209,0,0.389,0.075,0.54,0.228
			c0.151,0.151,0.228,0.354,0.228,0.604c0,0.233-0.076,0.427-0.228,0.578s-0.331,0.228-0.54,0.228c-0.217,0-0.4-0.076-0.553-0.228
			C104.147,62.534,104.071,62.341,104.071,62.107z"/>
		<path fill="#92BFBF" d="M55.089,80.304c0-0.527,0.082-0.998,0.246-1.41c0.165-0.412,0.386-0.76,0.663-1.047
			c0.277-0.285,0.601-0.502,0.969-0.649s0.756-0.222,1.163-0.222c0.416,0,0.773,0.076,1.072,0.229
			c0.3,0.151,0.557,0.326,0.773,0.525l-0.532,0.689c-0.19-0.164-0.388-0.299-0.592-0.402c-0.204-0.104-0.431-0.156-0.683-0.156
			c-0.285,0-0.551,0.059-0.793,0.176s-0.451,0.283-0.623,0.5c-0.174,0.217-0.311,0.475-0.41,0.773s-0.149,0.631-0.149,0.994
			c0,0.364,0.048,0.693,0.144,0.988c0.095,0.295,0.227,0.549,0.396,0.761c0.168,0.212,0.374,0.377,0.617,0.494
			c0.242,0.116,0.507,0.175,0.793,0.175c0.303,0,0.578-0.063,0.825-0.188c0.247-0.126,0.466-0.275,0.656-0.449l0.481,0.702
			c-0.286,0.251-0.604,0.45-0.955,0.599c-0.352,0.146-0.718,0.221-1.1,0.221c-0.416,0-0.806-0.074-1.17-0.221
			c-0.363-0.148-0.678-0.362-0.941-0.645c-0.266-0.281-0.473-0.628-0.625-1.039C55.164,81.29,55.089,80.824,55.089,80.304z"/>
		<path fill="#92BFBF" d="M60.743,80.304c0-0.527,0.08-0.998,0.24-1.41s0.375-0.76,0.644-1.047c0.269-0.285,0.579-0.502,0.93-0.649
			s0.722-0.222,1.111-0.222s0.761,0.074,1.111,0.222s0.661,0.364,0.93,0.649c0.269,0.287,0.483,0.635,0.644,1.047
			s0.24,0.883,0.24,1.41c0,0.521-0.08,0.986-0.24,1.398c-0.16,0.411-0.375,0.758-0.644,1.039c-0.269,0.282-0.579,0.496-0.93,0.645
			c-0.351,0.146-0.722,0.221-1.111,0.221s-0.761-0.074-1.111-0.221c-0.351-0.148-0.661-0.362-0.93-0.645
			c-0.269-0.281-0.483-0.628-0.644-1.039C60.823,81.29,60.743,80.824,60.743,80.304z M61.849,80.304
			c0,0.364,0.043,0.693,0.129,0.988c0.087,0.295,0.211,0.549,0.371,0.761s0.354,0.377,0.578,0.494
			c0.226,0.116,0.473,0.175,0.741,0.175s0.516-0.059,0.741-0.175c0.225-0.117,0.418-0.282,0.578-0.494s0.284-0.466,0.371-0.761
			c0.086-0.295,0.129-0.624,0.129-0.988c0-0.363-0.043-0.695-0.129-0.994c-0.087-0.299-0.211-0.557-0.371-0.773
			s-0.354-0.383-0.578-0.5c-0.226-0.117-0.473-0.176-0.741-0.176s-0.516,0.059-0.741,0.176c-0.225,0.117-0.418,0.283-0.578,0.5
			s-0.284,0.475-0.371,0.773C61.892,79.608,61.849,79.94,61.849,80.304z"/>
		<path fill="#92BFBF" d="M68.257,74.194h1.066v8.061c0,0.173,0.029,0.294,0.091,0.363c0.061,0.069,0.13,0.104,0.208,0.104
			c0.034,0,0.066,0,0.098,0c0.029,0,0.076-0.008,0.137-0.025l0.143,0.806c-0.069,0.034-0.152,0.061-0.247,0.078
			c-0.096,0.018-0.217,0.026-0.364,0.026c-0.407,0-0.697-0.121-0.871-0.364s-0.26-0.599-0.26-1.065V74.194z"/>
		<path fill="#92BFBF" d="M71.104,80.304c0-0.527,0.08-0.998,0.24-1.41s0.375-0.76,0.643-1.047c0.27-0.285,0.579-0.502,0.93-0.649
			c0.352-0.147,0.722-0.222,1.111-0.222c0.391,0,0.762,0.074,1.111,0.222c0.352,0.147,0.662,0.364,0.93,0.649
			c0.27,0.287,0.483,0.635,0.645,1.047c0.16,0.412,0.24,0.883,0.24,1.41c0,0.521-0.08,0.986-0.24,1.398
			c-0.161,0.411-0.375,0.758-0.645,1.039c-0.268,0.282-0.578,0.496-0.93,0.645c-0.35,0.146-0.721,0.221-1.111,0.221
			c-0.39,0-0.76-0.074-1.111-0.221c-0.351-0.148-0.66-0.362-0.93-0.645c-0.268-0.281-0.482-0.628-0.643-1.039
			C71.185,81.29,71.104,80.824,71.104,80.304z M72.209,80.304c0,0.364,0.043,0.693,0.13,0.988c0.086,0.295,0.21,0.549,0.371,0.761
			c0.16,0.212,0.353,0.377,0.578,0.494c0.225,0.116,0.473,0.175,0.74,0.175c0.27,0,0.516-0.059,0.742-0.175
			c0.225-0.117,0.418-0.282,0.578-0.494s0.283-0.466,0.37-0.761s0.13-0.624,0.13-0.988c0-0.363-0.043-0.695-0.13-0.994
			s-0.21-0.557-0.37-0.773s-0.354-0.383-0.578-0.5c-0.227-0.117-0.473-0.176-0.742-0.176c-0.268,0-0.516,0.059-0.74,0.176
			c-0.226,0.117-0.418,0.283-0.578,0.5c-0.161,0.217-0.285,0.475-0.371,0.773C72.252,79.608,72.209,79.94,72.209,80.304z"/>
		<path fill="#92BFBF" d="M78.618,77.132h0.884l0.091,1.145h0.039c0.217-0.398,0.479-0.715,0.787-0.949
			c0.307-0.234,0.643-0.352,1.007-0.352c0.251,0,0.477,0.044,0.676,0.131l-0.208,0.936c-0.104-0.034-0.199-0.061-0.285-0.078
			c-0.088-0.018-0.195-0.025-0.326-0.025c-0.268,0-0.548,0.108-0.838,0.324c-0.291,0.217-0.544,0.594-0.761,1.131v4.057h-1.065
			V77.132z"/>
		<path fill="#FFFFFF" d="M82.907,78.107c0-0.251,0.076-0.453,0.228-0.604c0.151-0.152,0.336-0.228,0.553-0.228
			c0.208,0,0.388,0.075,0.54,0.228c0.15,0.151,0.227,0.354,0.227,0.604c0,0.233-0.076,0.427-0.227,0.578
			c-0.152,0.151-0.332,0.228-0.54,0.228c-0.217,0-0.401-0.076-0.553-0.228S82.907,78.341,82.907,78.107z M82.907,82.8
			c0-0.251,0.076-0.452,0.228-0.604c0.151-0.152,0.336-0.229,0.553-0.229c0.208,0,0.388,0.076,0.54,0.229
			c0.15,0.151,0.227,0.353,0.227,0.604c0,0.234-0.076,0.428-0.227,0.579c-0.152,0.151-0.332,0.228-0.54,0.228
			c-0.217,0-0.401-0.076-0.553-0.228S82.907,83.034,82.907,82.8z"/>
		<path fill="#FFE88C" d="M92.865,76.638c-0.243-0.233-0.479-0.416-0.708-0.545c-0.23-0.131-0.522-0.195-0.878-0.195
			c-0.399,0-0.715,0.112-0.949,0.338c-0.233,0.225-0.351,0.529-0.351,0.91c0,0.312,0.088,0.567,0.266,0.767
			c0.178,0.2,0.401,0.375,0.67,0.526c0.269,0.152,0.562,0.299,0.878,0.442c0.315,0.144,0.608,0.316,0.878,0.521
			c0.268,0.203,0.491,0.454,0.669,0.754c0.177,0.299,0.267,0.682,0.267,1.15c0,0.623-0.18,1.135-0.539,1.533
			c-0.36,0.398-0.852,0.642-1.477,0.729v1.313h-0.779v-1.287c-0.416-0.043-0.819-0.158-1.209-0.344
			c-0.391-0.187-0.725-0.405-1.002-0.656l0.494-0.742c0.277,0.243,0.584,0.449,0.917,0.618s0.7,0.253,1.099,0.253
			c0.485,0,0.848-0.121,1.086-0.363s0.357-0.568,0.357-0.975c0-0.348-0.09-0.635-0.268-0.865c-0.178-0.229-0.4-0.429-0.669-0.598
			c-0.269-0.17-0.562-0.327-0.878-0.475s-0.608-0.316-0.877-0.508c-0.269-0.189-0.492-0.422-0.67-0.695
			c-0.178-0.272-0.266-0.621-0.266-1.046c0-0.581,0.17-1.063,0.514-1.45c0.342-0.385,0.799-0.625,1.371-0.721v-1.301h0.779v1.287
			c0.416,0.044,0.77,0.156,1.061,0.338c0.289,0.183,0.552,0.399,0.786,0.65L92.865,76.638z"/>
		<path fill="#FFE88C" d="M96.519,83.983v2.132h-1.066v-8.983h0.885l0.09,0.729h0.039c0.287-0.242,0.601-0.451,0.943-0.624
			c0.342-0.173,0.699-0.261,1.072-0.261c0.407,0,0.767,0.076,1.078,0.229c0.313,0.151,0.572,0.368,0.781,0.649
			c0.207,0.282,0.365,0.62,0.475,1.015c0.107,0.395,0.162,0.838,0.162,1.332c0,0.537-0.074,1.016-0.221,1.437
			c-0.148,0.421-0.348,0.778-0.599,1.072c-0.251,0.295-0.542,0.519-0.871,0.67s-0.676,0.228-1.04,0.228
			c-0.295,0-0.587-0.065-0.877-0.195c-0.291-0.13-0.584-0.308-0.878-0.533L96.519,83.983z M96.519,82.046
			c0.285,0.243,0.563,0.414,0.832,0.514c0.268,0.1,0.507,0.149,0.715,0.149c0.26,0,0.5-0.058,0.721-0.175
			c0.222-0.117,0.412-0.282,0.572-0.494c0.16-0.213,0.286-0.475,0.377-0.787c0.092-0.312,0.137-0.662,0.137-1.053
			c0-0.347-0.03-0.663-0.091-0.949c-0.061-0.285-0.158-0.531-0.292-0.734c-0.135-0.203-0.309-0.361-0.521-0.475
			c-0.212-0.112-0.466-0.169-0.761-0.169c-0.269,0-0.539,0.073-0.813,0.222c-0.273,0.146-0.565,0.359-0.877,0.637V82.046z"/>
		<path fill="#FFE88C" d="M102.667,77.132h0.885l0.09,1.145h0.039c0.217-0.398,0.479-0.715,0.787-0.949
			c0.307-0.234,0.643-0.352,1.008-0.352c0.251,0,0.477,0.044,0.676,0.131l-0.209,0.936c-0.104-0.034-0.199-0.061-0.285-0.078
			c-0.087-0.018-0.195-0.025-0.325-0.025c-0.269,0-0.548,0.108-0.839,0.324c-0.29,0.217-0.543,0.594-0.76,1.131v4.057h-1.066V77.132
			z"/>
		<path fill="#FFE88C" d="M107.724,75.832c-0.208,0-0.383-0.065-0.526-0.194c-0.144-0.131-0.214-0.295-0.214-0.494
			c0-0.209,0.07-0.375,0.214-0.501s0.318-0.188,0.526-0.188s0.384,0.063,0.527,0.188c0.143,0.126,0.214,0.292,0.214,0.501
			c0,0.199-0.071,0.363-0.214,0.494C108.107,75.767,107.932,75.832,107.724,75.832z M107.178,77.132h1.065v6.318h-1.065V77.132z"/>
		<path fill="#FFE88C" d="M110.376,77.132h0.885l0.09,0.91h0.039c0.277-0.303,0.579-0.557,0.904-0.76
			c0.324-0.204,0.678-0.307,1.059-0.307c0.486,0,0.865,0.107,1.139,0.319c0.272,0.212,0.474,0.509,0.604,0.89
			c0.33-0.363,0.661-0.656,0.994-0.877c0.334-0.221,0.696-0.332,1.086-0.332c0.65,0,1.133,0.209,1.45,0.625
			c0.315,0.416,0.474,1.031,0.474,1.846v4.004h-1.065v-3.861c0-0.598-0.096-1.029-0.286-1.293c-0.19-0.265-0.485-0.396-0.884-0.396
			c-0.478,0-1.006,0.324-1.587,0.975v4.576h-1.065v-3.861c0-0.598-0.095-1.029-0.286-1.293c-0.19-0.265-0.489-0.396-0.896-0.396
			c-0.477,0-1.006,0.324-1.586,0.975v4.576h-1.066V77.132z"/>
		<path fill="#FFE88C" d="M120.841,81.812c0-0.692,0.31-1.223,0.93-1.592c0.619-0.368,1.605-0.626,2.957-0.773
			c0-0.199-0.02-0.395-0.059-0.585c-0.038-0.19-0.108-0.36-0.208-0.507c-0.1-0.147-0.231-0.267-0.396-0.357
			c-0.164-0.092-0.377-0.137-0.637-0.137c-0.372,0-0.717,0.069-1.033,0.208s-0.601,0.294-0.852,0.468l-0.429-0.74
			c0.294-0.191,0.654-0.375,1.079-0.553c0.424-0.178,0.892-0.268,1.403-0.268c0.771,0,1.33,0.236,1.677,0.709
			s0.521,1.104,0.521,1.892v3.874h-0.884l-0.091-0.754h-0.026c-0.304,0.252-0.631,0.466-0.981,0.644
			c-0.352,0.177-0.722,0.267-1.111,0.267c-0.538,0-0.981-0.156-1.333-0.469C121.017,82.826,120.841,82.384,120.841,81.812z
			 M121.894,81.734c0,0.364,0.106,0.624,0.319,0.78c0.212,0.156,0.474,0.233,0.786,0.233c0.303,0,0.592-0.071,0.864-0.214
			c0.273-0.144,0.562-0.354,0.864-0.631v-1.755c-0.528,0.069-0.975,0.151-1.339,0.247c-0.363,0.096-0.656,0.207-0.877,0.338
			c-0.222,0.13-0.38,0.279-0.475,0.448C121.941,81.351,121.894,81.535,121.894,81.734z"/>
		<path fill="#FFE88C" d="M127.81,77.132h0.884l0.091,1.145h0.039c0.217-0.398,0.479-0.715,0.786-0.949s0.644-0.352,1.008-0.352
			c0.251,0,0.477,0.044,0.676,0.131l-0.208,0.936c-0.104-0.034-0.199-0.061-0.286-0.078c-0.086-0.018-0.194-0.025-0.324-0.025
			c-0.27,0-0.549,0.108-0.839,0.324c-0.291,0.217-0.544,0.594-0.761,1.131v4.057h-1.065V77.132z"/>
		<path fill="#FFE88C" d="M132.371,85.251c0.087,0.021,0.169,0.032,0.247,0.032c0.364,0,0.66-0.128,0.891-0.384
			c0.229-0.256,0.409-0.578,0.539-0.969l0.144-0.467l-2.535-6.332h1.104l1.287,3.498c0.096,0.277,0.197,0.569,0.306,0.877
			s0.21,0.609,0.306,0.903h0.052c0.096-0.286,0.187-0.585,0.273-0.897c0.086-0.312,0.173-0.605,0.26-0.883l1.131-3.498h1.04
			l-2.379,6.838c-0.113,0.313-0.238,0.603-0.377,0.871c-0.139,0.27-0.304,0.501-0.494,0.695c-0.19,0.195-0.407,0.35-0.65,0.462
			c-0.242,0.112-0.524,0.169-0.845,0.169c-0.147,0-0.281-0.011-0.403-0.032c-0.121-0.022-0.233-0.054-0.338-0.098l0.208-0.845
			C132.206,85.21,132.284,85.229,132.371,85.251z"/>
		<path fill="#FFFFFF" d="M138.183,85.036c0.363-0.164,0.649-0.381,0.857-0.65c0.208-0.268,0.313-0.58,0.313-0.936
			c-0.026,0.008-0.069,0.014-0.13,0.014c-0.208,0-0.389-0.063-0.54-0.189c-0.151-0.125-0.228-0.31-0.228-0.553
			c0-0.233,0.078-0.418,0.234-0.552s0.342-0.202,0.559-0.202c0.277,0,0.496,0.113,0.657,0.338c0.16,0.227,0.24,0.533,0.24,0.924
			c0,0.563-0.152,1.053-0.455,1.469c-0.304,0.416-0.72,0.736-1.248,0.962L138.183,85.036z M138.416,78.107
			c0-0.251,0.076-0.453,0.228-0.604c0.151-0.152,0.336-0.228,0.553-0.228c0.208,0,0.388,0.075,0.539,0.228
			c0.152,0.151,0.228,0.354,0.228,0.604c0,0.233-0.075,0.427-0.228,0.578c-0.151,0.151-0.331,0.228-0.539,0.228
			c-0.217,0-0.401-0.076-0.553-0.228S138.416,78.341,138.416,78.107z"/>
		<path fill="#F48A46" d="M55.153,96.812c0-0.867,0.145-1.655,0.436-2.366c0.29-0.711,0.685-1.317,1.184-1.82
			c0.498-0.502,1.074-0.891,1.729-1.163c0.654-0.273,1.346-0.41,2.073-0.41c0.659,0,1.25,0.104,1.774,0.313s0.971,0.5,1.339,0.877
			c0.368,0.378,0.652,0.83,0.852,1.359c0.199,0.528,0.3,1.113,0.3,1.755c0,0.571-0.081,1.072-0.241,1.501
			c-0.16,0.43-0.366,0.789-0.617,1.079c-0.251,0.291-0.531,0.51-0.839,0.656c-0.308,0.147-0.609,0.222-0.903,0.222
			c-0.355,0-0.657-0.083-0.903-0.247c-0.247-0.165-0.393-0.412-0.436-0.741h-0.026c-0.216,0.252-0.464,0.462-0.741,0.631
			s-0.559,0.253-0.845,0.253c-0.442,0-0.813-0.156-1.111-0.468c-0.299-0.313-0.448-0.767-0.448-1.365
			c0-0.347,0.059-0.699,0.176-1.06c0.116-0.359,0.283-0.685,0.5-0.975s0.479-0.526,0.787-0.709c0.307-0.182,0.651-0.272,1.033-0.272
			c0.225,0,0.424,0.05,0.598,0.149s0.32,0.258,0.441,0.475h0.026l0.144-0.521h0.715l-0.508,2.601
			c-0.26,1.014-0.025,1.521,0.703,1.521c0.207,0,0.413-0.061,0.617-0.182c0.203-0.121,0.39-0.297,0.559-0.526
			s0.306-0.512,0.41-0.846c0.104-0.333,0.156-0.712,0.156-1.137c0-0.521-0.076-1.003-0.229-1.45
			c-0.151-0.446-0.379-0.829-0.682-1.15c-0.305-0.32-0.682-0.571-1.131-0.754c-0.451-0.182-0.972-0.272-1.561-0.272
			c-0.581,0-1.145,0.119-1.689,0.357c-0.547,0.238-1.032,0.574-1.457,1.007c-0.424,0.434-0.765,0.958-1.02,1.573
			c-0.256,0.615-0.385,1.305-0.385,2.067c0,0.633,0.098,1.195,0.293,1.689s0.466,0.91,0.813,1.248s0.756,0.596,1.229,0.773
			s0.986,0.267,1.541,0.267c0.398,0,0.775-0.054,1.131-0.162s0.68-0.249,0.975-0.423l0.286,0.637
			c-0.737,0.442-1.56,0.663-2.47,0.663c-0.642,0-1.24-0.1-1.795-0.299s-1.037-0.496-1.449-0.891
			c-0.411-0.395-0.736-0.882-0.975-1.462C55.272,98.232,55.153,97.565,55.153,96.812z M58.585,96.812
			c0,0.416,0.087,0.715,0.26,0.896c0.174,0.183,0.391,0.273,0.65,0.273c0.182,0,0.371-0.061,0.565-0.183
			c0.195-0.121,0.405-0.315,0.631-0.585l0.377-2.066c-0.122-0.199-0.247-0.34-0.377-0.423c-0.13-0.082-0.282-0.123-0.455-0.123
			c-0.261,0-0.492,0.069-0.696,0.208c-0.203,0.139-0.377,0.316-0.52,0.532c-0.143,0.217-0.252,0.455-0.324,0.716
			C58.622,96.317,58.585,96.568,58.585,96.812z"/>
		<path fill="#F48A46" d="M67.112,91.832c-0.207,0-0.383-0.064-0.525-0.195c-0.144-0.13-0.215-0.294-0.215-0.493
			c0-0.209,0.071-0.375,0.215-0.501c0.143-0.126,0.318-0.188,0.525-0.188c0.209,0,0.385,0.063,0.527,0.188s0.215,0.292,0.215,0.501
			c0,0.199-0.072,0.363-0.215,0.493C67.497,91.768,67.321,91.832,67.112,91.832z M66.567,93.132h1.065v6.318h-1.065V93.132z"/>
		<path fill="#F48A46" d="M69.765,93.132h0.885l0.09,0.91h0.039c0.304-0.303,0.622-0.557,0.956-0.761
			c0.333-0.203,0.722-0.305,1.163-0.305c0.668,0,1.155,0.208,1.463,0.624s0.461,1.031,0.461,1.846v4.004h-1.065v-3.861
			c0-0.598-0.096-1.028-0.286-1.293c-0.191-0.265-0.494-0.396-0.91-0.396c-0.329,0-0.619,0.082-0.871,0.247
			c-0.251,0.164-0.537,0.407-0.857,0.728v4.576h-1.066V93.132z"/>
		<path fill="#F48A46" d="M76.407,96.304c0-0.528,0.082-0.998,0.248-1.41c0.164-0.411,0.385-0.761,0.662-1.046
			c0.277-0.286,0.6-0.503,0.969-0.65c0.368-0.147,0.756-0.221,1.164-0.221c0.416,0,0.773,0.075,1.072,0.228
			c0.299,0.151,0.557,0.327,0.773,0.526l-0.533,0.688c-0.191-0.164-0.389-0.299-0.592-0.402c-0.203-0.104-0.432-0.156-0.682-0.156
			c-0.287,0-0.551,0.059-0.793,0.176c-0.244,0.116-0.451,0.283-0.625,0.5s-0.31,0.475-0.409,0.773s-0.149,0.631-0.149,0.994
			c0,0.364,0.047,0.694,0.143,0.988c0.096,0.295,0.229,0.549,0.396,0.761c0.17,0.213,0.375,0.377,0.617,0.494
			c0.243,0.117,0.508,0.176,0.793,0.176c0.304,0,0.579-0.063,0.826-0.188c0.247-0.126,0.466-0.275,0.656-0.449l0.481,0.702
			c-0.286,0.252-0.604,0.451-0.956,0.598c-0.351,0.147-0.717,0.222-1.098,0.222c-0.416,0-0.807-0.074-1.17-0.222
			c-0.365-0.146-0.679-0.361-0.943-0.644c-0.264-0.281-0.473-0.628-0.623-1.039C76.483,97.29,76.407,96.824,76.407,96.304z"/>
		<path fill="#F48A46" d="M82.804,90.194h1.066v8.06c0,0.174,0.029,0.295,0.091,0.364c0.061,0.069,0.13,0.104,0.208,0.104
			c0.034,0,0.066,0,0.098,0c0.029,0,0.076-0.009,0.137-0.026l0.143,0.806c-0.069,0.035-0.152,0.061-0.247,0.078
			c-0.096,0.018-0.217,0.026-0.364,0.026c-0.407,0-0.697-0.122-0.871-0.364s-0.26-0.598-0.26-1.066V90.194z"/>
		<path fill="#F48A46" d="M86.028,93.132h1.078v3.861c0,0.598,0.094,1.029,0.279,1.294c0.187,0.264,0.488,0.396,0.904,0.396
			c0.329,0,0.619-0.085,0.871-0.254c0.251-0.169,0.528-0.439,0.832-0.813v-4.485h1.065v6.318h-0.884l-0.092-0.988h-0.038
			c-0.295,0.347-0.604,0.624-0.93,0.832s-0.708,0.313-1.15,0.313c-0.677,0-1.168-0.208-1.476-0.624s-0.461-1.031-0.461-1.847V93.132
			z"/>
		<path fill="#F48A46" d="M92.735,96.304c0-0.511,0.076-0.973,0.228-1.384c0.151-0.412,0.353-0.761,0.604-1.047
			s0.541-0.507,0.871-0.663c0.329-0.156,0.676-0.233,1.04-0.233s0.681,0.064,0.949,0.194s0.542,0.308,0.819,0.533l-0.053-1.079
			v-2.431h1.079v9.256H97.39l-0.092-0.741h-0.039c-0.251,0.243-0.539,0.453-0.863,0.631c-0.326,0.178-0.674,0.267-1.047,0.267
			c-0.797,0-1.432-0.286-1.904-0.858S92.735,97.361,92.735,96.304z M93.841,96.291c0,0.763,0.151,1.356,0.455,1.781
			c0.303,0.425,0.732,0.637,1.287,0.637c0.294,0,0.571-0.071,0.832-0.214c0.26-0.144,0.52-0.362,0.779-0.657v-3.302
			c-0.269-0.242-0.526-0.414-0.773-0.514s-0.5-0.149-0.76-0.149c-0.252,0-0.488,0.059-0.709,0.176s-0.414,0.281-0.578,0.494
			c-0.165,0.212-0.295,0.466-0.391,0.76C93.888,95.598,93.841,95.927,93.841,96.291z"/>
		<path fill="#F48A46" d="M99.938,96.304c0-0.52,0.08-0.985,0.24-1.397c0.16-0.411,0.372-0.76,0.638-1.046
			c0.264-0.286,0.564-0.505,0.902-0.656c0.338-0.152,0.689-0.228,1.054-0.228c0.398,0,0.756,0.069,1.072,0.208
			s0.581,0.338,0.793,0.598s0.375,0.572,0.487,0.936c0.113,0.364,0.17,0.771,0.17,1.223c0,0.233-0.014,0.429-0.039,0.585h-4.265
			c0.044,0.685,0.253,1.227,0.631,1.625c0.377,0.398,0.868,0.598,1.476,0.598c0.303,0,0.582-0.045,0.838-0.137
			c0.256-0.091,0.501-0.21,0.734-0.357l0.377,0.702c-0.277,0.174-0.584,0.325-0.922,0.455c-0.339,0.13-0.725,0.195-1.158,0.195
			c-0.424,0-0.82-0.076-1.189-0.228c-0.368-0.151-0.688-0.368-0.961-0.65c-0.273-0.281-0.488-0.626-0.645-1.033
			S99.938,96.824,99.938,96.304z M104.357,95.823c0-0.65-0.137-1.146-0.409-1.488c-0.273-0.343-0.656-0.514-1.15-0.514
			c-0.227,0-0.44,0.045-0.645,0.137c-0.203,0.091-0.387,0.221-0.552,0.39s-0.302,0.377-0.409,0.624
			c-0.109,0.247-0.181,0.531-0.215,0.852H104.357z"/>
		<path fill="#F48A46" d="M110.545,99.983v2.132h-1.065v-8.983h0.884l0.091,0.729h0.039c0.286-0.243,0.6-0.451,0.942-0.624
			c0.343-0.174,0.7-0.26,1.073-0.26c0.406,0,0.766,0.075,1.078,0.228c0.313,0.151,0.572,0.368,0.78,0.649
			c0.208,0.282,0.366,0.62,0.475,1.015c0.108,0.394,0.162,0.838,0.162,1.332c0,0.537-0.073,1.017-0.221,1.437
			c-0.147,0.421-0.347,0.778-0.599,1.072c-0.251,0.295-0.541,0.519-0.871,0.67c-0.329,0.151-0.676,0.228-1.039,0.228
			c-0.295,0-0.588-0.065-0.878-0.195s-0.583-0.308-0.878-0.533L110.545,99.983z M110.545,98.046
			c0.286,0.243,0.563,0.414,0.832,0.514s0.507,0.149,0.716,0.149c0.26,0,0.5-0.059,0.721-0.175c0.221-0.117,0.412-0.282,0.572-0.494
			c0.16-0.213,0.285-0.475,0.377-0.787c0.091-0.312,0.137-0.663,0.137-1.053c0-0.347-0.031-0.663-0.092-0.949
			s-0.158-0.53-0.292-0.734c-0.134-0.203-0.308-0.361-0.521-0.475c-0.212-0.112-0.465-0.169-0.76-0.169
			c-0.27,0-0.539,0.074-0.813,0.221c-0.273,0.147-0.566,0.36-0.878,0.638V98.046z"/>
		<path fill="#F48A46" d="M116.2,97.813c0-0.693,0.311-1.225,0.93-1.593s1.605-0.626,2.957-0.773c0-0.199-0.02-0.395-0.059-0.585
			c-0.038-0.19-0.108-0.359-0.208-0.507s-0.231-0.267-0.396-0.357c-0.164-0.092-0.377-0.137-0.637-0.137
			c-0.372,0-0.717,0.069-1.033,0.208s-0.601,0.295-0.852,0.468l-0.429-0.741c0.294-0.19,0.654-0.374,1.079-0.552
			c0.424-0.178,0.892-0.267,1.403-0.267c0.771,0,1.33,0.236,1.677,0.708c0.347,0.473,0.521,1.104,0.521,1.892v3.874h-0.884
			l-0.091-0.754h-0.026c-0.304,0.251-0.631,0.466-0.981,0.644c-0.352,0.178-0.722,0.267-1.111,0.267
			c-0.538,0-0.981-0.156-1.333-0.468C116.376,98.826,116.2,98.384,116.2,97.813z M117.253,97.734c0,0.364,0.106,0.624,0.319,0.78
			c0.212,0.155,0.474,0.233,0.786,0.233c0.303,0,0.592-0.071,0.864-0.214c0.273-0.144,0.562-0.354,0.864-0.631v-1.755
			c-0.528,0.069-0.975,0.151-1.339,0.247c-0.363,0.095-0.656,0.208-0.877,0.338c-0.222,0.13-0.38,0.279-0.475,0.448
			C117.301,97.351,117.253,97.535,117.253,97.734z"/>
		<path fill="#F48A46" d="M122.713,96.304c0-0.511,0.075-0.973,0.228-1.384c0.151-0.412,0.353-0.761,0.604-1.047
			c0.251-0.286,0.541-0.507,0.871-0.663c0.329-0.156,0.676-0.233,1.039-0.233c0.364,0,0.681,0.064,0.949,0.194
			s0.542,0.308,0.819,0.533l-0.052-1.079v-2.431h1.079v9.256h-0.885l-0.091-0.741h-0.039c-0.251,0.243-0.539,0.453-0.864,0.631
			s-0.674,0.267-1.047,0.267c-0.797,0-1.432-0.286-1.904-0.858S122.713,97.361,122.713,96.304z M123.817,96.291
			c0,0.763,0.151,1.356,0.455,1.781s0.732,0.637,1.287,0.637c0.295,0,0.572-0.071,0.832-0.214c0.26-0.144,0.52-0.362,0.78-0.657
			v-3.302c-0.27-0.242-0.526-0.414-0.773-0.514s-0.501-0.149-0.761-0.149c-0.252,0-0.487,0.059-0.709,0.176
			c-0.221,0.117-0.414,0.281-0.578,0.494c-0.165,0.212-0.295,0.466-0.39,0.76C123.865,95.598,123.817,95.927,123.817,96.291z"/>
		<path fill="#F48A46" d="M129.928,96.304c0-0.511,0.075-0.973,0.228-1.384c0.151-0.412,0.353-0.761,0.604-1.047
			c0.251-0.286,0.541-0.507,0.871-0.663c0.329-0.156,0.676-0.233,1.039-0.233c0.364,0,0.681,0.064,0.949,0.194
			s0.542,0.308,0.819,0.533l-0.052-1.079v-2.431h1.079v9.256h-0.885l-0.091-0.741h-0.039c-0.251,0.243-0.539,0.453-0.864,0.631
			s-0.674,0.267-1.047,0.267c-0.797,0-1.432-0.286-1.904-0.858S129.928,97.361,129.928,96.304z M131.032,96.291
			c0,0.763,0.151,1.356,0.455,1.781s0.732,0.637,1.287,0.637c0.295,0,0.572-0.071,0.832-0.214c0.26-0.144,0.52-0.362,0.78-0.657
			v-3.302c-0.27-0.242-0.526-0.414-0.773-0.514s-0.501-0.149-0.761-0.149c-0.252,0-0.487,0.059-0.709,0.176
			c-0.221,0.117-0.414,0.281-0.578,0.494c-0.165,0.212-0.295,0.466-0.39,0.76C131.08,95.598,131.032,95.927,131.032,96.291z"/>
		<path fill="#F48A46" d="M138.145,91.832c-0.208,0-0.384-0.064-0.526-0.195c-0.144-0.13-0.215-0.294-0.215-0.493
			c0-0.209,0.071-0.375,0.215-0.501c0.143-0.126,0.318-0.188,0.526-0.188s0.383,0.063,0.526,0.188
			c0.143,0.126,0.214,0.292,0.214,0.501c0,0.199-0.071,0.363-0.214,0.493C138.527,91.768,138.353,91.832,138.145,91.832z
			 M137.599,93.132h1.065v6.318h-1.065V93.132z"/>
		<path fill="#F48A46" d="M140.796,93.132h0.884l0.091,0.91h0.039c0.303-0.303,0.622-0.557,0.955-0.761
			c0.334-0.203,0.722-0.305,1.164-0.305c0.667,0,1.154,0.208,1.462,0.624s0.462,1.031,0.462,1.846v4.004h-1.066v-3.861
			c0-0.598-0.095-1.028-0.285-1.293c-0.191-0.265-0.494-0.396-0.91-0.396c-0.33,0-0.62,0.082-0.871,0.247
			c-0.252,0.164-0.538,0.407-0.858,0.728v4.576h-1.065V93.132z"/>
		<path fill="#F48A46" d="M147.426,100.659c0-0.269,0.082-0.524,0.247-0.767c0.164-0.243,0.39-0.464,0.676-0.663v-0.053
			c-0.156-0.095-0.288-0.228-0.396-0.396s-0.162-0.379-0.162-0.63c0-0.269,0.073-0.503,0.221-0.702s0.304-0.355,0.468-0.468v-0.053
			c-0.208-0.173-0.396-0.404-0.565-0.695c-0.169-0.29-0.253-0.626-0.253-1.007c0-0.347,0.063-0.659,0.188-0.937
			c0.125-0.277,0.297-0.514,0.514-0.708c0.216-0.195,0.47-0.345,0.76-0.449c0.29-0.104,0.596-0.155,0.917-0.155
			c0.173,0,0.336,0.015,0.487,0.045s0.288,0.067,0.409,0.11h2.197v0.819h-1.3c0.147,0.147,0.271,0.334,0.37,0.559
			c0.1,0.226,0.149,0.473,0.149,0.741c0,0.338-0.061,0.644-0.182,0.917c-0.121,0.272-0.286,0.503-0.494,0.688
			c-0.208,0.187-0.453,0.332-0.734,0.436c-0.282,0.104-0.583,0.156-0.903,0.156c-0.156,0-0.316-0.02-0.481-0.059
			c-0.164-0.039-0.32-0.093-0.468-0.162c-0.112,0.095-0.208,0.201-0.286,0.318s-0.117,0.262-0.117,0.436
			c0,0.199,0.078,0.363,0.234,0.494c0.156,0.13,0.45,0.194,0.884,0.194h1.222c0.737,0,1.289,0.119,1.658,0.357
			c0.368,0.239,0.553,0.622,0.553,1.15c0,0.295-0.074,0.574-0.222,0.839s-0.359,0.496-0.637,0.695s-0.613,0.357-1.008,0.475
			s-0.838,0.176-1.332,0.176c-0.391,0-0.746-0.037-1.066-0.11c-0.32-0.074-0.596-0.185-0.825-0.332s-0.407-0.325-0.533-0.533
			S147.426,100.937,147.426,100.659z M148.362,100.517c0,0.338,0.162,0.606,0.487,0.806s0.773,0.299,1.345,0.299
			c0.304,0,0.579-0.037,0.826-0.11c0.247-0.074,0.457-0.169,0.63-0.286c0.174-0.117,0.308-0.253,0.403-0.409
			s0.144-0.316,0.144-0.481c0-0.295-0.109-0.498-0.325-0.61c-0.217-0.113-0.533-0.17-0.949-0.17h-1.092
			c-0.122,0-0.254-0.006-0.396-0.019c-0.144-0.014-0.284-0.042-0.423-0.085c-0.226,0.164-0.39,0.338-0.494,0.52
			C148.414,100.152,148.362,100.334,148.362,100.517z M150.039,96.733c0.182,0,0.353-0.035,0.514-0.104
			c0.16-0.069,0.303-0.169,0.429-0.299c0.125-0.13,0.223-0.288,0.292-0.475s0.104-0.396,0.104-0.63c0-0.469-0.13-0.83-0.39-1.086
			c-0.261-0.256-0.577-0.384-0.949-0.384c-0.373,0-0.689,0.128-0.949,0.384s-0.39,0.617-0.39,1.086c0,0.233,0.034,0.443,0.104,0.63
			s0.167,0.345,0.293,0.475c0.125,0.13,0.269,0.229,0.429,0.299S149.856,96.733,150.039,96.733z"/>
		<path fill="#FFFFFF" d="M154.914,98.995c-0.304-0.962-0.455-2.015-0.455-3.159c0-1.144,0.151-2.194,0.455-3.152
			c0.303-0.957,0.723-1.874,1.261-2.749l0.663,0.312c-0.503,0.832-0.878,1.723-1.125,2.672c-0.247,0.948-0.37,1.922-0.37,2.918
			c0,0.997,0.123,1.97,0.37,2.919s0.622,1.839,1.125,2.671l-0.663,0.313C155.637,100.871,155.217,99.957,154.914,98.995z"/>
		<path fill="#FFE88C" d="M157.851,98.813c0.624-0.624,1.179-1.188,1.664-1.69c0.485-0.502,0.893-0.969,1.223-1.397
			c0.329-0.429,0.58-0.823,0.754-1.183c0.173-0.359,0.26-0.709,0.26-1.047c0-0.477-0.13-0.866-0.39-1.17
			c-0.261-0.304-0.654-0.455-1.184-0.455c-0.347,0-0.667,0.098-0.962,0.293c-0.295,0.194-0.563,0.431-0.806,0.708l-0.611-0.611
			c0.347-0.381,0.715-0.687,1.105-0.916c0.39-0.229,0.857-0.345,1.403-0.345c0.771,0,1.379,0.224,1.82,0.67
			c0.442,0.446,0.663,1.038,0.663,1.774c0,0.39-0.084,0.782-0.254,1.177c-0.169,0.395-0.402,0.802-0.701,1.222
			c-0.3,0.42-0.655,0.858-1.066,1.313c-0.412,0.455-0.864,0.938-1.358,1.45c0.226-0.018,0.459-0.035,0.702-0.053
			c0.242-0.017,0.472-0.025,0.688-0.025h2.405v0.923h-5.356V98.813z"/>
		<path fill="#FFFFFF" d="M165.41,98.755c0.247-0.949,0.371-1.922,0.371-2.919c0-0.996-0.124-1.97-0.371-2.918
			c-0.247-0.949-0.622-1.84-1.124-2.672l0.663-0.312c0.537,0.875,0.957,1.792,1.261,2.749c0.304,0.958,0.455,2.009,0.455,3.152
			c0,1.145-0.151,2.197-0.455,3.159s-0.724,1.876-1.261,2.743l-0.663-0.313C164.788,100.594,165.163,99.704,165.41,98.755z"/>
		<path fill="#FFFFFF" d="M168.343,101.036c0.363-0.165,0.649-0.382,0.857-0.65s0.313-0.58,0.313-0.936
			c-0.026,0.009-0.069,0.013-0.13,0.013c-0.208,0-0.389-0.063-0.54-0.188c-0.151-0.125-0.228-0.31-0.228-0.552
			c0-0.234,0.078-0.419,0.234-0.553c0.156-0.135,0.342-0.202,0.559-0.202c0.277,0,0.496,0.113,0.657,0.339
			c0.16,0.225,0.24,0.532,0.24,0.923c0,0.563-0.152,1.053-0.455,1.469c-0.304,0.416-0.72,0.736-1.248,0.962L168.343,101.036z
			 M168.576,94.107c0-0.252,0.076-0.453,0.228-0.604s0.336-0.228,0.553-0.228c0.208,0,0.388,0.076,0.539,0.228
			c0.152,0.151,0.228,0.353,0.228,0.604c0,0.233-0.075,0.427-0.228,0.578c-0.151,0.152-0.331,0.228-0.539,0.228
			c-0.217,0-0.401-0.075-0.553-0.228C168.652,94.534,168.576,94.341,168.576,94.107z"/>
		<path fill="#FFFFFF" d="M44.728,116.815c0.355,0,0.592-0.091,0.709-0.273c0.116-0.182,0.175-0.485,0.175-0.91
			c0-0.398-0.011-0.779-0.032-1.144s-0.033-0.767-0.033-1.209c0-0.416,0.059-0.736,0.176-0.962s0.314-0.377,0.592-0.455v-0.052
			c-0.277-0.078-0.475-0.228-0.592-0.449c-0.117-0.221-0.176-0.543-0.176-0.968c0-0.398,0.012-0.795,0.033-1.189
			s0.032-0.782,0.032-1.164c0-0.425-0.059-0.726-0.175-0.903c-0.117-0.178-0.354-0.267-0.709-0.267H44.39v-0.624h0.572
			c0.52,0,0.902,0.124,1.15,0.37c0.246,0.247,0.37,0.7,0.37,1.359c0,0.45-0.02,0.879-0.059,1.286
			c-0.039,0.408-0.059,0.819-0.059,1.235c0,0.252,0.078,0.479,0.233,0.683c0.156,0.204,0.451,0.31,0.885,0.318v0.676
			c-0.217,0-0.396,0.031-0.539,0.092c-0.144,0.061-0.258,0.139-0.346,0.233c-0.086,0.096-0.146,0.202-0.182,0.318
			c-0.034,0.117-0.052,0.241-0.052,0.371c0,0.217,0.007,0.425,0.02,0.624s0.026,0.398,0.039,0.598s0.026,0.405,0.039,0.617
			c0.013,0.213,0.02,0.436,0.02,0.67c0,0.338-0.03,0.617-0.091,0.839c-0.061,0.221-0.154,0.396-0.279,0.526
			c-0.126,0.13-0.285,0.223-0.475,0.279c-0.191,0.057-0.416,0.084-0.676,0.084H44.39v-0.61H44.728z"/>
		<path fill="#92BFBF" d="M44.831,146.8c0-0.251,0.076-0.452,0.228-0.604c0.151-0.151,0.336-0.228,0.553-0.228
			c0.208,0,0.388,0.076,0.54,0.228c0.15,0.152,0.227,0.354,0.227,0.604c0,0.234-0.076,0.428-0.227,0.579
			c-0.152,0.151-0.332,0.228-0.54,0.228c-0.217,0-0.401-0.076-0.553-0.228S44.831,147.034,44.831,146.8z"/>
		<path fill="#92BFBF" d="M48.12,146.021c0.277,0.226,0.561,0.407,0.852,0.546c0.29,0.139,0.626,0.208,1.008,0.208
			c0.416,0,0.728-0.096,0.936-0.286s0.313-0.425,0.313-0.702c0-0.164-0.044-0.308-0.131-0.429c-0.086-0.121-0.197-0.228-0.331-0.318
			c-0.134-0.092-0.288-0.172-0.462-0.241c-0.173-0.069-0.346-0.139-0.52-0.208c-0.226-0.078-0.451-0.166-0.676-0.267
			c-0.226-0.099-0.428-0.221-0.605-0.363c-0.178-0.144-0.322-0.31-0.435-0.501c-0.112-0.19-0.169-0.42-0.169-0.688
			c0-0.252,0.049-0.488,0.149-0.709c0.099-0.221,0.242-0.411,0.429-0.572c0.187-0.16,0.414-0.285,0.683-0.377
			c0.269-0.091,0.571-0.136,0.91-0.136c0.398,0,0.765,0.069,1.099,0.208c0.333,0.139,0.621,0.308,0.864,0.507l-0.507,0.676
			c-0.217-0.164-0.442-0.299-0.676-0.403c-0.234-0.104-0.49-0.155-0.768-0.155c-0.398,0-0.691,0.091-0.877,0.272
			c-0.188,0.183-0.279,0.395-0.279,0.637c0,0.147,0.039,0.273,0.116,0.377c0.078,0.104,0.183,0.2,0.312,0.286
			c0.131,0.087,0.28,0.163,0.449,0.228c0.169,0.065,0.344,0.133,0.526,0.202c0.226,0.086,0.452,0.178,0.683,0.272
			c0.229,0.096,0.436,0.215,0.617,0.357c0.182,0.144,0.332,0.318,0.449,0.526s0.175,0.46,0.175,0.755c0,0.26-0.05,0.502-0.149,0.728
			s-0.247,0.425-0.441,0.598c-0.195,0.174-0.438,0.311-0.729,0.41s-0.622,0.149-0.994,0.149c-0.451,0-0.88-0.083-1.287-0.247
			c-0.408-0.165-0.763-0.373-1.066-0.624L48.12,146.021z"/>
		<path fill="#92BFBF" d="M54.282,139.832c-0.209,0-0.384-0.064-0.527-0.195c-0.143-0.13-0.214-0.294-0.214-0.493
			c0-0.208,0.071-0.375,0.214-0.501c0.144-0.125,0.318-0.188,0.527-0.188c0.207,0,0.383,0.063,0.526,0.188
			c0.144,0.126,0.214,0.293,0.214,0.501c0,0.199-0.07,0.363-0.214,0.493C54.665,139.768,54.489,139.832,54.282,139.832z
			 M53.735,141.132h1.066v6.318h-1.066V141.132z"/>
		<path fill="#92BFBF" d="M56.479,144.304c0-0.511,0.075-0.973,0.227-1.384c0.152-0.412,0.354-0.761,0.605-1.047
			c0.251-0.286,0.541-0.507,0.871-0.663c0.328-0.156,0.676-0.233,1.039-0.233c0.364,0,0.681,0.064,0.949,0.194
			s0.542,0.308,0.819,0.533l-0.052-1.079v-2.431h1.078v9.256h-0.883l-0.092-0.741h-0.039c-0.252,0.243-0.539,0.453-0.864,0.631
			s-0.674,0.267-1.046,0.267c-0.798,0-1.433-0.286-1.905-0.858C56.716,146.176,56.479,145.361,56.479,144.304z M57.584,144.291
			c0,0.763,0.151,1.356,0.455,1.781s0.732,0.637,1.287,0.637c0.294,0,0.571-0.071,0.832-0.214c0.26-0.144,0.521-0.362,0.78-0.657
			v-3.302c-0.27-0.242-0.527-0.414-0.773-0.514c-0.248-0.1-0.501-0.149-0.761-0.149c-0.251,0-0.487,0.059-0.708,0.176
			c-0.222,0.117-0.414,0.281-0.579,0.494c-0.165,0.212-0.295,0.466-0.39,0.76C57.632,143.598,57.584,143.927,57.584,144.291z"/>
		<path fill="#92BFBF" d="M63.681,144.304c0-0.52,0.08-0.985,0.24-1.397c0.16-0.411,0.373-0.76,0.638-1.046s0.565-0.505,0.903-0.656
			c0.338-0.152,0.689-0.228,1.053-0.228c0.398,0,0.756,0.069,1.072,0.208s0.581,0.338,0.793,0.598
			c0.213,0.26,0.375,0.572,0.488,0.936c0.112,0.364,0.169,0.771,0.169,1.223c0,0.233-0.013,0.429-0.039,0.585h-4.265
			c0.044,0.685,0.254,1.227,0.631,1.625s0.869,0.598,1.476,0.598c0.304,0,0.583-0.045,0.839-0.137c0.256-0.091,0.5-0.21,0.734-0.357
			l0.377,0.702c-0.277,0.174-0.585,0.325-0.923,0.455c-0.339,0.13-0.724,0.195-1.157,0.195c-0.425,0-0.821-0.076-1.189-0.228
			c-0.369-0.151-0.689-0.368-0.962-0.65c-0.272-0.281-0.487-0.626-0.644-1.033S63.681,144.824,63.681,144.304z M68.101,143.823
			c0-0.65-0.137-1.146-0.409-1.488c-0.272-0.343-0.656-0.514-1.15-0.514c-0.226,0-0.44,0.045-0.644,0.137
			c-0.203,0.091-0.388,0.221-0.553,0.39c-0.164,0.169-0.301,0.377-0.409,0.624s-0.181,0.531-0.214,0.852H68.101z"/>
		<path fill="#92BFBF" d="M75.875,148.373v0.715h-6.188v-0.715H75.875z"/>
		<path fill="#92BFBF" d="M78.163,147.983v2.132h-1.066v-8.983h0.885l0.09,0.729h0.039c0.287-0.243,0.601-0.451,0.943-0.624
			c0.342-0.174,0.699-0.26,1.072-0.26c0.407,0,0.767,0.075,1.078,0.228c0.313,0.151,0.572,0.368,0.781,0.649
			c0.207,0.282,0.365,0.62,0.475,1.015c0.107,0.394,0.162,0.838,0.162,1.332c0,0.537-0.074,1.017-0.221,1.437
			c-0.148,0.421-0.348,0.778-0.599,1.072c-0.251,0.295-0.542,0.519-0.871,0.67s-0.676,0.228-1.04,0.228
			c-0.295,0-0.587-0.065-0.877-0.195c-0.291-0.13-0.584-0.308-0.878-0.533L78.163,147.983z M78.163,146.046
			c0.285,0.243,0.563,0.414,0.832,0.514c0.268,0.1,0.507,0.149,0.715,0.149c0.26,0,0.5-0.059,0.721-0.175
			c0.222-0.117,0.412-0.282,0.572-0.494c0.16-0.213,0.286-0.475,0.377-0.787c0.092-0.312,0.137-0.663,0.137-1.053
			c0-0.347-0.03-0.663-0.091-0.949s-0.158-0.53-0.292-0.734c-0.135-0.203-0.309-0.361-0.521-0.475
			c-0.212-0.112-0.466-0.169-0.761-0.169c-0.269,0-0.539,0.074-0.813,0.221c-0.273,0.147-0.565,0.36-0.877,0.638V146.046z"/>
		<path fill="#92BFBF" d="M83.817,145.813c0-0.693,0.311-1.225,0.93-1.593s1.605-0.626,2.957-0.773c0-0.199-0.02-0.395-0.059-0.585
			s-0.107-0.359-0.207-0.507s-0.232-0.267-0.396-0.357c-0.165-0.092-0.377-0.137-0.638-0.137c-0.372,0-0.718,0.069-1.033,0.208
			c-0.316,0.139-0.601,0.295-0.852,0.468l-0.429-0.741c0.294-0.19,0.654-0.374,1.078-0.552c0.426-0.178,0.893-0.267,1.404-0.267
			c0.771,0,1.33,0.236,1.678,0.708c0.346,0.473,0.52,1.104,0.52,1.892v3.874h-0.884l-0.091-0.754H87.77
			c-0.304,0.251-0.63,0.466-0.981,0.644s-0.722,0.267-1.111,0.267c-0.537,0-0.982-0.156-1.333-0.468
			C83.993,146.826,83.817,146.384,83.817,145.813z M84.87,145.734c0,0.364,0.106,0.624,0.318,0.78
			c0.213,0.155,0.475,0.233,0.787,0.233c0.303,0,0.592-0.071,0.864-0.214c0.272-0.144,0.562-0.354,0.864-0.631v-1.755
			c-0.528,0.069-0.975,0.151-1.339,0.247c-0.364,0.095-0.656,0.208-0.878,0.338c-0.221,0.13-0.379,0.279-0.474,0.448
			C84.918,145.351,84.87,145.535,84.87,145.734z"/>
		<path fill="#92BFBF" d="M90.786,141.132h0.884l0.091,0.91H91.8c0.303-0.303,0.621-0.557,0.955-0.761
			c0.334-0.203,0.722-0.305,1.164-0.305c0.667,0,1.154,0.208,1.463,0.624c0.307,0.416,0.461,1.031,0.461,1.846v4.004h-1.066v-3.861
			c0-0.598-0.096-1.028-0.285-1.293c-0.191-0.265-0.494-0.396-0.91-0.396c-0.33,0-0.62,0.082-0.871,0.247
			c-0.252,0.164-0.537,0.407-0.858,0.728v4.576h-1.065V141.132z"/>
		<path fill="#92BFBF" d="M97.429,144.304c0-0.52,0.08-0.985,0.24-1.397c0.16-0.411,0.373-0.76,0.637-1.046
			c0.265-0.286,0.566-0.505,0.904-0.656c0.338-0.152,0.688-0.228,1.053-0.228c0.398,0,0.756,0.069,1.072,0.208
			s0.58,0.338,0.793,0.598s0.375,0.572,0.488,0.936c0.111,0.364,0.168,0.771,0.168,1.223c0,0.233-0.013,0.429-0.039,0.585h-4.264
			c0.043,0.685,0.254,1.227,0.631,1.625s0.869,0.598,1.475,0.598c0.304,0,0.584-0.045,0.84-0.137c0.255-0.091,0.5-0.21,0.734-0.357
			l0.377,0.702c-0.277,0.174-0.586,0.325-0.924,0.455s-0.724,0.195-1.156,0.195c-0.426,0-0.822-0.076-1.189-0.228
			c-0.369-0.151-0.689-0.368-0.963-0.65c-0.272-0.281-0.487-0.626-0.643-1.033C97.507,145.288,97.429,144.824,97.429,144.304z
			 M101.849,143.823c0-0.65-0.137-1.146-0.41-1.488c-0.272-0.343-0.656-0.514-1.15-0.514c-0.225,0-0.439,0.045-0.643,0.137
			c-0.204,0.091-0.389,0.221-0.553,0.39c-0.165,0.169-0.301,0.377-0.41,0.624c-0.107,0.247-0.18,0.531-0.214,0.852H101.849z"/>
		<path fill="#92BFBF" d="M104.345,138.194h1.065v8.06c0,0.174,0.03,0.295,0.091,0.364s0.131,0.104,0.209,0.104
			c0.033,0,0.066,0,0.097,0s0.076-0.009,0.137-0.026l0.144,0.806c-0.07,0.035-0.152,0.061-0.248,0.078s-0.217,0.026-0.363,0.026
			c-0.408,0-0.698-0.122-0.871-0.364c-0.174-0.242-0.26-0.598-0.26-1.066V138.194z"/>
		<path fill="#FFFFFF" d="M108.036,147.697c0-0.234,0.007-0.457,0.02-0.67c0.014-0.212,0.025-0.418,0.039-0.617
			s0.025-0.398,0.039-0.598s0.02-0.407,0.02-0.624c0-0.13-0.018-0.254-0.053-0.371c-0.034-0.116-0.093-0.223-0.175-0.318
			c-0.083-0.095-0.197-0.173-0.345-0.233s-0.329-0.092-0.546-0.092v-0.676c0.217,0,0.398-0.03,0.546-0.091s0.262-0.137,0.345-0.228
			c0.082-0.091,0.141-0.197,0.175-0.318c0.035-0.121,0.053-0.242,0.053-0.364c0-0.416-0.02-0.827-0.059-1.235
			c-0.039-0.407-0.059-0.836-0.059-1.286c0-0.33,0.03-0.604,0.092-0.826c0.061-0.221,0.153-0.398,0.279-0.533
			c0.125-0.134,0.283-0.229,0.475-0.285c0.189-0.057,0.411-0.085,0.662-0.085h0.598v0.624h-0.363c-0.347,0-0.578,0.089-0.695,0.267
			s-0.176,0.479-0.176,0.903c0,0.382,0.014,0.77,0.039,1.164s0.039,0.791,0.039,1.189c0,0.425-0.061,0.747-0.182,0.968
			c-0.122,0.222-0.321,0.371-0.599,0.449v0.052c0.277,0.078,0.477,0.229,0.599,0.455c0.121,0.226,0.182,0.546,0.182,0.962
			c0,0.442-0.014,0.845-0.039,1.209s-0.039,0.745-0.039,1.144c0,0.425,0.059,0.729,0.176,0.91c0.117,0.183,0.349,0.273,0.695,0.273
			h0.363v0.61h-0.598c-0.251,0-0.473-0.027-0.662-0.084c-0.191-0.057-0.35-0.149-0.475-0.279c-0.126-0.13-0.219-0.306-0.279-0.526
			C108.066,148.314,108.036,148.035,108.036,147.697z"/>
		<path fill="#F48A46" d="M55.153,160.812c0-0.867,0.145-1.655,0.436-2.366c0.29-0.711,0.685-1.317,1.184-1.82
			c0.498-0.502,1.074-0.891,1.729-1.163c0.654-0.273,1.346-0.41,2.073-0.41c0.659,0,1.25,0.104,1.774,0.313s0.971,0.5,1.339,0.877
			c0.368,0.378,0.652,0.83,0.852,1.359c0.199,0.528,0.3,1.113,0.3,1.755c0,0.571-0.081,1.072-0.241,1.501
			c-0.16,0.43-0.366,0.789-0.617,1.079c-0.251,0.291-0.531,0.51-0.839,0.656c-0.308,0.147-0.609,0.222-0.903,0.222
			c-0.355,0-0.657-0.083-0.903-0.247c-0.247-0.165-0.393-0.412-0.436-0.741h-0.026c-0.216,0.252-0.464,0.462-0.741,0.631
			s-0.559,0.253-0.845,0.253c-0.442,0-0.813-0.156-1.111-0.468c-0.299-0.313-0.448-0.767-0.448-1.365
			c0-0.347,0.059-0.699,0.176-1.06c0.116-0.359,0.283-0.685,0.5-0.975s0.479-0.526,0.787-0.709c0.307-0.182,0.651-0.272,1.033-0.272
			c0.225,0,0.424,0.05,0.598,0.149s0.32,0.258,0.441,0.475h0.026l0.144-0.521h0.715l-0.508,2.601
			c-0.26,1.014-0.025,1.521,0.703,1.521c0.207,0,0.413-0.061,0.617-0.182c0.203-0.121,0.39-0.297,0.559-0.526
			s0.306-0.512,0.41-0.846c0.104-0.333,0.156-0.712,0.156-1.137c0-0.521-0.076-1.003-0.229-1.45
			c-0.151-0.446-0.379-0.829-0.682-1.15c-0.305-0.32-0.682-0.571-1.131-0.754c-0.451-0.182-0.972-0.272-1.561-0.272
			c-0.581,0-1.145,0.119-1.689,0.357c-0.547,0.238-1.032,0.574-1.457,1.007c-0.424,0.434-0.765,0.958-1.02,1.573
			c-0.256,0.615-0.385,1.305-0.385,2.067c0,0.633,0.098,1.195,0.293,1.689s0.466,0.91,0.813,1.248s0.756,0.596,1.229,0.773
			s0.986,0.267,1.541,0.267c0.398,0,0.775-0.054,1.131-0.162s0.68-0.249,0.975-0.423l0.286,0.637
			c-0.737,0.442-1.56,0.663-2.47,0.663c-0.642,0-1.24-0.1-1.795-0.299s-1.037-0.496-1.449-0.891
			c-0.411-0.395-0.736-0.882-0.975-1.462C55.272,162.232,55.153,161.565,55.153,160.812z M58.585,160.812
			c0,0.416,0.087,0.715,0.26,0.896c0.174,0.183,0.391,0.273,0.65,0.273c0.182,0,0.371-0.061,0.565-0.183
			c0.195-0.121,0.405-0.315,0.631-0.585l0.377-2.066c-0.122-0.199-0.247-0.34-0.377-0.423c-0.13-0.082-0.282-0.123-0.455-0.123
			c-0.261,0-0.492,0.069-0.696,0.208c-0.203,0.139-0.377,0.316-0.52,0.532c-0.143,0.217-0.252,0.455-0.324,0.716
			C58.622,160.317,58.585,160.568,58.585,160.812z"/>
		<path fill="#F48A46" d="M66.099,160.304c0-0.52,0.08-0.985,0.24-1.397c0.16-0.411,0.373-0.76,0.638-1.046s0.565-0.505,0.903-0.656
			c0.338-0.152,0.689-0.228,1.053-0.228c0.398,0,0.756,0.069,1.072,0.208s0.581,0.338,0.793,0.598
			c0.213,0.26,0.375,0.572,0.488,0.936c0.112,0.364,0.169,0.771,0.169,1.223c0,0.233-0.013,0.429-0.039,0.585h-4.265
			c0.044,0.685,0.254,1.227,0.631,1.625s0.869,0.598,1.476,0.598c0.304,0,0.583-0.045,0.839-0.137c0.256-0.091,0.5-0.21,0.734-0.357
			l0.377,0.702c-0.277,0.174-0.585,0.325-0.923,0.455c-0.339,0.13-0.724,0.195-1.157,0.195c-0.425,0-0.821-0.076-1.189-0.228
			c-0.369-0.151-0.689-0.368-0.962-0.65c-0.272-0.281-0.487-0.626-0.644-1.033S66.099,160.824,66.099,160.304z M70.519,159.823
			c0-0.65-0.137-1.146-0.409-1.488c-0.272-0.343-0.656-0.514-1.15-0.514c-0.226,0-0.44,0.045-0.644,0.137
			c-0.203,0.091-0.388,0.221-0.553,0.39c-0.164,0.169-0.301,0.377-0.409,0.624s-0.181,0.531-0.214,0.852H70.519z"/>
		<path fill="#F48A46" d="M74.106,160.148l-1.91-3.017h1.156l0.846,1.392c0.095,0.173,0.195,0.349,0.299,0.526
			s0.212,0.354,0.324,0.526h0.053c0.096-0.173,0.19-0.349,0.285-0.526c0.096-0.178,0.191-0.354,0.287-0.526l0.767-1.392h1.118
			l-1.911,3.134l2.054,3.185h-1.156l-0.924-1.469c-0.112-0.19-0.225-0.382-0.338-0.572c-0.112-0.19-0.229-0.377-0.351-0.559h-0.052
			c-0.113,0.182-0.221,0.366-0.325,0.552c-0.104,0.187-0.208,0.38-0.312,0.579l-0.859,1.469H72.04L74.106,160.148z"/>
		<path fill="#F48A46" d="M78.903,158.003h-0.936v-0.806l0.988-0.065l0.13-1.768h0.897v1.768h1.702v0.871h-1.702v3.511
			c0,0.39,0.07,0.69,0.214,0.903c0.144,0.212,0.396,0.318,0.761,0.318c0.112,0,0.234-0.018,0.363-0.052
			c0.131-0.035,0.248-0.074,0.352-0.117l0.208,0.806c-0.173,0.061-0.362,0.115-0.565,0.163c-0.204,0.047-0.405,0.071-0.604,0.071
			c-0.339,0-0.622-0.053-0.852-0.156s-0.416-0.247-0.56-0.429c-0.143-0.183-0.244-0.403-0.305-0.663s-0.092-0.546-0.092-0.858
			V158.003z"/>
		<path fill="#F48A46" d="M82.519,160.304c0-0.52,0.08-0.985,0.24-1.397c0.16-0.411,0.372-0.76,0.637-1.046
			c0.264-0.286,0.565-0.505,0.903-0.656c0.338-0.152,0.688-0.228,1.054-0.228c0.398,0,0.756,0.069,1.072,0.208
			s0.58,0.338,0.793,0.598c0.212,0.26,0.375,0.572,0.487,0.936c0.112,0.364,0.169,0.771,0.169,1.223
			c0,0.233-0.014,0.429-0.039,0.585h-4.264c0.043,0.685,0.253,1.227,0.631,1.625c0.377,0.398,0.868,0.598,1.475,0.598
			c0.303,0,0.583-0.045,0.839-0.137c0.255-0.091,0.501-0.21,0.734-0.357l0.377,0.702c-0.277,0.174-0.585,0.325-0.923,0.455
			s-0.725,0.195-1.157,0.195c-0.425,0-0.821-0.076-1.189-0.228s-0.688-0.368-0.962-0.65c-0.273-0.281-0.488-0.626-0.644-1.033
			C82.596,161.288,82.519,160.824,82.519,160.304z M86.938,159.823c0-0.65-0.137-1.146-0.41-1.488
			c-0.273-0.343-0.656-0.514-1.15-0.514c-0.226,0-0.439,0.045-0.644,0.137c-0.204,0.091-0.388,0.221-0.552,0.39
			c-0.166,0.169-0.302,0.377-0.41,0.624s-0.18,0.531-0.215,0.852H86.938z"/>
		<path fill="#F48A46" d="M89.434,157.132h0.884l0.092,0.91h0.039c0.303-0.303,0.621-0.557,0.955-0.761
			c0.334-0.203,0.721-0.305,1.164-0.305c0.666,0,1.154,0.208,1.462,0.624s0.462,1.031,0.462,1.846v4.004h-1.066v-3.861
			c0-0.598-0.096-1.028-0.286-1.293s-0.494-0.396-0.91-0.396c-0.329,0-0.62,0.082-0.87,0.247c-0.252,0.164-0.538,0.407-0.859,0.728
			v4.576h-1.065V157.132z"/>
		<path fill="#F48A46" d="M96.089,160.304c0-0.511,0.076-0.973,0.229-1.384c0.151-0.412,0.353-0.761,0.604-1.047
			c0.252-0.286,0.542-0.507,0.871-0.663c0.33-0.156,0.677-0.233,1.041-0.233c0.363,0,0.68,0.064,0.949,0.194
			c0.268,0.13,0.541,0.308,0.818,0.533l-0.053-1.079v-2.431h1.08v9.256h-0.885l-0.091-0.741h-0.039
			c-0.251,0.243-0.539,0.453-0.864,0.631s-0.674,0.267-1.047,0.267c-0.797,0-1.432-0.286-1.904-0.858S96.089,161.361,96.089,160.304
			z M97.194,160.291c0,0.763,0.152,1.356,0.455,1.781s0.732,0.637,1.287,0.637c0.295,0,0.572-0.071,0.832-0.214
			c0.26-0.144,0.52-0.362,0.779-0.657v-3.302c-0.268-0.242-0.525-0.414-0.773-0.514c-0.246-0.1-0.5-0.149-0.76-0.149
			c-0.252,0-0.488,0.059-0.709,0.176s-0.414,0.281-0.578,0.494c-0.164,0.212-0.295,0.466-0.391,0.76
			C97.242,159.598,97.194,159.927,97.194,160.291z"/>
		<path fill="#F48A46" d="M106.165,162.8c0-0.251,0.075-0.452,0.227-0.604c0.152-0.151,0.336-0.228,0.553-0.228
			c0.208,0,0.388,0.076,0.539,0.228c0.152,0.152,0.229,0.354,0.229,0.604c0,0.234-0.076,0.428-0.229,0.579
			c-0.151,0.151-0.331,0.228-0.539,0.228c-0.217,0-0.4-0.076-0.553-0.228C106.24,163.228,106.165,163.034,106.165,162.8z"/>
		<path fill="#F48A46" d="M109.622,154.194h1.066v2.521l-0.025,1.145c0.285-0.251,0.598-0.462,0.936-0.631s0.685-0.253,1.04-0.253
			c0.407,0,0.767,0.075,1.079,0.228c0.313,0.151,0.574,0.368,0.786,0.649c0.212,0.282,0.372,0.62,0.481,1.015
			c0.107,0.394,0.162,0.834,0.162,1.319c0,0.537-0.074,1.019-0.221,1.442c-0.147,0.425-0.347,0.785-0.598,1.079
			c-0.252,0.295-0.542,0.519-0.871,0.67c-0.33,0.151-0.676,0.228-1.041,0.228c-0.294,0-0.6-0.067-0.916-0.202
			c-0.316-0.134-0.613-0.326-0.891-0.578h-0.039l-0.091,0.624h-0.858V154.194z M110.688,162.046
			c0.277,0.243,0.553,0.414,0.826,0.514c0.272,0.1,0.514,0.149,0.721,0.149c0.26,0,0.501-0.059,0.722-0.175
			c0.222-0.117,0.411-0.282,0.572-0.494c0.16-0.213,0.286-0.475,0.377-0.787c0.091-0.312,0.136-0.663,0.136-1.053
			c0-0.347-0.029-0.663-0.09-0.949s-0.158-0.53-0.293-0.734c-0.135-0.203-0.308-0.361-0.52-0.475
			c-0.213-0.112-0.467-0.169-0.762-0.169c-0.511,0-1.074,0.286-1.689,0.858V162.046z"/>
		<path fill="#F48A46" d="M116.37,160.304c0-0.528,0.08-0.998,0.24-1.41c0.16-0.411,0.374-0.761,0.644-1.046
			c0.269-0.286,0.578-0.503,0.929-0.65c0.352-0.147,0.722-0.221,1.112-0.221c0.39,0,0.76,0.073,1.111,0.221
			c0.351,0.147,0.66,0.364,0.93,0.65c0.269,0.285,0.482,0.635,0.643,1.046c0.161,0.412,0.241,0.882,0.241,1.41
			c0,0.521-0.08,0.986-0.241,1.398c-0.16,0.411-0.374,0.758-0.643,1.039c-0.27,0.282-0.579,0.497-0.93,0.644
			c-0.352,0.147-0.722,0.222-1.111,0.222c-0.391,0-0.761-0.074-1.112-0.222c-0.351-0.146-0.66-0.361-0.929-0.644
			c-0.27-0.281-0.483-0.628-0.644-1.039C116.45,161.29,116.37,160.824,116.37,160.304z M117.475,160.304
			c0,0.364,0.043,0.694,0.13,0.988c0.087,0.295,0.21,0.549,0.37,0.761c0.16,0.213,0.354,0.377,0.579,0.494
			c0.225,0.117,0.472,0.176,0.741,0.176c0.269,0,0.515-0.059,0.74-0.176s0.418-0.281,0.579-0.494c0.16-0.212,0.283-0.466,0.37-0.761
			c0.087-0.294,0.13-0.624,0.13-0.988c0-0.363-0.043-0.695-0.13-0.994s-0.21-0.557-0.37-0.773c-0.161-0.217-0.354-0.384-0.579-0.5
			c-0.226-0.117-0.472-0.176-0.74-0.176c-0.27,0-0.517,0.059-0.741,0.176c-0.226,0.116-0.419,0.283-0.579,0.5
			s-0.283,0.475-0.37,0.773S117.475,159.94,117.475,160.304z"/>
		<path fill="#F48A46" d="M124.846,160.148l-1.911-3.017h1.157l0.845,1.392c0.096,0.173,0.195,0.349,0.299,0.526
			c0.104,0.178,0.213,0.354,0.325,0.526h0.052c0.096-0.173,0.19-0.349,0.286-0.526s0.19-0.354,0.286-0.526l0.768-1.392h1.117
			l-1.911,3.134l2.055,3.185h-1.157l-0.923-1.469c-0.113-0.19-0.226-0.382-0.338-0.572c-0.113-0.19-0.229-0.377-0.352-0.559h-0.052
			c-0.112,0.182-0.221,0.366-0.325,0.552c-0.104,0.187-0.208,0.38-0.312,0.579l-0.858,1.469h-1.118L124.846,160.148z"/>
		<path fill="#F48A46" d="M128.745,159.784h2.99v0.819h-2.99V159.784z"/>
		<path fill="#F48A46" d="M133.152,162.021c0.276,0.226,0.561,0.407,0.851,0.546c0.291,0.139,0.627,0.208,1.008,0.208
			c0.416,0,0.729-0.096,0.937-0.286s0.312-0.425,0.312-0.702c0-0.164-0.043-0.308-0.13-0.429s-0.197-0.228-0.331-0.318
			c-0.135-0.092-0.289-0.172-0.462-0.241c-0.174-0.069-0.347-0.139-0.521-0.208c-0.225-0.078-0.45-0.166-0.676-0.267
			c-0.226-0.099-0.427-0.221-0.604-0.363c-0.178-0.144-0.322-0.31-0.436-0.501c-0.112-0.19-0.169-0.42-0.169-0.688
			c0-0.252,0.05-0.488,0.149-0.709s0.243-0.411,0.43-0.572c0.186-0.16,0.413-0.285,0.682-0.377c0.269-0.091,0.572-0.136,0.91-0.136
			c0.398,0,0.765,0.069,1.099,0.208s0.622,0.308,0.864,0.507l-0.507,0.676c-0.217-0.164-0.441-0.299-0.676-0.403
			c-0.234-0.104-0.489-0.155-0.767-0.155c-0.399,0-0.691,0.091-0.878,0.272c-0.187,0.183-0.279,0.395-0.279,0.637
			c0,0.147,0.039,0.273,0.117,0.377c0.078,0.104,0.182,0.2,0.312,0.286c0.13,0.087,0.279,0.163,0.448,0.228
			c0.169,0.065,0.345,0.133,0.527,0.202c0.225,0.086,0.452,0.178,0.682,0.272c0.229,0.096,0.436,0.215,0.618,0.357
			c0.182,0.144,0.331,0.318,0.448,0.526s0.176,0.46,0.176,0.755c0,0.26-0.05,0.502-0.149,0.728s-0.247,0.425-0.442,0.598
			c-0.195,0.174-0.438,0.311-0.728,0.41c-0.291,0.1-0.622,0.149-0.995,0.149c-0.45,0-0.88-0.083-1.287-0.247
			c-0.407-0.165-0.763-0.373-1.065-0.624L133.152,162.021z"/>
		<path fill="#F48A46" d="M138.769,154.194h1.065v2.521l-0.039,1.301c0.304-0.286,0.62-0.531,0.949-0.735
			c0.329-0.203,0.715-0.305,1.157-0.305c0.667,0,1.154,0.208,1.462,0.624s0.462,1.031,0.462,1.846v4.004h-1.066v-3.861
			c0-0.598-0.095-1.028-0.285-1.293c-0.191-0.265-0.494-0.396-0.91-0.396c-0.33,0-0.62,0.082-0.871,0.247
			c-0.252,0.164-0.538,0.407-0.858,0.728v4.576h-1.065V154.194z"/>
		<path fill="#F48A46" d="M145.528,161.813c0-0.693,0.31-1.225,0.93-1.593c0.619-0.368,1.605-0.626,2.957-0.773
			c0-0.199-0.02-0.395-0.059-0.585c-0.038-0.19-0.108-0.359-0.208-0.507s-0.231-0.267-0.396-0.357
			c-0.164-0.092-0.377-0.137-0.637-0.137c-0.372,0-0.717,0.069-1.033,0.208s-0.601,0.295-0.852,0.468l-0.429-0.741
			c0.294-0.19,0.654-0.374,1.079-0.552c0.424-0.178,0.892-0.267,1.403-0.267c0.771,0,1.33,0.236,1.677,0.708
			c0.347,0.473,0.521,1.104,0.521,1.892v3.874h-0.884l-0.091-0.754h-0.026c-0.304,0.251-0.631,0.466-0.981,0.644
			c-0.352,0.178-0.722,0.267-1.111,0.267c-0.538,0-0.981-0.156-1.333-0.468C145.704,162.826,145.528,162.384,145.528,161.813z
			 M146.581,161.734c0,0.364,0.106,0.624,0.319,0.78c0.212,0.155,0.474,0.233,0.786,0.233c0.303,0,0.592-0.071,0.864-0.214
			c0.273-0.144,0.562-0.354,0.864-0.631v-1.755c-0.528,0.069-0.975,0.151-1.339,0.247c-0.363,0.095-0.656,0.208-0.877,0.338
			c-0.222,0.13-0.38,0.279-0.475,0.448C146.629,161.351,146.581,161.535,146.581,161.734z"/>
		<path fill="#F48A46" d="M152.041,160.304c0-0.511,0.075-0.973,0.228-1.384c0.151-0.412,0.353-0.761,0.604-1.047
			c0.251-0.286,0.541-0.507,0.871-0.663c0.329-0.156,0.676-0.233,1.039-0.233c0.364,0,0.681,0.064,0.949,0.194
			s0.542,0.308,0.819,0.533l-0.052-1.079v-2.431h1.079v9.256h-0.885l-0.091-0.741h-0.039c-0.251,0.243-0.539,0.453-0.864,0.631
			s-0.674,0.267-1.047,0.267c-0.797,0-1.432-0.286-1.904-0.858S152.041,161.361,152.041,160.304z M153.146,160.291
			c0,0.763,0.151,1.356,0.455,1.781s0.732,0.637,1.287,0.637c0.295,0,0.572-0.071,0.832-0.214c0.26-0.144,0.52-0.362,0.78-0.657
			v-3.302c-0.27-0.242-0.526-0.414-0.773-0.514s-0.501-0.149-0.761-0.149c-0.252,0-0.487,0.059-0.709,0.176
			c-0.221,0.117-0.414,0.281-0.578,0.494c-0.165,0.212-0.295,0.466-0.39,0.76C153.193,159.598,153.146,159.927,153.146,160.291z"/>
		<path fill="#F48A46" d="M159.242,160.304c0-0.528,0.08-0.998,0.241-1.41c0.16-0.411,0.374-0.761,0.644-1.046
			c0.269-0.286,0.578-0.503,0.929-0.65c0.352-0.147,0.722-0.221,1.112-0.221c0.39,0,0.76,0.073,1.111,0.221
			c0.351,0.147,0.66,0.364,0.93,0.65c0.269,0.285,0.482,0.635,0.643,1.046c0.161,0.412,0.241,0.882,0.241,1.41
			c0,0.521-0.08,0.986-0.241,1.398c-0.16,0.411-0.374,0.758-0.643,1.039c-0.27,0.282-0.579,0.497-0.93,0.644
			c-0.352,0.147-0.722,0.222-1.111,0.222c-0.391,0-0.761-0.074-1.112-0.222c-0.351-0.146-0.66-0.361-0.929-0.644
			c-0.27-0.281-0.483-0.628-0.644-1.039C159.322,161.29,159.242,160.824,159.242,160.304z M160.348,160.304
			c0,0.364,0.043,0.694,0.13,0.988c0.087,0.295,0.21,0.549,0.37,0.761c0.16,0.213,0.354,0.377,0.579,0.494
			c0.225,0.117,0.472,0.176,0.741,0.176c0.269,0,0.515-0.059,0.74-0.176s0.418-0.281,0.579-0.494c0.16-0.212,0.283-0.466,0.37-0.761
			c0.087-0.294,0.13-0.624,0.13-0.988c0-0.363-0.043-0.695-0.13-0.994s-0.21-0.557-0.37-0.773c-0.161-0.217-0.354-0.384-0.579-0.5
			c-0.226-0.117-0.472-0.176-0.74-0.176c-0.27,0-0.517,0.059-0.741,0.176c-0.226,0.116-0.419,0.283-0.579,0.5
			s-0.283,0.475-0.37,0.773S160.348,159.94,160.348,160.304z"/>
		<path fill="#F48A46" d="M165.95,157.132h1.093l0.936,3.653c0.069,0.304,0.135,0.598,0.195,0.884s0.121,0.577,0.182,0.871h0.052
			c0.069-0.294,0.139-0.587,0.208-0.877c0.069-0.291,0.144-0.583,0.222-0.878l0.975-3.653h1.04l0.988,3.653
			c0.078,0.304,0.153,0.598,0.228,0.884c0.073,0.286,0.145,0.577,0.214,0.871h0.053c0.069-0.294,0.134-0.585,0.194-0.871
			s0.126-0.58,0.195-0.884l0.923-3.653h1.015l-1.69,6.318h-1.3l-0.91-3.393c-0.078-0.304-0.149-0.603-0.215-0.897
			c-0.064-0.295-0.136-0.603-0.214-0.923h-0.053c-0.069,0.32-0.139,0.631-0.208,0.93s-0.147,0.6-0.233,0.903l-0.884,3.38h-1.248
			L165.95,157.132z"/>
		<path fill="#FFFFFF" d="M175.584,165.036c0.363-0.165,0.649-0.382,0.857-0.65s0.313-0.58,0.313-0.936
			c-0.026,0.009-0.069,0.013-0.13,0.013c-0.208,0-0.389-0.063-0.54-0.188c-0.151-0.125-0.228-0.31-0.228-0.552
			c0-0.234,0.078-0.419,0.234-0.553c0.156-0.135,0.342-0.202,0.559-0.202c0.277,0,0.496,0.113,0.657,0.339
			c0.16,0.225,0.24,0.532,0.24,0.923c0,0.563-0.152,1.053-0.455,1.469c-0.304,0.416-0.72,0.736-1.248,0.962L175.584,165.036z
			 M175.817,158.107c0-0.252,0.076-0.453,0.228-0.604s0.336-0.228,0.553-0.228c0.208,0,0.388,0.076,0.539,0.228
			c0.152,0.151,0.228,0.353,0.228,0.604c0,0.233-0.075,0.427-0.228,0.578c-0.151,0.152-0.331,0.228-0.539,0.228
			c-0.217,0-0.401-0.075-0.553-0.228C175.894,158.534,175.817,158.341,175.817,158.107z"/>
		<path fill="#FFFFFF" d="M44.728,180.815c0.355,0,0.592-0.091,0.709-0.273c0.116-0.182,0.175-0.485,0.175-0.91
			c0-0.398-0.011-0.779-0.032-1.144s-0.033-0.767-0.033-1.209c0-0.416,0.059-0.736,0.176-0.962s0.314-0.377,0.592-0.455v-0.052
			c-0.277-0.078-0.475-0.228-0.592-0.449c-0.117-0.221-0.176-0.543-0.176-0.968c0-0.398,0.012-0.795,0.033-1.189
			s0.032-0.782,0.032-1.164c0-0.425-0.059-0.726-0.175-0.903c-0.117-0.178-0.354-0.267-0.709-0.267H44.39v-0.624h0.572
			c0.52,0,0.902,0.124,1.15,0.37c0.246,0.247,0.37,0.7,0.37,1.359c0,0.45-0.02,0.879-0.059,1.286
			c-0.039,0.408-0.059,0.819-0.059,1.235c0,0.252,0.078,0.479,0.233,0.683c0.156,0.204,0.451,0.31,0.885,0.318v0.676
			c-0.217,0-0.396,0.031-0.539,0.092c-0.144,0.061-0.258,0.139-0.346,0.233c-0.086,0.096-0.146,0.202-0.182,0.318
			c-0.034,0.117-0.052,0.241-0.052,0.371c0,0.217,0.007,0.425,0.02,0.624s0.026,0.398,0.039,0.598s0.026,0.405,0.039,0.617
			c0.013,0.213,0.02,0.436,0.02,0.67c0,0.338-0.03,0.617-0.091,0.839c-0.061,0.221-0.154,0.396-0.279,0.526
			c-0.126,0.13-0.285,0.223-0.475,0.279c-0.191,0.057-0.416,0.084-0.676,0.084H44.39v-0.61H44.728z"/>
	</g>
	<rect y="21" clip-path="url(#SVGID_2_)" fill="#22252B" width="20" height="184"/>
</g>
<g id="Layer_3">
	<defs>
		<path id="SVGID_3_" d="M424,3.456C424,1.547,422.006,0,419.547,0H220.453C217.994,0,216,1.547,216,3.456v188.088
			c0,1.909,1.994,3.456,4.453,3.456h199.094c2.459,0,4.453-1.547,4.453-3.456V3.456z"/>
	</defs>
	<use xlink:href="#SVGID_3_"  overflow="visible" fill="#2B303B"/>
	<clipPath id="SVGID_4_">
		<use xlink:href="#SVGID_3_"  overflow="visible"/>
	</clipPath>
	<rect x="216" clip-path="url(#SVGID_4_)" fill="#65737F" width="208" height="18"/>
	<circle clip-path="url(#SVGID_4_)" fill="#FF6563" cx="226.197" cy="8.939" r="3.994"/>
	<circle clip-path="url(#SVGID_4_)" fill="#FCCD7C" cx="236.848" cy="8.939" r="3.994"/>
	<circle clip-path="url(#SVGID_4_)" fill="#A3DB8C" cx="247.5" cy="8.939" r="3.994"/>
	<g clip-path="url(#SVGID_4_)">
		<g>
			<defs>
				<rect id="SVGID_5_" x="230" y="33" width="181" height="147"/>
			</defs>
			<clipPath id="SVGID_6_">
				<use xlink:href="#SVGID_5_"  overflow="visible"/>
			</clipPath>
			<rect x="230" y="33" clip-path="url(#SVGID_6_)" fill="#FFFFFF" width="181" height="147"/>
			<rect x="229" y="32" clip-path="url(#SVGID_6_)" fill="#4E5892" width="183" height="69"/>
		</g>
		<rect x="250.482" y="126.169" fill="#DFDFDF" width="58.28" height="5.404"/>
		<circle fill="#DFDFDF" cx="374.5" cy="134.439" r="15.22"/>
		<rect x="250.482" y="136.482" fill="#DFDFDF" width="87.757" height="5.404"/>
		<rect x="250.482" y="68.169" fill="#FFFFFF" width="58.28" height="5.404"/>
		<rect x="250.482" y="58.482" fill="#FFFFFF" width="87.757" height="5.404"/>
	</g>
</g>
<g id="Layer_8">
	<defs>
		<path id="SVGID_7_" d="M625,9c0-4.971-4.029-9-9-9H473c-4.971,0-9,4.029-9,9v191c0,4.971,4.029,9,9,9h143c4.971,0,9-4.029,9-9V9z"
			/>
	</defs>
	<use xlink:href="#SVGID_7_"  overflow="visible" fill="#373435"/>
	<clipPath id="SVGID_8_">
		<use xlink:href="#SVGID_7_"  overflow="visible"/>
	</clipPath>
	<rect x="480.53" y="19" clip-path="url(#SVGID_8_)" fill="#6E74A5" width="127" height="171"/>
	<circle clip-path="url(#SVGID_8_)" fill="#6F6E6E" cx="544.03" cy="9.129" r="1.917"/>
	<circle clip-path="url(#SVGID_8_)" fill="#3C3D3D" cx="543.917" cy="199.624" r="6.917"/>
	<g clip-path="url(#SVGID_8_)">
		<path fill="none" stroke="#B5B5B5" stroke-miterlimit="10" d="M547.5,198.5c0-1.104-0.896-2-2-2h-3c-1.104,0-2,0.896-2,2v3
			c0,1.104,0.896,2,2,2h3c1.104,0,2-0.896,2-2V198.5z"/>
	</g>
</g>
<g id="Layer_9">
	<defs>
		<path id="SVGID_9_" d="M590,205c0,4.971,4.029,9,9,9h64c4.971,0,9-4.029,9-9V48c0-4.971-4.029-9-9-9h-64c-4.971,0-9,4.029-9,9V205
			z"/>
	</defs>
	<use xlink:href="#SVGID_9_"  overflow="visible" fill="#373435"/>
	<clipPath id="SVGID_10_">
		<use xlink:href="#SVGID_9_"  overflow="visible"/>
	</clipPath>
	<rect x="595" y="65" clip-path="url(#SVGID_10_)" fill="#6E8DA5" width="71" height="124"/>
	<circle clip-path="url(#SVGID_10_)" fill="#3C3D3D" cx="631.03" cy="48.129" r="1.917"/>
	<rect x="622" y="54" clip-path="url(#SVGID_10_)" fill="#3C3D3D" width="17" height="2"/>
	<circle clip-path="url(#SVGID_10_)" fill="#3C3D3D" cx="630.742" cy="200.682" r="7.682"/>
	<g clip-path="url(#SVGID_10_)">
		<path fill="none" stroke="#B5B5B5" stroke-miterlimit="10" d="M634.5,198.5c0-1.104-0.896-2-2-2h-4c-1.104,0-2,0.896-2,2v4
			c0,1.104,0.896,2,2,2h4c1.104,0,2-0.896,2-2V198.5z"/>
	</g>
</g>
</svg>
